%TF.GenerationSoftware,KiCad,Pcbnew,9.0.0*%
%TF.CreationDate,2025-03-05T18:07:29-05:00*%
%TF.ProjectId,LumiGuard,4c756d69-4775-4617-9264-2e6b69636164,Ing.IsmelArab*%
%TF.SameCoordinates,Original*%
%TF.FileFunction,Plated,1,2,PTH,Mixed*%
%TF.FilePolarity,Positive*%
%FSLAX46Y46*%
G04 Gerber Fmt 4.6, Leading zero omitted, Abs format (unit mm)*
G04 Created by KiCad (PCBNEW 9.0.0) date 2025-03-05 18:07:29*
%MOMM*%
%LPD*%
G01*
G04 APERTURE LIST*
%TA.AperFunction,ViaDrill*%
%ADD10C,0.300000*%
%TD*%
G04 aperture for slot hole*
%TA.AperFunction,ComponentDrill*%
%ADD11C,0.600000*%
%TD*%
%TA.AperFunction,ComponentDrill*%
%ADD12C,1.000000*%
%TD*%
G04 APERTURE END LIST*
D10*
X116490000Y-93120000D03*
X117511500Y-116480000D03*
X117780000Y-117210000D03*
X118070000Y-124450000D03*
X120490000Y-127540000D03*
X120600000Y-95970000D03*
X121050000Y-111060000D03*
X121130000Y-105750000D03*
X121420000Y-89840000D03*
X121530000Y-96870000D03*
X121740000Y-92110000D03*
X121960000Y-93320000D03*
X122780000Y-104950000D03*
X123040000Y-89810000D03*
X123070000Y-108810000D03*
X123150000Y-94230000D03*
X123460000Y-127520000D03*
X123980000Y-95240000D03*
X124140000Y-113560000D03*
X124170000Y-104870000D03*
X124550000Y-116770000D03*
X124910000Y-114770000D03*
X126910000Y-125100000D03*
X127030000Y-119230000D03*
X127770000Y-114170000D03*
X128130000Y-116230000D03*
X128200000Y-101080000D03*
X128280000Y-120900000D03*
X128540000Y-95630000D03*
X128800000Y-124290000D03*
X130030000Y-99370000D03*
X130620000Y-103220000D03*
X131020000Y-110630000D03*
X131350000Y-114800000D03*
X131500000Y-117230000D03*
X132070000Y-104780000D03*
X132520000Y-112280000D03*
X132750000Y-114820000D03*
X132780000Y-125060000D03*
X133050000Y-101530000D03*
X133210000Y-116220000D03*
X133260000Y-111140000D03*
X134550000Y-113800000D03*
X134580000Y-115400000D03*
X135010000Y-101180000D03*
X137080000Y-131460000D03*
X145810000Y-118870000D03*
X147140000Y-123310000D03*
D11*
%TO.C,J2*%
X116360000Y-129500000D02*
X116360000Y-128900000D01*
X116360000Y-133300000D02*
X116360000Y-132700000D01*
X125000000Y-129500000D02*
X125000000Y-128900000D01*
X125000000Y-133300000D02*
X125000000Y-132700000D01*
D12*
%TO.C,J1*%
X136450000Y-105300000D03*
X138950000Y-105300000D03*
%TO.C,BZ1*%
X151200000Y-96800000D03*
X158800000Y-96800000D03*
M02*
