%TF.GenerationSoftware,KiCad,Pcbnew,9.0.0*%
%TF.CreationDate,2025-03-05T18:06:52-05:00*%
%TF.ProjectId,LumiGuard,4c756d69-4775-4617-9264-2e6b69636164,Ing.IsmelArab*%
%TF.SameCoordinates,Original*%
%TF.FileFunction,Paste,Top*%
%TF.FilePolarity,Positive*%
%FSLAX46Y46*%
G04 Gerber Fmt 4.6, Leading zero omitted, Abs format (unit mm)*
G04 Created by KiCad (PCBNEW 9.0.0) date 2025-03-05 18:06:52*
%MOMM*%
%LPD*%
G01*
G04 APERTURE LIST*
G04 Aperture macros list*
%AMRoundRect*
0 Rectangle with rounded corners*
0 $1 Rounding radius*
0 $2 $3 $4 $5 $6 $7 $8 $9 X,Y pos of 4 corners*
0 Add a 4 corners polygon primitive as box body*
4,1,4,$2,$3,$4,$5,$6,$7,$8,$9,$2,$3,0*
0 Add four circle primitives for the rounded corners*
1,1,$1+$1,$2,$3*
1,1,$1+$1,$4,$5*
1,1,$1+$1,$6,$7*
1,1,$1+$1,$8,$9*
0 Add four rect primitives between the rounded corners*
20,1,$1+$1,$2,$3,$4,$5,0*
20,1,$1+$1,$4,$5,$6,$7,0*
20,1,$1+$1,$6,$7,$8,$9,0*
20,1,$1+$1,$8,$9,$2,$3,0*%
G04 Aperture macros list end*
%ADD10RoundRect,0.250000X-0.475000X0.250000X-0.475000X-0.250000X0.475000X-0.250000X0.475000X0.250000X0*%
%ADD11RoundRect,0.200000X0.200000X0.275000X-0.200000X0.275000X-0.200000X-0.275000X0.200000X-0.275000X0*%
%ADD12RoundRect,0.218750X-0.218750X-0.256250X0.218750X-0.256250X0.218750X0.256250X-0.218750X0.256250X0*%
%ADD13RoundRect,0.200000X-0.200000X-0.275000X0.200000X-0.275000X0.200000X0.275000X-0.200000X0.275000X0*%
%ADD14RoundRect,0.150000X-0.150000X0.587500X-0.150000X-0.587500X0.150000X-0.587500X0.150000X0.587500X0*%
%ADD15RoundRect,0.218750X-0.256250X0.218750X-0.256250X-0.218750X0.256250X-0.218750X0.256250X0.218750X0*%
%ADD16RoundRect,0.225000X-0.225000X-0.375000X0.225000X-0.375000X0.225000X0.375000X-0.225000X0.375000X0*%
%ADD17RoundRect,0.175000X-0.175000X-0.425000X0.175000X-0.425000X0.175000X0.425000X-0.175000X0.425000X0*%
%ADD18RoundRect,0.190000X0.190000X0.410000X-0.190000X0.410000X-0.190000X-0.410000X0.190000X-0.410000X0*%
%ADD19RoundRect,0.200000X0.200000X0.400000X-0.200000X0.400000X-0.200000X-0.400000X0.200000X-0.400000X0*%
%ADD20RoundRect,0.175000X0.175000X0.425000X-0.175000X0.425000X-0.175000X-0.425000X0.175000X-0.425000X0*%
%ADD21RoundRect,0.190000X-0.190000X-0.410000X0.190000X-0.410000X0.190000X0.410000X-0.190000X0.410000X0*%
%ADD22RoundRect,0.200000X-0.200000X-0.400000X0.200000X-0.400000X0.200000X0.400000X-0.200000X0.400000X0*%
%ADD23O,1.100000X1.700000*%
%ADD24RoundRect,0.162500X-0.650000X-0.162500X0.650000X-0.162500X0.650000X0.162500X-0.650000X0.162500X0*%
%ADD25R,1.525000X0.650000*%
%ADD26R,2.120000X2.100000*%
%ADD27R,0.920000X2.100000*%
%ADD28R,0.700000X1.122500*%
%ADD29R,0.760000X1.135000*%
%ADD30RoundRect,0.250000X-0.650000X0.325000X-0.650000X-0.325000X0.650000X-0.325000X0.650000X0.325000X0*%
%ADD31RoundRect,0.200000X0.275000X-0.200000X0.275000X0.200000X-0.275000X0.200000X-0.275000X-0.200000X0*%
%ADD32R,0.600000X1.750000*%
%ADD33RoundRect,0.250000X-0.650000X1.000000X-0.650000X-1.000000X0.650000X-1.000000X0.650000X1.000000X0*%
%ADD34R,0.725000X0.900000*%
%ADD35R,1.325000X3.150000*%
%ADD36R,0.450000X0.500000*%
%ADD37R,0.500000X1.150000*%
%ADD38RoundRect,0.250000X0.475000X-0.250000X0.475000X0.250000X-0.475000X0.250000X-0.475000X-0.250000X0*%
%ADD39RoundRect,0.250000X-0.250000X-0.475000X0.250000X-0.475000X0.250000X0.475000X-0.250000X0.475000X0*%
%ADD40RoundRect,0.150000X-0.512500X-0.150000X0.512500X-0.150000X0.512500X0.150000X-0.512500X0.150000X0*%
%ADD41RoundRect,0.200000X-0.275000X0.200000X-0.275000X-0.200000X0.275000X-0.200000X0.275000X0.200000X0*%
%ADD42RoundRect,0.250000X-0.550000X1.500000X-0.550000X-1.500000X0.550000X-1.500000X0.550000X1.500000X0*%
G04 APERTURE END LIST*
D10*
%TO.C,C7*%
X127400000Y-108400000D03*
X127400000Y-110300000D03*
%TD*%
D11*
%TO.C,R9*%
X143188000Y-117600000D03*
X141538000Y-117600000D03*
%TD*%
D12*
%TO.C,FB1*%
X129938000Y-123020000D03*
X131513000Y-123020000D03*
%TD*%
D13*
%TO.C,R5*%
X127300000Y-104150000D03*
X128950000Y-104150000D03*
%TD*%
D14*
%TO.C,D2*%
X122650000Y-99025000D03*
X120750000Y-99025000D03*
X121700000Y-100900000D03*
%TD*%
D15*
%TO.C,L2*%
X135100000Y-97325000D03*
X135100000Y-98900000D03*
%TD*%
D11*
%TO.C,R13*%
X128650000Y-111950000D03*
X127000000Y-111950000D03*
%TD*%
D16*
%TO.C,D1*%
X146550000Y-106200000D03*
X149850000Y-106200000D03*
%TD*%
D17*
%TO.C,J2*%
X120180000Y-129120000D03*
D18*
X122200000Y-129120000D03*
D19*
X123430000Y-129120000D03*
D20*
X121180000Y-129120000D03*
D21*
X119160000Y-129120000D03*
D22*
X117930000Y-129120000D03*
D23*
X116360000Y-129200000D03*
X116360000Y-133000000D03*
X125000000Y-129200000D03*
X125000000Y-133000000D03*
%TD*%
D24*
%TO.C,U3*%
X118025000Y-118990000D03*
X118025000Y-120260000D03*
X118025000Y-121530000D03*
X118025000Y-122800000D03*
X125200000Y-122800000D03*
X125200000Y-121530000D03*
X125200000Y-120260000D03*
X125200000Y-118990000D03*
%TD*%
D25*
%TO.C,Q3*%
X154476000Y-110900000D03*
X154476000Y-112170000D03*
X154476000Y-113440000D03*
X154476000Y-114710000D03*
X159900000Y-114710000D03*
X159900000Y-113440000D03*
X159900000Y-112170000D03*
X159900000Y-110900000D03*
%TD*%
D26*
%TO.C,LED4*%
X150085500Y-129900000D03*
D27*
X151685500Y-129900000D03*
D28*
X148695500Y-129868750D03*
D29*
X152495500Y-129850000D03*
%TD*%
D11*
%TO.C,R7*%
X119725000Y-115350000D03*
X118075000Y-115350000D03*
%TD*%
D30*
%TO.C,C8*%
X126300000Y-93950000D03*
X126300000Y-96900000D03*
%TD*%
D31*
%TO.C,R12*%
X135400000Y-119400000D03*
X135400000Y-117750000D03*
%TD*%
D11*
%TO.C,R6*%
X119725000Y-113600000D03*
X118075000Y-113600000D03*
%TD*%
D32*
%TO.C,SPI1*%
X130800000Y-127950000D03*
X131800000Y-126200000D03*
X132800000Y-127950000D03*
X133800000Y-126200000D03*
X134800000Y-127950000D03*
X135800000Y-126200000D03*
%TD*%
D11*
%TO.C,R8*%
X152425000Y-117000000D03*
X150775000Y-117000000D03*
%TD*%
D25*
%TO.C,Q1*%
X136076000Y-110930000D03*
X136076000Y-112200000D03*
X136076000Y-113470000D03*
X136076000Y-114740000D03*
X141500000Y-114740000D03*
X141500000Y-113470000D03*
X141500000Y-112200000D03*
X141500000Y-110930000D03*
%TD*%
D33*
%TO.C,D6*%
X157400500Y-125900000D03*
X157400500Y-129900000D03*
%TD*%
D34*
%TO.C,IC1*%
X120400000Y-94150000D03*
X120400000Y-93075000D03*
X120400000Y-92000000D03*
X120400000Y-90926000D03*
X118700000Y-90926000D03*
X118700000Y-92000000D03*
X118700000Y-93075000D03*
X118700000Y-94150000D03*
%TD*%
D35*
%TO.C,LED6*%
X141576000Y-129950000D03*
X143400000Y-129950000D03*
D36*
X140688000Y-129950000D03*
X144288000Y-129950000D03*
%TD*%
D25*
%TO.C,Q2*%
X145176000Y-110900000D03*
X145176000Y-112170000D03*
X145176000Y-113440000D03*
X145176000Y-114710000D03*
X150600000Y-114710000D03*
X150600000Y-113440000D03*
X150600000Y-112170000D03*
X150600000Y-110900000D03*
%TD*%
D26*
%TO.C,LED2*%
X150015500Y-124080000D03*
D27*
X151645500Y-124080000D03*
D37*
X148688000Y-124090000D03*
X152335500Y-124060000D03*
%TD*%
D31*
%TO.C,R11*%
X137400000Y-119400000D03*
X137400000Y-117750000D03*
%TD*%
D38*
%TO.C,C9*%
X130000000Y-118000000D03*
X130000000Y-116100000D03*
%TD*%
D35*
%TO.C,LED3*%
X141576000Y-123400000D03*
X143400000Y-123400000D03*
D36*
X140688000Y-123400000D03*
X144288000Y-123400000D03*
%TD*%
D13*
%TO.C,R4*%
X127300000Y-102400000D03*
X128950000Y-102400000D03*
%TD*%
D39*
%TO.C,C5*%
X127200000Y-106400000D03*
X129100000Y-106400000D03*
%TD*%
D40*
%TO.C,U1*%
X130025000Y-95700000D03*
X130025000Y-96650000D03*
X130025000Y-97600000D03*
X132300000Y-97600000D03*
X132300000Y-95700000D03*
%TD*%
D41*
%TO.C,R10*%
X124750000Y-107900000D03*
X124750000Y-109550000D03*
%TD*%
D42*
%TO.C,C1*%
X142000000Y-93000000D03*
X142000000Y-98600000D03*
%TD*%
D33*
%TO.C,D5*%
X157400000Y-118400000D03*
X157400000Y-122400000D03*
%TD*%
M02*
