%TF.GenerationSoftware,KiCad,Pcbnew,9.0.0*%
%TF.CreationDate,2025-03-05T18:06:52-05:00*%
%TF.ProjectId,LumiGuard,4c756d69-4775-4617-9264-2e6b69636164,Ing.IsmelArab*%
%TF.SameCoordinates,Original*%
%TF.FileFunction,Legend,Top*%
%TF.FilePolarity,Positive*%
%FSLAX46Y46*%
G04 Gerber Fmt 4.6, Leading zero omitted, Abs format (unit mm)*
G04 Created by KiCad (PCBNEW 9.0.0) date 2025-03-05 18:06:52*
%MOMM*%
%LPD*%
G01*
G04 APERTURE LIST*
%ADD10C,0.100000*%
%ADD11C,0.200000*%
%ADD12C,0.150000*%
%ADD13C,0.120000*%
%ADD14C,0.000000*%
G04 APERTURE END LIST*
D10*
X135026109Y-133823809D02*
X134788014Y-133990475D01*
X135026109Y-134109523D02*
X134526109Y-134109523D01*
X134526109Y-134109523D02*
X134526109Y-133919047D01*
X134526109Y-133919047D02*
X134549919Y-133871428D01*
X134549919Y-133871428D02*
X134573728Y-133847618D01*
X134573728Y-133847618D02*
X134621347Y-133823809D01*
X134621347Y-133823809D02*
X134692776Y-133823809D01*
X134692776Y-133823809D02*
X134740395Y-133847618D01*
X134740395Y-133847618D02*
X134764204Y-133871428D01*
X134764204Y-133871428D02*
X134788014Y-133919047D01*
X134788014Y-133919047D02*
X134788014Y-134109523D01*
X135002300Y-133419047D02*
X135026109Y-133466666D01*
X135026109Y-133466666D02*
X135026109Y-133561904D01*
X135026109Y-133561904D02*
X135002300Y-133609523D01*
X135002300Y-133609523D02*
X134954680Y-133633332D01*
X134954680Y-133633332D02*
X134764204Y-133633332D01*
X134764204Y-133633332D02*
X134716585Y-133609523D01*
X134716585Y-133609523D02*
X134692776Y-133561904D01*
X134692776Y-133561904D02*
X134692776Y-133466666D01*
X134692776Y-133466666D02*
X134716585Y-133419047D01*
X134716585Y-133419047D02*
X134764204Y-133395237D01*
X134764204Y-133395237D02*
X134811823Y-133395237D01*
X134811823Y-133395237D02*
X134859442Y-133633332D01*
X135002300Y-133204761D02*
X135026109Y-133157142D01*
X135026109Y-133157142D02*
X135026109Y-133061904D01*
X135026109Y-133061904D02*
X135002300Y-133014285D01*
X135002300Y-133014285D02*
X134954680Y-132990476D01*
X134954680Y-132990476D02*
X134930871Y-132990476D01*
X134930871Y-132990476D02*
X134883252Y-133014285D01*
X134883252Y-133014285D02*
X134859442Y-133061904D01*
X134859442Y-133061904D02*
X134859442Y-133133333D01*
X134859442Y-133133333D02*
X134835633Y-133180952D01*
X134835633Y-133180952D02*
X134788014Y-133204761D01*
X134788014Y-133204761D02*
X134764204Y-133204761D01*
X134764204Y-133204761D02*
X134716585Y-133180952D01*
X134716585Y-133180952D02*
X134692776Y-133133333D01*
X134692776Y-133133333D02*
X134692776Y-133061904D01*
X134692776Y-133061904D02*
X134716585Y-133014285D01*
X135002300Y-132585714D02*
X135026109Y-132633333D01*
X135026109Y-132633333D02*
X135026109Y-132728571D01*
X135026109Y-132728571D02*
X135002300Y-132776190D01*
X135002300Y-132776190D02*
X134954680Y-132799999D01*
X134954680Y-132799999D02*
X134764204Y-132799999D01*
X134764204Y-132799999D02*
X134716585Y-132776190D01*
X134716585Y-132776190D02*
X134692776Y-132728571D01*
X134692776Y-132728571D02*
X134692776Y-132633333D01*
X134692776Y-132633333D02*
X134716585Y-132585714D01*
X134716585Y-132585714D02*
X134764204Y-132561904D01*
X134764204Y-132561904D02*
X134811823Y-132561904D01*
X134811823Y-132561904D02*
X134859442Y-132799999D01*
X134692776Y-132419047D02*
X134692776Y-132228571D01*
X134526109Y-132347619D02*
X134954680Y-132347619D01*
X134954680Y-132347619D02*
X135002300Y-132323809D01*
X135002300Y-132323809D02*
X135026109Y-132276190D01*
X135026109Y-132276190D02*
X135026109Y-132228571D01*
X134526109Y-132061905D02*
X134930871Y-132061905D01*
X134930871Y-132061905D02*
X134978490Y-132038095D01*
X134978490Y-132038095D02*
X135002300Y-132014286D01*
X135002300Y-132014286D02*
X135026109Y-131966667D01*
X135026109Y-131966667D02*
X135026109Y-131871429D01*
X135026109Y-131871429D02*
X135002300Y-131823810D01*
X135002300Y-131823810D02*
X134978490Y-131800000D01*
X134978490Y-131800000D02*
X134930871Y-131776191D01*
X134930871Y-131776191D02*
X134526109Y-131776191D01*
X135002300Y-131561904D02*
X135026109Y-131490476D01*
X135026109Y-131490476D02*
X135026109Y-131371428D01*
X135026109Y-131371428D02*
X135002300Y-131323809D01*
X135002300Y-131323809D02*
X134978490Y-131300000D01*
X134978490Y-131300000D02*
X134930871Y-131276190D01*
X134930871Y-131276190D02*
X134883252Y-131276190D01*
X134883252Y-131276190D02*
X134835633Y-131300000D01*
X134835633Y-131300000D02*
X134811823Y-131323809D01*
X134811823Y-131323809D02*
X134788014Y-131371428D01*
X134788014Y-131371428D02*
X134764204Y-131466666D01*
X134764204Y-131466666D02*
X134740395Y-131514285D01*
X134740395Y-131514285D02*
X134716585Y-131538095D01*
X134716585Y-131538095D02*
X134668966Y-131561904D01*
X134668966Y-131561904D02*
X134621347Y-131561904D01*
X134621347Y-131561904D02*
X134573728Y-131538095D01*
X134573728Y-131538095D02*
X134549919Y-131514285D01*
X134549919Y-131514285D02*
X134526109Y-131466666D01*
X134526109Y-131466666D02*
X134526109Y-131347619D01*
X134526109Y-131347619D02*
X134549919Y-131276190D01*
X134764204Y-130895238D02*
X134788014Y-130823810D01*
X134788014Y-130823810D02*
X134811823Y-130800000D01*
X134811823Y-130800000D02*
X134859442Y-130776191D01*
X134859442Y-130776191D02*
X134930871Y-130776191D01*
X134930871Y-130776191D02*
X134978490Y-130800000D01*
X134978490Y-130800000D02*
X135002300Y-130823810D01*
X135002300Y-130823810D02*
X135026109Y-130871429D01*
X135026109Y-130871429D02*
X135026109Y-131061905D01*
X135026109Y-131061905D02*
X134526109Y-131061905D01*
X134526109Y-131061905D02*
X134526109Y-130895238D01*
X134526109Y-130895238D02*
X134549919Y-130847619D01*
X134549919Y-130847619D02*
X134573728Y-130823810D01*
X134573728Y-130823810D02*
X134621347Y-130800000D01*
X134621347Y-130800000D02*
X134668966Y-130800000D01*
X134668966Y-130800000D02*
X134716585Y-130823810D01*
X134716585Y-130823810D02*
X134740395Y-130847619D01*
X134740395Y-130847619D02*
X134764204Y-130895238D01*
X134764204Y-130895238D02*
X134764204Y-131061905D01*
X135026109Y-130347619D02*
X134764204Y-130347619D01*
X134764204Y-130347619D02*
X134716585Y-130371429D01*
X134716585Y-130371429D02*
X134692776Y-130419048D01*
X134692776Y-130419048D02*
X134692776Y-130514286D01*
X134692776Y-130514286D02*
X134716585Y-130561905D01*
X135002300Y-130347619D02*
X135026109Y-130395238D01*
X135026109Y-130395238D02*
X135026109Y-130514286D01*
X135026109Y-130514286D02*
X135002300Y-130561905D01*
X135002300Y-130561905D02*
X134954680Y-130585714D01*
X134954680Y-130585714D02*
X134907061Y-130585714D01*
X134907061Y-130585714D02*
X134859442Y-130561905D01*
X134859442Y-130561905D02*
X134835633Y-130514286D01*
X134835633Y-130514286D02*
X134835633Y-130395238D01*
X134835633Y-130395238D02*
X134811823Y-130347619D01*
X135002300Y-130133333D02*
X135026109Y-130085714D01*
X135026109Y-130085714D02*
X135026109Y-129990476D01*
X135026109Y-129990476D02*
X135002300Y-129942857D01*
X135002300Y-129942857D02*
X134954680Y-129919048D01*
X134954680Y-129919048D02*
X134930871Y-129919048D01*
X134930871Y-129919048D02*
X134883252Y-129942857D01*
X134883252Y-129942857D02*
X134859442Y-129990476D01*
X134859442Y-129990476D02*
X134859442Y-130061905D01*
X134859442Y-130061905D02*
X134835633Y-130109524D01*
X134835633Y-130109524D02*
X134788014Y-130133333D01*
X134788014Y-130133333D02*
X134764204Y-130133333D01*
X134764204Y-130133333D02*
X134716585Y-130109524D01*
X134716585Y-130109524D02*
X134692776Y-130061905D01*
X134692776Y-130061905D02*
X134692776Y-129990476D01*
X134692776Y-129990476D02*
X134716585Y-129942857D01*
X134692776Y-129704762D02*
X135192776Y-129704762D01*
X134716585Y-129704762D02*
X134692776Y-129657143D01*
X134692776Y-129657143D02*
X134692776Y-129561905D01*
X134692776Y-129561905D02*
X134716585Y-129514286D01*
X134716585Y-129514286D02*
X134740395Y-129490476D01*
X134740395Y-129490476D02*
X134788014Y-129466667D01*
X134788014Y-129466667D02*
X134930871Y-129466667D01*
X134930871Y-129466667D02*
X134978490Y-129490476D01*
X134978490Y-129490476D02*
X135002300Y-129514286D01*
X135002300Y-129514286D02*
X135026109Y-129561905D01*
X135026109Y-129561905D02*
X135026109Y-129657143D01*
X135026109Y-129657143D02*
X135002300Y-129704762D01*
X134226109Y-124585714D02*
X133726109Y-124585714D01*
X133726109Y-124585714D02*
X134083252Y-124419047D01*
X134083252Y-124419047D02*
X133726109Y-124252381D01*
X133726109Y-124252381D02*
X134226109Y-124252381D01*
X133726109Y-123919047D02*
X133726109Y-123823809D01*
X133726109Y-123823809D02*
X133749919Y-123776190D01*
X133749919Y-123776190D02*
X133797538Y-123728571D01*
X133797538Y-123728571D02*
X133892776Y-123704761D01*
X133892776Y-123704761D02*
X134059442Y-123704761D01*
X134059442Y-123704761D02*
X134154680Y-123728571D01*
X134154680Y-123728571D02*
X134202300Y-123776190D01*
X134202300Y-123776190D02*
X134226109Y-123823809D01*
X134226109Y-123823809D02*
X134226109Y-123919047D01*
X134226109Y-123919047D02*
X134202300Y-123966666D01*
X134202300Y-123966666D02*
X134154680Y-124014285D01*
X134154680Y-124014285D02*
X134059442Y-124038094D01*
X134059442Y-124038094D02*
X133892776Y-124038094D01*
X133892776Y-124038094D02*
X133797538Y-124014285D01*
X133797538Y-124014285D02*
X133749919Y-123966666D01*
X133749919Y-123966666D02*
X133726109Y-123919047D01*
X134202300Y-123514284D02*
X134226109Y-123442856D01*
X134226109Y-123442856D02*
X134226109Y-123323808D01*
X134226109Y-123323808D02*
X134202300Y-123276189D01*
X134202300Y-123276189D02*
X134178490Y-123252380D01*
X134178490Y-123252380D02*
X134130871Y-123228570D01*
X134130871Y-123228570D02*
X134083252Y-123228570D01*
X134083252Y-123228570D02*
X134035633Y-123252380D01*
X134035633Y-123252380D02*
X134011823Y-123276189D01*
X134011823Y-123276189D02*
X133988014Y-123323808D01*
X133988014Y-123323808D02*
X133964204Y-123419046D01*
X133964204Y-123419046D02*
X133940395Y-123466665D01*
X133940395Y-123466665D02*
X133916585Y-123490475D01*
X133916585Y-123490475D02*
X133868966Y-123514284D01*
X133868966Y-123514284D02*
X133821347Y-123514284D01*
X133821347Y-123514284D02*
X133773728Y-123490475D01*
X133773728Y-123490475D02*
X133749919Y-123466665D01*
X133749919Y-123466665D02*
X133726109Y-123419046D01*
X133726109Y-123419046D02*
X133726109Y-123299999D01*
X133726109Y-123299999D02*
X133749919Y-123228570D01*
X134226109Y-123014285D02*
X133726109Y-123014285D01*
X133002300Y-131042856D02*
X133026109Y-130971428D01*
X133026109Y-130971428D02*
X133026109Y-130852380D01*
X133026109Y-130852380D02*
X133002300Y-130804761D01*
X133002300Y-130804761D02*
X132978490Y-130780952D01*
X132978490Y-130780952D02*
X132930871Y-130757142D01*
X132930871Y-130757142D02*
X132883252Y-130757142D01*
X132883252Y-130757142D02*
X132835633Y-130780952D01*
X132835633Y-130780952D02*
X132811823Y-130804761D01*
X132811823Y-130804761D02*
X132788014Y-130852380D01*
X132788014Y-130852380D02*
X132764204Y-130947618D01*
X132764204Y-130947618D02*
X132740395Y-130995237D01*
X132740395Y-130995237D02*
X132716585Y-131019047D01*
X132716585Y-131019047D02*
X132668966Y-131042856D01*
X132668966Y-131042856D02*
X132621347Y-131042856D01*
X132621347Y-131042856D02*
X132573728Y-131019047D01*
X132573728Y-131019047D02*
X132549919Y-130995237D01*
X132549919Y-130995237D02*
X132526109Y-130947618D01*
X132526109Y-130947618D02*
X132526109Y-130828571D01*
X132526109Y-130828571D02*
X132549919Y-130757142D01*
X132978490Y-130257143D02*
X133002300Y-130280952D01*
X133002300Y-130280952D02*
X133026109Y-130352381D01*
X133026109Y-130352381D02*
X133026109Y-130400000D01*
X133026109Y-130400000D02*
X133002300Y-130471428D01*
X133002300Y-130471428D02*
X132954680Y-130519047D01*
X132954680Y-130519047D02*
X132907061Y-130542857D01*
X132907061Y-130542857D02*
X132811823Y-130566666D01*
X132811823Y-130566666D02*
X132740395Y-130566666D01*
X132740395Y-130566666D02*
X132645157Y-130542857D01*
X132645157Y-130542857D02*
X132597538Y-130519047D01*
X132597538Y-130519047D02*
X132549919Y-130471428D01*
X132549919Y-130471428D02*
X132526109Y-130400000D01*
X132526109Y-130400000D02*
X132526109Y-130352381D01*
X132526109Y-130352381D02*
X132549919Y-130280952D01*
X132549919Y-130280952D02*
X132573728Y-130257143D01*
X133026109Y-130042857D02*
X132526109Y-130042857D01*
X133026109Y-129757143D02*
X132740395Y-129971428D01*
X132526109Y-129757143D02*
X132811823Y-130042857D01*
X135883252Y-124680951D02*
X135883252Y-124442856D01*
X136026109Y-124728570D02*
X135526109Y-124561904D01*
X135526109Y-124561904D02*
X136026109Y-124395237D01*
X135549919Y-123966666D02*
X135526109Y-124014285D01*
X135526109Y-124014285D02*
X135526109Y-124085714D01*
X135526109Y-124085714D02*
X135549919Y-124157142D01*
X135549919Y-124157142D02*
X135597538Y-124204761D01*
X135597538Y-124204761D02*
X135645157Y-124228571D01*
X135645157Y-124228571D02*
X135740395Y-124252380D01*
X135740395Y-124252380D02*
X135811823Y-124252380D01*
X135811823Y-124252380D02*
X135907061Y-124228571D01*
X135907061Y-124228571D02*
X135954680Y-124204761D01*
X135954680Y-124204761D02*
X136002300Y-124157142D01*
X136002300Y-124157142D02*
X136026109Y-124085714D01*
X136026109Y-124085714D02*
X136026109Y-124038095D01*
X136026109Y-124038095D02*
X136002300Y-123966666D01*
X136002300Y-123966666D02*
X135978490Y-123942857D01*
X135978490Y-123942857D02*
X135811823Y-123942857D01*
X135811823Y-123942857D02*
X135811823Y-124038095D01*
X136026109Y-123728571D02*
X135526109Y-123728571D01*
X135526109Y-123728571D02*
X136026109Y-123442857D01*
X136026109Y-123442857D02*
X135526109Y-123442857D01*
X136026109Y-123204761D02*
X135526109Y-123204761D01*
X135526109Y-123204761D02*
X135526109Y-123085713D01*
X135526109Y-123085713D02*
X135549919Y-123014285D01*
X135549919Y-123014285D02*
X135597538Y-122966666D01*
X135597538Y-122966666D02*
X135645157Y-122942856D01*
X135645157Y-122942856D02*
X135740395Y-122919047D01*
X135740395Y-122919047D02*
X135811823Y-122919047D01*
X135811823Y-122919047D02*
X135907061Y-122942856D01*
X135907061Y-122942856D02*
X135954680Y-122966666D01*
X135954680Y-122966666D02*
X136002300Y-123014285D01*
X136002300Y-123014285D02*
X136026109Y-123085713D01*
X136026109Y-123085713D02*
X136026109Y-123204761D01*
X131026109Y-131185714D02*
X130526109Y-131185714D01*
X130526109Y-131185714D02*
X130883252Y-131019047D01*
X130883252Y-131019047D02*
X130526109Y-130852381D01*
X130526109Y-130852381D02*
X131026109Y-130852381D01*
X131026109Y-130614285D02*
X130526109Y-130614285D01*
X131002300Y-130399999D02*
X131026109Y-130328571D01*
X131026109Y-130328571D02*
X131026109Y-130209523D01*
X131026109Y-130209523D02*
X131002300Y-130161904D01*
X131002300Y-130161904D02*
X130978490Y-130138095D01*
X130978490Y-130138095D02*
X130930871Y-130114285D01*
X130930871Y-130114285D02*
X130883252Y-130114285D01*
X130883252Y-130114285D02*
X130835633Y-130138095D01*
X130835633Y-130138095D02*
X130811823Y-130161904D01*
X130811823Y-130161904D02*
X130788014Y-130209523D01*
X130788014Y-130209523D02*
X130764204Y-130304761D01*
X130764204Y-130304761D02*
X130740395Y-130352380D01*
X130740395Y-130352380D02*
X130716585Y-130376190D01*
X130716585Y-130376190D02*
X130668966Y-130399999D01*
X130668966Y-130399999D02*
X130621347Y-130399999D01*
X130621347Y-130399999D02*
X130573728Y-130376190D01*
X130573728Y-130376190D02*
X130549919Y-130352380D01*
X130549919Y-130352380D02*
X130526109Y-130304761D01*
X130526109Y-130304761D02*
X130526109Y-130185714D01*
X130526109Y-130185714D02*
X130549919Y-130114285D01*
X130526109Y-129804762D02*
X130526109Y-129709524D01*
X130526109Y-129709524D02*
X130549919Y-129661905D01*
X130549919Y-129661905D02*
X130597538Y-129614286D01*
X130597538Y-129614286D02*
X130692776Y-129590476D01*
X130692776Y-129590476D02*
X130859442Y-129590476D01*
X130859442Y-129590476D02*
X130954680Y-129614286D01*
X130954680Y-129614286D02*
X131002300Y-129661905D01*
X131002300Y-129661905D02*
X131026109Y-129709524D01*
X131026109Y-129709524D02*
X131026109Y-129804762D01*
X131026109Y-129804762D02*
X131002300Y-129852381D01*
X131002300Y-129852381D02*
X130954680Y-129900000D01*
X130954680Y-129900000D02*
X130859442Y-129923809D01*
X130859442Y-129923809D02*
X130692776Y-129923809D01*
X130692776Y-129923809D02*
X130597538Y-129900000D01*
X130597538Y-129900000D02*
X130549919Y-129852381D01*
X130549919Y-129852381D02*
X130526109Y-129804762D01*
D11*
X129363504Y-109483332D02*
X129401600Y-109521428D01*
X129401600Y-109521428D02*
X129439695Y-109635713D01*
X129439695Y-109635713D02*
X129439695Y-109711904D01*
X129439695Y-109711904D02*
X129401600Y-109826190D01*
X129401600Y-109826190D02*
X129325409Y-109902380D01*
X129325409Y-109902380D02*
X129249219Y-109940475D01*
X129249219Y-109940475D02*
X129096838Y-109978571D01*
X129096838Y-109978571D02*
X128982552Y-109978571D01*
X128982552Y-109978571D02*
X128830171Y-109940475D01*
X128830171Y-109940475D02*
X128753980Y-109902380D01*
X128753980Y-109902380D02*
X128677790Y-109826190D01*
X128677790Y-109826190D02*
X128639695Y-109711904D01*
X128639695Y-109711904D02*
X128639695Y-109635713D01*
X128639695Y-109635713D02*
X128677790Y-109521428D01*
X128677790Y-109521428D02*
X128715885Y-109483332D01*
X128639695Y-109216666D02*
X128639695Y-108683332D01*
X128639695Y-108683332D02*
X129439695Y-109026190D01*
X115959695Y-111190475D02*
X115959695Y-110733332D01*
X116759695Y-110961904D02*
X115959695Y-110961904D01*
X116721600Y-110161903D02*
X116759695Y-110238094D01*
X116759695Y-110238094D02*
X116759695Y-110390475D01*
X116759695Y-110390475D02*
X116721600Y-110466665D01*
X116721600Y-110466665D02*
X116645409Y-110504761D01*
X116645409Y-110504761D02*
X116340647Y-110504761D01*
X116340647Y-110504761D02*
X116264457Y-110466665D01*
X116264457Y-110466665D02*
X116226361Y-110390475D01*
X116226361Y-110390475D02*
X116226361Y-110238094D01*
X116226361Y-110238094D02*
X116264457Y-110161903D01*
X116264457Y-110161903D02*
X116340647Y-110123808D01*
X116340647Y-110123808D02*
X116416838Y-110123808D01*
X116416838Y-110123808D02*
X116493028Y-110504761D01*
X116721600Y-109819047D02*
X116759695Y-109742856D01*
X116759695Y-109742856D02*
X116759695Y-109590475D01*
X116759695Y-109590475D02*
X116721600Y-109514285D01*
X116721600Y-109514285D02*
X116645409Y-109476189D01*
X116645409Y-109476189D02*
X116607314Y-109476189D01*
X116607314Y-109476189D02*
X116531123Y-109514285D01*
X116531123Y-109514285D02*
X116493028Y-109590475D01*
X116493028Y-109590475D02*
X116493028Y-109704761D01*
X116493028Y-109704761D02*
X116454933Y-109780951D01*
X116454933Y-109780951D02*
X116378742Y-109819047D01*
X116378742Y-109819047D02*
X116340647Y-109819047D01*
X116340647Y-109819047D02*
X116264457Y-109780951D01*
X116264457Y-109780951D02*
X116226361Y-109704761D01*
X116226361Y-109704761D02*
X116226361Y-109590475D01*
X116226361Y-109590475D02*
X116264457Y-109514285D01*
X116226361Y-109247618D02*
X116226361Y-108942856D01*
X115959695Y-109133332D02*
X116645409Y-109133332D01*
X116645409Y-109133332D02*
X116721600Y-109095237D01*
X116721600Y-109095237D02*
X116759695Y-109019047D01*
X116759695Y-109019047D02*
X116759695Y-108942856D01*
X116835885Y-108866666D02*
X116835885Y-108257142D01*
X116531123Y-108104761D02*
X116531123Y-107723808D01*
X116759695Y-108180951D02*
X115959695Y-107914284D01*
X115959695Y-107914284D02*
X116759695Y-107647618D01*
X115997790Y-106961904D02*
X115959695Y-107038094D01*
X115959695Y-107038094D02*
X115959695Y-107152380D01*
X115959695Y-107152380D02*
X115997790Y-107266666D01*
X115997790Y-107266666D02*
X116073980Y-107342856D01*
X116073980Y-107342856D02*
X116150171Y-107380951D01*
X116150171Y-107380951D02*
X116302552Y-107419047D01*
X116302552Y-107419047D02*
X116416838Y-107419047D01*
X116416838Y-107419047D02*
X116569219Y-107380951D01*
X116569219Y-107380951D02*
X116645409Y-107342856D01*
X116645409Y-107342856D02*
X116721600Y-107266666D01*
X116721600Y-107266666D02*
X116759695Y-107152380D01*
X116759695Y-107152380D02*
X116759695Y-107076189D01*
X116759695Y-107076189D02*
X116721600Y-106961904D01*
X116721600Y-106961904D02*
X116683504Y-106923808D01*
X116683504Y-106923808D02*
X116416838Y-106923808D01*
X116416838Y-106923808D02*
X116416838Y-107076189D01*
X116759695Y-106580951D02*
X115959695Y-106580951D01*
X115959695Y-106580951D02*
X116759695Y-106123808D01*
X116759695Y-106123808D02*
X115959695Y-106123808D01*
X116759695Y-105742856D02*
X115959695Y-105742856D01*
X115959695Y-105742856D02*
X115959695Y-105552380D01*
X115959695Y-105552380D02*
X115997790Y-105438094D01*
X115997790Y-105438094D02*
X116073980Y-105361904D01*
X116073980Y-105361904D02*
X116150171Y-105323809D01*
X116150171Y-105323809D02*
X116302552Y-105285713D01*
X116302552Y-105285713D02*
X116416838Y-105285713D01*
X116416838Y-105285713D02*
X116569219Y-105323809D01*
X116569219Y-105323809D02*
X116645409Y-105361904D01*
X116645409Y-105361904D02*
X116721600Y-105438094D01*
X116721600Y-105438094D02*
X116759695Y-105552380D01*
X116759695Y-105552380D02*
X116759695Y-105742856D01*
X144654667Y-117959695D02*
X144388000Y-117578742D01*
X144197524Y-117959695D02*
X144197524Y-117159695D01*
X144197524Y-117159695D02*
X144502286Y-117159695D01*
X144502286Y-117159695D02*
X144578476Y-117197790D01*
X144578476Y-117197790D02*
X144616571Y-117235885D01*
X144616571Y-117235885D02*
X144654667Y-117312076D01*
X144654667Y-117312076D02*
X144654667Y-117426361D01*
X144654667Y-117426361D02*
X144616571Y-117502552D01*
X144616571Y-117502552D02*
X144578476Y-117540647D01*
X144578476Y-117540647D02*
X144502286Y-117578742D01*
X144502286Y-117578742D02*
X144197524Y-117578742D01*
X145035619Y-117959695D02*
X145188000Y-117959695D01*
X145188000Y-117959695D02*
X145264190Y-117921600D01*
X145264190Y-117921600D02*
X145302286Y-117883504D01*
X145302286Y-117883504D02*
X145378476Y-117769219D01*
X145378476Y-117769219D02*
X145416571Y-117616838D01*
X145416571Y-117616838D02*
X145416571Y-117312076D01*
X145416571Y-117312076D02*
X145378476Y-117235885D01*
X145378476Y-117235885D02*
X145340381Y-117197790D01*
X145340381Y-117197790D02*
X145264190Y-117159695D01*
X145264190Y-117159695D02*
X145111809Y-117159695D01*
X145111809Y-117159695D02*
X145035619Y-117197790D01*
X145035619Y-117197790D02*
X144997524Y-117235885D01*
X144997524Y-117235885D02*
X144959428Y-117312076D01*
X144959428Y-117312076D02*
X144959428Y-117502552D01*
X144959428Y-117502552D02*
X144997524Y-117578742D01*
X144997524Y-117578742D02*
X145035619Y-117616838D01*
X145035619Y-117616838D02*
X145111809Y-117654933D01*
X145111809Y-117654933D02*
X145264190Y-117654933D01*
X145264190Y-117654933D02*
X145340381Y-117616838D01*
X145340381Y-117616838D02*
X145378476Y-117578742D01*
X145378476Y-117578742D02*
X145416571Y-117502552D01*
X130058833Y-121530647D02*
X129792167Y-121530647D01*
X129792167Y-121949695D02*
X129792167Y-121149695D01*
X129792167Y-121149695D02*
X130173119Y-121149695D01*
X130744547Y-121530647D02*
X130858833Y-121568742D01*
X130858833Y-121568742D02*
X130896928Y-121606838D01*
X130896928Y-121606838D02*
X130935024Y-121683028D01*
X130935024Y-121683028D02*
X130935024Y-121797314D01*
X130935024Y-121797314D02*
X130896928Y-121873504D01*
X130896928Y-121873504D02*
X130858833Y-121911600D01*
X130858833Y-121911600D02*
X130782643Y-121949695D01*
X130782643Y-121949695D02*
X130477881Y-121949695D01*
X130477881Y-121949695D02*
X130477881Y-121149695D01*
X130477881Y-121149695D02*
X130744547Y-121149695D01*
X130744547Y-121149695D02*
X130820738Y-121187790D01*
X130820738Y-121187790D02*
X130858833Y-121225885D01*
X130858833Y-121225885D02*
X130896928Y-121302076D01*
X130896928Y-121302076D02*
X130896928Y-121378266D01*
X130896928Y-121378266D02*
X130858833Y-121454457D01*
X130858833Y-121454457D02*
X130820738Y-121492552D01*
X130820738Y-121492552D02*
X130744547Y-121530647D01*
X130744547Y-121530647D02*
X130477881Y-121530647D01*
X131696928Y-121949695D02*
X131239785Y-121949695D01*
X131468357Y-121949695D02*
X131468357Y-121149695D01*
X131468357Y-121149695D02*
X131392166Y-121263980D01*
X131392166Y-121263980D02*
X131315976Y-121340171D01*
X131315976Y-121340171D02*
X131239785Y-121378266D01*
X130416667Y-104509695D02*
X130150000Y-104128742D01*
X129959524Y-104509695D02*
X129959524Y-103709695D01*
X129959524Y-103709695D02*
X130264286Y-103709695D01*
X130264286Y-103709695D02*
X130340476Y-103747790D01*
X130340476Y-103747790D02*
X130378571Y-103785885D01*
X130378571Y-103785885D02*
X130416667Y-103862076D01*
X130416667Y-103862076D02*
X130416667Y-103976361D01*
X130416667Y-103976361D02*
X130378571Y-104052552D01*
X130378571Y-104052552D02*
X130340476Y-104090647D01*
X130340476Y-104090647D02*
X130264286Y-104128742D01*
X130264286Y-104128742D02*
X129959524Y-104128742D01*
X131140476Y-103709695D02*
X130759524Y-103709695D01*
X130759524Y-103709695D02*
X130721428Y-104090647D01*
X130721428Y-104090647D02*
X130759524Y-104052552D01*
X130759524Y-104052552D02*
X130835714Y-104014457D01*
X130835714Y-104014457D02*
X131026190Y-104014457D01*
X131026190Y-104014457D02*
X131102381Y-104052552D01*
X131102381Y-104052552D02*
X131140476Y-104090647D01*
X131140476Y-104090647D02*
X131178571Y-104166838D01*
X131178571Y-104166838D02*
X131178571Y-104357314D01*
X131178571Y-104357314D02*
X131140476Y-104433504D01*
X131140476Y-104433504D02*
X131102381Y-104471600D01*
X131102381Y-104471600D02*
X131026190Y-104509695D01*
X131026190Y-104509695D02*
X130835714Y-104509695D01*
X130835714Y-104509695D02*
X130759524Y-104471600D01*
X130759524Y-104471600D02*
X130721428Y-104433504D01*
X119976666Y-102620647D02*
X120090952Y-102658742D01*
X120090952Y-102658742D02*
X120129047Y-102696838D01*
X120129047Y-102696838D02*
X120167143Y-102773028D01*
X120167143Y-102773028D02*
X120167143Y-102887314D01*
X120167143Y-102887314D02*
X120129047Y-102963504D01*
X120129047Y-102963504D02*
X120090952Y-103001600D01*
X120090952Y-103001600D02*
X120014762Y-103039695D01*
X120014762Y-103039695D02*
X119710000Y-103039695D01*
X119710000Y-103039695D02*
X119710000Y-102239695D01*
X119710000Y-102239695D02*
X119976666Y-102239695D01*
X119976666Y-102239695D02*
X120052857Y-102277790D01*
X120052857Y-102277790D02*
X120090952Y-102315885D01*
X120090952Y-102315885D02*
X120129047Y-102392076D01*
X120129047Y-102392076D02*
X120129047Y-102468266D01*
X120129047Y-102468266D02*
X120090952Y-102544457D01*
X120090952Y-102544457D02*
X120052857Y-102582552D01*
X120052857Y-102582552D02*
X119976666Y-102620647D01*
X119976666Y-102620647D02*
X119710000Y-102620647D01*
X120471904Y-102811123D02*
X120852857Y-102811123D01*
X120395714Y-103039695D02*
X120662381Y-102239695D01*
X120662381Y-102239695D02*
X120929047Y-103039695D01*
X121081428Y-102239695D02*
X121538571Y-102239695D01*
X121309999Y-103039695D02*
X121309999Y-102239695D01*
X122186190Y-102239695D02*
X121805238Y-102239695D01*
X121805238Y-102239695D02*
X121767142Y-102620647D01*
X121767142Y-102620647D02*
X121805238Y-102582552D01*
X121805238Y-102582552D02*
X121881428Y-102544457D01*
X121881428Y-102544457D02*
X122071904Y-102544457D01*
X122071904Y-102544457D02*
X122148095Y-102582552D01*
X122148095Y-102582552D02*
X122186190Y-102620647D01*
X122186190Y-102620647D02*
X122224285Y-102696838D01*
X122224285Y-102696838D02*
X122224285Y-102887314D01*
X122224285Y-102887314D02*
X122186190Y-102963504D01*
X122186190Y-102963504D02*
X122148095Y-103001600D01*
X122148095Y-103001600D02*
X122071904Y-103039695D01*
X122071904Y-103039695D02*
X121881428Y-103039695D01*
X121881428Y-103039695D02*
X121805238Y-103001600D01*
X121805238Y-103001600D02*
X121767142Y-102963504D01*
X122910000Y-102506361D02*
X122910000Y-103039695D01*
X122719524Y-102201600D02*
X122529047Y-102773028D01*
X122529047Y-102773028D02*
X123024286Y-102773028D01*
X123290952Y-103001600D02*
X123405238Y-103039695D01*
X123405238Y-103039695D02*
X123595714Y-103039695D01*
X123595714Y-103039695D02*
X123671905Y-103001600D01*
X123671905Y-103001600D02*
X123710000Y-102963504D01*
X123710000Y-102963504D02*
X123748095Y-102887314D01*
X123748095Y-102887314D02*
X123748095Y-102811123D01*
X123748095Y-102811123D02*
X123710000Y-102734933D01*
X123710000Y-102734933D02*
X123671905Y-102696838D01*
X123671905Y-102696838D02*
X123595714Y-102658742D01*
X123595714Y-102658742D02*
X123443333Y-102620647D01*
X123443333Y-102620647D02*
X123367143Y-102582552D01*
X123367143Y-102582552D02*
X123329048Y-102544457D01*
X123329048Y-102544457D02*
X123290952Y-102468266D01*
X123290952Y-102468266D02*
X123290952Y-102392076D01*
X123290952Y-102392076D02*
X123329048Y-102315885D01*
X123329048Y-102315885D02*
X123367143Y-102277790D01*
X123367143Y-102277790D02*
X123443333Y-102239695D01*
X123443333Y-102239695D02*
X123633810Y-102239695D01*
X123633810Y-102239695D02*
X123748095Y-102277790D01*
X134916666Y-96134195D02*
X134535714Y-96134195D01*
X134535714Y-96134195D02*
X134535714Y-95334195D01*
X135145237Y-95410385D02*
X135183333Y-95372290D01*
X135183333Y-95372290D02*
X135259523Y-95334195D01*
X135259523Y-95334195D02*
X135449999Y-95334195D01*
X135449999Y-95334195D02*
X135526190Y-95372290D01*
X135526190Y-95372290D02*
X135564285Y-95410385D01*
X135564285Y-95410385D02*
X135602380Y-95486576D01*
X135602380Y-95486576D02*
X135602380Y-95562766D01*
X135602380Y-95562766D02*
X135564285Y-95677052D01*
X135564285Y-95677052D02*
X135107142Y-96134195D01*
X135107142Y-96134195D02*
X135602380Y-96134195D01*
X130559695Y-112664285D02*
X130178742Y-112930952D01*
X130559695Y-113121428D02*
X129759695Y-113121428D01*
X129759695Y-113121428D02*
X129759695Y-112816666D01*
X129759695Y-112816666D02*
X129797790Y-112740476D01*
X129797790Y-112740476D02*
X129835885Y-112702381D01*
X129835885Y-112702381D02*
X129912076Y-112664285D01*
X129912076Y-112664285D02*
X130026361Y-112664285D01*
X130026361Y-112664285D02*
X130102552Y-112702381D01*
X130102552Y-112702381D02*
X130140647Y-112740476D01*
X130140647Y-112740476D02*
X130178742Y-112816666D01*
X130178742Y-112816666D02*
X130178742Y-113121428D01*
X130559695Y-111902381D02*
X130559695Y-112359524D01*
X130559695Y-112130952D02*
X129759695Y-112130952D01*
X129759695Y-112130952D02*
X129873980Y-112207143D01*
X129873980Y-112207143D02*
X129950171Y-112283333D01*
X129950171Y-112283333D02*
X129988266Y-112359524D01*
X129759695Y-111635714D02*
X129759695Y-111140476D01*
X129759695Y-111140476D02*
X130064457Y-111407142D01*
X130064457Y-111407142D02*
X130064457Y-111292857D01*
X130064457Y-111292857D02*
X130102552Y-111216666D01*
X130102552Y-111216666D02*
X130140647Y-111178571D01*
X130140647Y-111178571D02*
X130216838Y-111140476D01*
X130216838Y-111140476D02*
X130407314Y-111140476D01*
X130407314Y-111140476D02*
X130483504Y-111178571D01*
X130483504Y-111178571D02*
X130521600Y-111216666D01*
X130521600Y-111216666D02*
X130559695Y-111292857D01*
X130559695Y-111292857D02*
X130559695Y-111521428D01*
X130559695Y-111521428D02*
X130521600Y-111597619D01*
X130521600Y-111597619D02*
X130483504Y-111635714D01*
X146028570Y-104759695D02*
X145571427Y-104759695D01*
X145799999Y-104759695D02*
X145799999Y-103959695D01*
X145799999Y-103959695D02*
X145723808Y-104073980D01*
X145723808Y-104073980D02*
X145647618Y-104150171D01*
X145647618Y-104150171D02*
X145571427Y-104188266D01*
X146371428Y-104759695D02*
X146371428Y-103959695D01*
X146371428Y-103959695D02*
X146828571Y-104759695D01*
X146828571Y-104759695D02*
X146828571Y-103959695D01*
X147552380Y-104226361D02*
X147552380Y-104759695D01*
X147361904Y-103921600D02*
X147171427Y-104493028D01*
X147171427Y-104493028D02*
X147666666Y-104493028D01*
X148390475Y-104759695D02*
X147933332Y-104759695D01*
X148161904Y-104759695D02*
X148161904Y-103959695D01*
X148161904Y-103959695D02*
X148085713Y-104073980D01*
X148085713Y-104073980D02*
X148009523Y-104150171D01*
X148009523Y-104150171D02*
X147933332Y-104188266D01*
X149076190Y-104226361D02*
X149076190Y-104759695D01*
X148885714Y-103921600D02*
X148695237Y-104493028D01*
X148695237Y-104493028D02*
X149190476Y-104493028D01*
X149609523Y-104302552D02*
X149533333Y-104264457D01*
X149533333Y-104264457D02*
X149495238Y-104226361D01*
X149495238Y-104226361D02*
X149457142Y-104150171D01*
X149457142Y-104150171D02*
X149457142Y-104112076D01*
X149457142Y-104112076D02*
X149495238Y-104035885D01*
X149495238Y-104035885D02*
X149533333Y-103997790D01*
X149533333Y-103997790D02*
X149609523Y-103959695D01*
X149609523Y-103959695D02*
X149761904Y-103959695D01*
X149761904Y-103959695D02*
X149838095Y-103997790D01*
X149838095Y-103997790D02*
X149876190Y-104035885D01*
X149876190Y-104035885D02*
X149914285Y-104112076D01*
X149914285Y-104112076D02*
X149914285Y-104150171D01*
X149914285Y-104150171D02*
X149876190Y-104226361D01*
X149876190Y-104226361D02*
X149838095Y-104264457D01*
X149838095Y-104264457D02*
X149761904Y-104302552D01*
X149761904Y-104302552D02*
X149609523Y-104302552D01*
X149609523Y-104302552D02*
X149533333Y-104340647D01*
X149533333Y-104340647D02*
X149495238Y-104378742D01*
X149495238Y-104378742D02*
X149457142Y-104454933D01*
X149457142Y-104454933D02*
X149457142Y-104607314D01*
X149457142Y-104607314D02*
X149495238Y-104683504D01*
X149495238Y-104683504D02*
X149533333Y-104721600D01*
X149533333Y-104721600D02*
X149609523Y-104759695D01*
X149609523Y-104759695D02*
X149761904Y-104759695D01*
X149761904Y-104759695D02*
X149838095Y-104721600D01*
X149838095Y-104721600D02*
X149876190Y-104683504D01*
X149876190Y-104683504D02*
X149914285Y-104607314D01*
X149914285Y-104607314D02*
X149914285Y-104454933D01*
X149914285Y-104454933D02*
X149876190Y-104378742D01*
X149876190Y-104378742D02*
X149838095Y-104340647D01*
X149838095Y-104340647D02*
X149761904Y-104302552D01*
X150180952Y-103959695D02*
X150371428Y-104759695D01*
X150371428Y-104759695D02*
X150523809Y-104188266D01*
X150523809Y-104188266D02*
X150676190Y-104759695D01*
X150676190Y-104759695D02*
X150866667Y-103959695D01*
X118965714Y-136484695D02*
X118965714Y-137132314D01*
X118965714Y-137132314D02*
X119003809Y-137208504D01*
X119003809Y-137208504D02*
X119041904Y-137246600D01*
X119041904Y-137246600D02*
X119118095Y-137284695D01*
X119118095Y-137284695D02*
X119270476Y-137284695D01*
X119270476Y-137284695D02*
X119346666Y-137246600D01*
X119346666Y-137246600D02*
X119384761Y-137208504D01*
X119384761Y-137208504D02*
X119422857Y-137132314D01*
X119422857Y-137132314D02*
X119422857Y-136484695D01*
X119765713Y-137246600D02*
X119879999Y-137284695D01*
X119879999Y-137284695D02*
X120070475Y-137284695D01*
X120070475Y-137284695D02*
X120146666Y-137246600D01*
X120146666Y-137246600D02*
X120184761Y-137208504D01*
X120184761Y-137208504D02*
X120222856Y-137132314D01*
X120222856Y-137132314D02*
X120222856Y-137056123D01*
X120222856Y-137056123D02*
X120184761Y-136979933D01*
X120184761Y-136979933D02*
X120146666Y-136941838D01*
X120146666Y-136941838D02*
X120070475Y-136903742D01*
X120070475Y-136903742D02*
X119918094Y-136865647D01*
X119918094Y-136865647D02*
X119841904Y-136827552D01*
X119841904Y-136827552D02*
X119803809Y-136789457D01*
X119803809Y-136789457D02*
X119765713Y-136713266D01*
X119765713Y-136713266D02*
X119765713Y-136637076D01*
X119765713Y-136637076D02*
X119803809Y-136560885D01*
X119803809Y-136560885D02*
X119841904Y-136522790D01*
X119841904Y-136522790D02*
X119918094Y-136484695D01*
X119918094Y-136484695D02*
X120108571Y-136484695D01*
X120108571Y-136484695D02*
X120222856Y-136522790D01*
X120832380Y-136865647D02*
X120946666Y-136903742D01*
X120946666Y-136903742D02*
X120984761Y-136941838D01*
X120984761Y-136941838D02*
X121022857Y-137018028D01*
X121022857Y-137018028D02*
X121022857Y-137132314D01*
X121022857Y-137132314D02*
X120984761Y-137208504D01*
X120984761Y-137208504D02*
X120946666Y-137246600D01*
X120946666Y-137246600D02*
X120870476Y-137284695D01*
X120870476Y-137284695D02*
X120565714Y-137284695D01*
X120565714Y-137284695D02*
X120565714Y-136484695D01*
X120565714Y-136484695D02*
X120832380Y-136484695D01*
X120832380Y-136484695D02*
X120908571Y-136522790D01*
X120908571Y-136522790D02*
X120946666Y-136560885D01*
X120946666Y-136560885D02*
X120984761Y-136637076D01*
X120984761Y-136637076D02*
X120984761Y-136713266D01*
X120984761Y-136713266D02*
X120946666Y-136789457D01*
X120946666Y-136789457D02*
X120908571Y-136827552D01*
X120908571Y-136827552D02*
X120832380Y-136865647D01*
X120832380Y-136865647D02*
X120565714Y-136865647D01*
X121175238Y-137360885D02*
X121784761Y-137360885D01*
X122432381Y-137208504D02*
X122394285Y-137246600D01*
X122394285Y-137246600D02*
X122280000Y-137284695D01*
X122280000Y-137284695D02*
X122203809Y-137284695D01*
X122203809Y-137284695D02*
X122089523Y-137246600D01*
X122089523Y-137246600D02*
X122013333Y-137170409D01*
X122013333Y-137170409D02*
X121975238Y-137094219D01*
X121975238Y-137094219D02*
X121937142Y-136941838D01*
X121937142Y-136941838D02*
X121937142Y-136827552D01*
X121937142Y-136827552D02*
X121975238Y-136675171D01*
X121975238Y-136675171D02*
X122013333Y-136598980D01*
X122013333Y-136598980D02*
X122089523Y-136522790D01*
X122089523Y-136522790D02*
X122203809Y-136484695D01*
X122203809Y-136484695D02*
X122280000Y-136484695D01*
X122280000Y-136484695D02*
X122394285Y-136522790D01*
X122394285Y-136522790D02*
X122432381Y-136560885D01*
X117288689Y-124626123D02*
X117669642Y-124626123D01*
X117212499Y-124854695D02*
X117479166Y-124054695D01*
X117479166Y-124054695D02*
X117745832Y-124854695D01*
X117898213Y-124054695D02*
X118355356Y-124054695D01*
X118126784Y-124854695D02*
X118126784Y-124054695D01*
X118507737Y-124321361D02*
X118812499Y-124321361D01*
X118622023Y-124054695D02*
X118622023Y-124740409D01*
X118622023Y-124740409D02*
X118660118Y-124816600D01*
X118660118Y-124816600D02*
X118736308Y-124854695D01*
X118736308Y-124854695D02*
X118812499Y-124854695D01*
X119079166Y-124854695D02*
X119079166Y-124321361D01*
X119079166Y-124054695D02*
X119041070Y-124092790D01*
X119041070Y-124092790D02*
X119079166Y-124130885D01*
X119079166Y-124130885D02*
X119117261Y-124092790D01*
X119117261Y-124092790D02*
X119079166Y-124054695D01*
X119079166Y-124054695D02*
X119079166Y-124130885D01*
X119460118Y-124321361D02*
X119460118Y-124854695D01*
X119460118Y-124397552D02*
X119498213Y-124359457D01*
X119498213Y-124359457D02*
X119574403Y-124321361D01*
X119574403Y-124321361D02*
X119688689Y-124321361D01*
X119688689Y-124321361D02*
X119764880Y-124359457D01*
X119764880Y-124359457D02*
X119802975Y-124435647D01*
X119802975Y-124435647D02*
X119802975Y-124854695D01*
X120107737Y-124321361D02*
X120298213Y-124854695D01*
X120488690Y-124321361D02*
X120298213Y-124854695D01*
X120298213Y-124854695D02*
X120222023Y-125045171D01*
X120222023Y-125045171D02*
X120183928Y-125083266D01*
X120183928Y-125083266D02*
X120107737Y-125121361D01*
X120907737Y-124397552D02*
X120831547Y-124359457D01*
X120831547Y-124359457D02*
X120793452Y-124321361D01*
X120793452Y-124321361D02*
X120755356Y-124245171D01*
X120755356Y-124245171D02*
X120755356Y-124207076D01*
X120755356Y-124207076D02*
X120793452Y-124130885D01*
X120793452Y-124130885D02*
X120831547Y-124092790D01*
X120831547Y-124092790D02*
X120907737Y-124054695D01*
X120907737Y-124054695D02*
X121060118Y-124054695D01*
X121060118Y-124054695D02*
X121136309Y-124092790D01*
X121136309Y-124092790D02*
X121174404Y-124130885D01*
X121174404Y-124130885D02*
X121212499Y-124207076D01*
X121212499Y-124207076D02*
X121212499Y-124245171D01*
X121212499Y-124245171D02*
X121174404Y-124321361D01*
X121174404Y-124321361D02*
X121136309Y-124359457D01*
X121136309Y-124359457D02*
X121060118Y-124397552D01*
X121060118Y-124397552D02*
X120907737Y-124397552D01*
X120907737Y-124397552D02*
X120831547Y-124435647D01*
X120831547Y-124435647D02*
X120793452Y-124473742D01*
X120793452Y-124473742D02*
X120755356Y-124549933D01*
X120755356Y-124549933D02*
X120755356Y-124702314D01*
X120755356Y-124702314D02*
X120793452Y-124778504D01*
X120793452Y-124778504D02*
X120831547Y-124816600D01*
X120831547Y-124816600D02*
X120907737Y-124854695D01*
X120907737Y-124854695D02*
X121060118Y-124854695D01*
X121060118Y-124854695D02*
X121136309Y-124816600D01*
X121136309Y-124816600D02*
X121174404Y-124778504D01*
X121174404Y-124778504D02*
X121212499Y-124702314D01*
X121212499Y-124702314D02*
X121212499Y-124549933D01*
X121212499Y-124549933D02*
X121174404Y-124473742D01*
X121174404Y-124473742D02*
X121136309Y-124435647D01*
X121136309Y-124435647D02*
X121060118Y-124397552D01*
X121936309Y-124054695D02*
X121555357Y-124054695D01*
X121555357Y-124054695D02*
X121517261Y-124435647D01*
X121517261Y-124435647D02*
X121555357Y-124397552D01*
X121555357Y-124397552D02*
X121631547Y-124359457D01*
X121631547Y-124359457D02*
X121822023Y-124359457D01*
X121822023Y-124359457D02*
X121898214Y-124397552D01*
X121898214Y-124397552D02*
X121936309Y-124435647D01*
X121936309Y-124435647D02*
X121974404Y-124511838D01*
X121974404Y-124511838D02*
X121974404Y-124702314D01*
X121974404Y-124702314D02*
X121936309Y-124778504D01*
X121936309Y-124778504D02*
X121898214Y-124816600D01*
X121898214Y-124816600D02*
X121822023Y-124854695D01*
X121822023Y-124854695D02*
X121631547Y-124854695D01*
X121631547Y-124854695D02*
X121555357Y-124816600D01*
X121555357Y-124816600D02*
X121517261Y-124778504D01*
X122202976Y-124054695D02*
X122469643Y-124854695D01*
X122469643Y-124854695D02*
X122736309Y-124054695D01*
X123002976Y-124549933D02*
X123612500Y-124549933D01*
X124412499Y-124854695D02*
X123955356Y-124854695D01*
X124183928Y-124854695D02*
X124183928Y-124054695D01*
X124183928Y-124054695D02*
X124107737Y-124168980D01*
X124107737Y-124168980D02*
X124031547Y-124245171D01*
X124031547Y-124245171D02*
X123955356Y-124283266D01*
X124907738Y-124054695D02*
X124983928Y-124054695D01*
X124983928Y-124054695D02*
X125060119Y-124092790D01*
X125060119Y-124092790D02*
X125098214Y-124130885D01*
X125098214Y-124130885D02*
X125136309Y-124207076D01*
X125136309Y-124207076D02*
X125174404Y-124359457D01*
X125174404Y-124359457D02*
X125174404Y-124549933D01*
X125174404Y-124549933D02*
X125136309Y-124702314D01*
X125136309Y-124702314D02*
X125098214Y-124778504D01*
X125098214Y-124778504D02*
X125060119Y-124816600D01*
X125060119Y-124816600D02*
X124983928Y-124854695D01*
X124983928Y-124854695D02*
X124907738Y-124854695D01*
X124907738Y-124854695D02*
X124831547Y-124816600D01*
X124831547Y-124816600D02*
X124793452Y-124778504D01*
X124793452Y-124778504D02*
X124755357Y-124702314D01*
X124755357Y-124702314D02*
X124717261Y-124549933D01*
X124717261Y-124549933D02*
X124717261Y-124359457D01*
X124717261Y-124359457D02*
X124755357Y-124207076D01*
X124755357Y-124207076D02*
X124793452Y-124130885D01*
X124793452Y-124130885D02*
X124831547Y-124092790D01*
X124831547Y-124092790D02*
X124907738Y-124054695D01*
X125479166Y-124816600D02*
X125593452Y-124854695D01*
X125593452Y-124854695D02*
X125783928Y-124854695D01*
X125783928Y-124854695D02*
X125860119Y-124816600D01*
X125860119Y-124816600D02*
X125898214Y-124778504D01*
X125898214Y-124778504D02*
X125936309Y-124702314D01*
X125936309Y-124702314D02*
X125936309Y-124626123D01*
X125936309Y-124626123D02*
X125898214Y-124549933D01*
X125898214Y-124549933D02*
X125860119Y-124511838D01*
X125860119Y-124511838D02*
X125783928Y-124473742D01*
X125783928Y-124473742D02*
X125631547Y-124435647D01*
X125631547Y-124435647D02*
X125555357Y-124397552D01*
X125555357Y-124397552D02*
X125517262Y-124359457D01*
X125517262Y-124359457D02*
X125479166Y-124283266D01*
X125479166Y-124283266D02*
X125479166Y-124207076D01*
X125479166Y-124207076D02*
X125517262Y-124130885D01*
X125517262Y-124130885D02*
X125555357Y-124092790D01*
X125555357Y-124092790D02*
X125631547Y-124054695D01*
X125631547Y-124054695D02*
X125822024Y-124054695D01*
X125822024Y-124054695D02*
X125936309Y-124092790D01*
X154628476Y-109529695D02*
X154628476Y-108729695D01*
X154628476Y-108729695D02*
X154818952Y-108729695D01*
X154818952Y-108729695D02*
X154933238Y-108767790D01*
X154933238Y-108767790D02*
X155009428Y-108843980D01*
X155009428Y-108843980D02*
X155047523Y-108920171D01*
X155047523Y-108920171D02*
X155085619Y-109072552D01*
X155085619Y-109072552D02*
X155085619Y-109186838D01*
X155085619Y-109186838D02*
X155047523Y-109339219D01*
X155047523Y-109339219D02*
X155009428Y-109415409D01*
X155009428Y-109415409D02*
X154933238Y-109491600D01*
X154933238Y-109491600D02*
X154818952Y-109529695D01*
X154818952Y-109529695D02*
X154628476Y-109529695D01*
X155428476Y-109529695D02*
X155428476Y-108729695D01*
X155428476Y-108729695D02*
X155695142Y-109301123D01*
X155695142Y-109301123D02*
X155961809Y-108729695D01*
X155961809Y-108729695D02*
X155961809Y-109529695D01*
X156342762Y-109529695D02*
X156342762Y-108729695D01*
X156342762Y-108729695D02*
X156799905Y-109529695D01*
X156799905Y-109529695D02*
X156799905Y-108729695D01*
X157104666Y-108729695D02*
X157599904Y-108729695D01*
X157599904Y-108729695D02*
X157333238Y-109034457D01*
X157333238Y-109034457D02*
X157447523Y-109034457D01*
X157447523Y-109034457D02*
X157523714Y-109072552D01*
X157523714Y-109072552D02*
X157561809Y-109110647D01*
X157561809Y-109110647D02*
X157599904Y-109186838D01*
X157599904Y-109186838D02*
X157599904Y-109377314D01*
X157599904Y-109377314D02*
X157561809Y-109453504D01*
X157561809Y-109453504D02*
X157523714Y-109491600D01*
X157523714Y-109491600D02*
X157447523Y-109529695D01*
X157447523Y-109529695D02*
X157218952Y-109529695D01*
X157218952Y-109529695D02*
X157142761Y-109491600D01*
X157142761Y-109491600D02*
X157104666Y-109453504D01*
X158095143Y-108729695D02*
X158171333Y-108729695D01*
X158171333Y-108729695D02*
X158247524Y-108767790D01*
X158247524Y-108767790D02*
X158285619Y-108805885D01*
X158285619Y-108805885D02*
X158323714Y-108882076D01*
X158323714Y-108882076D02*
X158361809Y-109034457D01*
X158361809Y-109034457D02*
X158361809Y-109224933D01*
X158361809Y-109224933D02*
X158323714Y-109377314D01*
X158323714Y-109377314D02*
X158285619Y-109453504D01*
X158285619Y-109453504D02*
X158247524Y-109491600D01*
X158247524Y-109491600D02*
X158171333Y-109529695D01*
X158171333Y-109529695D02*
X158095143Y-109529695D01*
X158095143Y-109529695D02*
X158018952Y-109491600D01*
X158018952Y-109491600D02*
X157980857Y-109453504D01*
X157980857Y-109453504D02*
X157942762Y-109377314D01*
X157942762Y-109377314D02*
X157904666Y-109224933D01*
X157904666Y-109224933D02*
X157904666Y-109034457D01*
X157904666Y-109034457D02*
X157942762Y-108882076D01*
X157942762Y-108882076D02*
X157980857Y-108805885D01*
X157980857Y-108805885D02*
X158018952Y-108767790D01*
X158018952Y-108767790D02*
X158095143Y-108729695D01*
X159123714Y-109529695D02*
X158666571Y-109529695D01*
X158895143Y-109529695D02*
X158895143Y-108729695D01*
X158895143Y-108729695D02*
X158818952Y-108843980D01*
X158818952Y-108843980D02*
X158742762Y-108920171D01*
X158742762Y-108920171D02*
X158666571Y-108958266D01*
X159618953Y-108729695D02*
X159695143Y-108729695D01*
X159695143Y-108729695D02*
X159771334Y-108767790D01*
X159771334Y-108767790D02*
X159809429Y-108805885D01*
X159809429Y-108805885D02*
X159847524Y-108882076D01*
X159847524Y-108882076D02*
X159885619Y-109034457D01*
X159885619Y-109034457D02*
X159885619Y-109224933D01*
X159885619Y-109224933D02*
X159847524Y-109377314D01*
X159847524Y-109377314D02*
X159809429Y-109453504D01*
X159809429Y-109453504D02*
X159771334Y-109491600D01*
X159771334Y-109491600D02*
X159695143Y-109529695D01*
X159695143Y-109529695D02*
X159618953Y-109529695D01*
X159618953Y-109529695D02*
X159542762Y-109491600D01*
X159542762Y-109491600D02*
X159504667Y-109453504D01*
X159504667Y-109453504D02*
X159466572Y-109377314D01*
X159466572Y-109377314D02*
X159428476Y-109224933D01*
X159428476Y-109224933D02*
X159428476Y-109034457D01*
X159428476Y-109034457D02*
X159466572Y-108882076D01*
X159466572Y-108882076D02*
X159504667Y-108805885D01*
X159504667Y-108805885D02*
X159542762Y-108767790D01*
X159542762Y-108767790D02*
X159618953Y-108729695D01*
X147605237Y-131947790D02*
X147529047Y-131909695D01*
X147529047Y-131909695D02*
X147414761Y-131909695D01*
X147414761Y-131909695D02*
X147300475Y-131947790D01*
X147300475Y-131947790D02*
X147224285Y-132023980D01*
X147224285Y-132023980D02*
X147186190Y-132100171D01*
X147186190Y-132100171D02*
X147148094Y-132252552D01*
X147148094Y-132252552D02*
X147148094Y-132366838D01*
X147148094Y-132366838D02*
X147186190Y-132519219D01*
X147186190Y-132519219D02*
X147224285Y-132595409D01*
X147224285Y-132595409D02*
X147300475Y-132671600D01*
X147300475Y-132671600D02*
X147414761Y-132709695D01*
X147414761Y-132709695D02*
X147490952Y-132709695D01*
X147490952Y-132709695D02*
X147605237Y-132671600D01*
X147605237Y-132671600D02*
X147643333Y-132633504D01*
X147643333Y-132633504D02*
X147643333Y-132366838D01*
X147643333Y-132366838D02*
X147490952Y-132366838D01*
X147909999Y-131909695D02*
X148100475Y-132709695D01*
X148100475Y-132709695D02*
X148252856Y-132138266D01*
X148252856Y-132138266D02*
X148405237Y-132709695D01*
X148405237Y-132709695D02*
X148595714Y-131909695D01*
X148710000Y-132785885D02*
X149319523Y-132785885D01*
X149738571Y-131909695D02*
X149738571Y-132481123D01*
X149738571Y-132481123D02*
X149700476Y-132595409D01*
X149700476Y-132595409D02*
X149624285Y-132671600D01*
X149624285Y-132671600D02*
X149510000Y-132709695D01*
X149510000Y-132709695D02*
X149433809Y-132709695D01*
X150005238Y-131909695D02*
X150462381Y-131909695D01*
X150233809Y-132709695D02*
X150233809Y-131909695D01*
X151110000Y-132709695D02*
X150729048Y-132709695D01*
X150729048Y-132709695D02*
X150729048Y-131909695D01*
X151376667Y-132709695D02*
X151376667Y-131909695D01*
X151376667Y-131909695D02*
X151643333Y-132481123D01*
X151643333Y-132481123D02*
X151910000Y-131909695D01*
X151910000Y-131909695D02*
X151910000Y-132709695D01*
X152252857Y-132671600D02*
X152367143Y-132709695D01*
X152367143Y-132709695D02*
X152557619Y-132709695D01*
X152557619Y-132709695D02*
X152633810Y-132671600D01*
X152633810Y-132671600D02*
X152671905Y-132633504D01*
X152671905Y-132633504D02*
X152710000Y-132557314D01*
X152710000Y-132557314D02*
X152710000Y-132481123D01*
X152710000Y-132481123D02*
X152671905Y-132404933D01*
X152671905Y-132404933D02*
X152633810Y-132366838D01*
X152633810Y-132366838D02*
X152557619Y-132328742D01*
X152557619Y-132328742D02*
X152405238Y-132290647D01*
X152405238Y-132290647D02*
X152329048Y-132252552D01*
X152329048Y-132252552D02*
X152290953Y-132214457D01*
X152290953Y-132214457D02*
X152252857Y-132138266D01*
X152252857Y-132138266D02*
X152252857Y-132062076D01*
X152252857Y-132062076D02*
X152290953Y-131985885D01*
X152290953Y-131985885D02*
X152329048Y-131947790D01*
X152329048Y-131947790D02*
X152405238Y-131909695D01*
X152405238Y-131909695D02*
X152595715Y-131909695D01*
X152595715Y-131909695D02*
X152710000Y-131947790D01*
X152976667Y-131909695D02*
X153471905Y-131909695D01*
X153471905Y-131909695D02*
X153205239Y-132214457D01*
X153205239Y-132214457D02*
X153319524Y-132214457D01*
X153319524Y-132214457D02*
X153395715Y-132252552D01*
X153395715Y-132252552D02*
X153433810Y-132290647D01*
X153433810Y-132290647D02*
X153471905Y-132366838D01*
X153471905Y-132366838D02*
X153471905Y-132557314D01*
X153471905Y-132557314D02*
X153433810Y-132633504D01*
X153433810Y-132633504D02*
X153395715Y-132671600D01*
X153395715Y-132671600D02*
X153319524Y-132709695D01*
X153319524Y-132709695D02*
X153090953Y-132709695D01*
X153090953Y-132709695D02*
X153014762Y-132671600D01*
X153014762Y-132671600D02*
X152976667Y-132633504D01*
X121341667Y-115709695D02*
X121075000Y-115328742D01*
X120884524Y-115709695D02*
X120884524Y-114909695D01*
X120884524Y-114909695D02*
X121189286Y-114909695D01*
X121189286Y-114909695D02*
X121265476Y-114947790D01*
X121265476Y-114947790D02*
X121303571Y-114985885D01*
X121303571Y-114985885D02*
X121341667Y-115062076D01*
X121341667Y-115062076D02*
X121341667Y-115176361D01*
X121341667Y-115176361D02*
X121303571Y-115252552D01*
X121303571Y-115252552D02*
X121265476Y-115290647D01*
X121265476Y-115290647D02*
X121189286Y-115328742D01*
X121189286Y-115328742D02*
X120884524Y-115328742D01*
X121608333Y-114909695D02*
X122141667Y-114909695D01*
X122141667Y-114909695D02*
X121798809Y-115709695D01*
X126166667Y-92708504D02*
X126128571Y-92746600D01*
X126128571Y-92746600D02*
X126014286Y-92784695D01*
X126014286Y-92784695D02*
X125938095Y-92784695D01*
X125938095Y-92784695D02*
X125823809Y-92746600D01*
X125823809Y-92746600D02*
X125747619Y-92670409D01*
X125747619Y-92670409D02*
X125709524Y-92594219D01*
X125709524Y-92594219D02*
X125671428Y-92441838D01*
X125671428Y-92441838D02*
X125671428Y-92327552D01*
X125671428Y-92327552D02*
X125709524Y-92175171D01*
X125709524Y-92175171D02*
X125747619Y-92098980D01*
X125747619Y-92098980D02*
X125823809Y-92022790D01*
X125823809Y-92022790D02*
X125938095Y-91984695D01*
X125938095Y-91984695D02*
X126014286Y-91984695D01*
X126014286Y-91984695D02*
X126128571Y-92022790D01*
X126128571Y-92022790D02*
X126166667Y-92060885D01*
X126623809Y-92327552D02*
X126547619Y-92289457D01*
X126547619Y-92289457D02*
X126509524Y-92251361D01*
X126509524Y-92251361D02*
X126471428Y-92175171D01*
X126471428Y-92175171D02*
X126471428Y-92137076D01*
X126471428Y-92137076D02*
X126509524Y-92060885D01*
X126509524Y-92060885D02*
X126547619Y-92022790D01*
X126547619Y-92022790D02*
X126623809Y-91984695D01*
X126623809Y-91984695D02*
X126776190Y-91984695D01*
X126776190Y-91984695D02*
X126852381Y-92022790D01*
X126852381Y-92022790D02*
X126890476Y-92060885D01*
X126890476Y-92060885D02*
X126928571Y-92137076D01*
X126928571Y-92137076D02*
X126928571Y-92175171D01*
X126928571Y-92175171D02*
X126890476Y-92251361D01*
X126890476Y-92251361D02*
X126852381Y-92289457D01*
X126852381Y-92289457D02*
X126776190Y-92327552D01*
X126776190Y-92327552D02*
X126623809Y-92327552D01*
X126623809Y-92327552D02*
X126547619Y-92365647D01*
X126547619Y-92365647D02*
X126509524Y-92403742D01*
X126509524Y-92403742D02*
X126471428Y-92479933D01*
X126471428Y-92479933D02*
X126471428Y-92632314D01*
X126471428Y-92632314D02*
X126509524Y-92708504D01*
X126509524Y-92708504D02*
X126547619Y-92746600D01*
X126547619Y-92746600D02*
X126623809Y-92784695D01*
X126623809Y-92784695D02*
X126776190Y-92784695D01*
X126776190Y-92784695D02*
X126852381Y-92746600D01*
X126852381Y-92746600D02*
X126890476Y-92708504D01*
X126890476Y-92708504D02*
X126928571Y-92632314D01*
X126928571Y-92632314D02*
X126928571Y-92479933D01*
X126928571Y-92479933D02*
X126890476Y-92403742D01*
X126890476Y-92403742D02*
X126852381Y-92365647D01*
X126852381Y-92365647D02*
X126776190Y-92327552D01*
X134329695Y-119089285D02*
X133948742Y-119355952D01*
X134329695Y-119546428D02*
X133529695Y-119546428D01*
X133529695Y-119546428D02*
X133529695Y-119241666D01*
X133529695Y-119241666D02*
X133567790Y-119165476D01*
X133567790Y-119165476D02*
X133605885Y-119127381D01*
X133605885Y-119127381D02*
X133682076Y-119089285D01*
X133682076Y-119089285D02*
X133796361Y-119089285D01*
X133796361Y-119089285D02*
X133872552Y-119127381D01*
X133872552Y-119127381D02*
X133910647Y-119165476D01*
X133910647Y-119165476D02*
X133948742Y-119241666D01*
X133948742Y-119241666D02*
X133948742Y-119546428D01*
X134329695Y-118327381D02*
X134329695Y-118784524D01*
X134329695Y-118555952D02*
X133529695Y-118555952D01*
X133529695Y-118555952D02*
X133643980Y-118632143D01*
X133643980Y-118632143D02*
X133720171Y-118708333D01*
X133720171Y-118708333D02*
X133758266Y-118784524D01*
X133605885Y-118022619D02*
X133567790Y-117984523D01*
X133567790Y-117984523D02*
X133529695Y-117908333D01*
X133529695Y-117908333D02*
X133529695Y-117717857D01*
X133529695Y-117717857D02*
X133567790Y-117641666D01*
X133567790Y-117641666D02*
X133605885Y-117603571D01*
X133605885Y-117603571D02*
X133682076Y-117565476D01*
X133682076Y-117565476D02*
X133758266Y-117565476D01*
X133758266Y-117565476D02*
X133872552Y-117603571D01*
X133872552Y-117603571D02*
X134329695Y-118060714D01*
X134329695Y-118060714D02*
X134329695Y-117565476D01*
X121341667Y-113959695D02*
X121075000Y-113578742D01*
X120884524Y-113959695D02*
X120884524Y-113159695D01*
X120884524Y-113159695D02*
X121189286Y-113159695D01*
X121189286Y-113159695D02*
X121265476Y-113197790D01*
X121265476Y-113197790D02*
X121303571Y-113235885D01*
X121303571Y-113235885D02*
X121341667Y-113312076D01*
X121341667Y-113312076D02*
X121341667Y-113426361D01*
X121341667Y-113426361D02*
X121303571Y-113502552D01*
X121303571Y-113502552D02*
X121265476Y-113540647D01*
X121265476Y-113540647D02*
X121189286Y-113578742D01*
X121189286Y-113578742D02*
X120884524Y-113578742D01*
X122027381Y-113159695D02*
X121875000Y-113159695D01*
X121875000Y-113159695D02*
X121798809Y-113197790D01*
X121798809Y-113197790D02*
X121760714Y-113235885D01*
X121760714Y-113235885D02*
X121684524Y-113350171D01*
X121684524Y-113350171D02*
X121646428Y-113502552D01*
X121646428Y-113502552D02*
X121646428Y-113807314D01*
X121646428Y-113807314D02*
X121684524Y-113883504D01*
X121684524Y-113883504D02*
X121722619Y-113921600D01*
X121722619Y-113921600D02*
X121798809Y-113959695D01*
X121798809Y-113959695D02*
X121951190Y-113959695D01*
X121951190Y-113959695D02*
X122027381Y-113921600D01*
X122027381Y-113921600D02*
X122065476Y-113883504D01*
X122065476Y-113883504D02*
X122103571Y-113807314D01*
X122103571Y-113807314D02*
X122103571Y-113616838D01*
X122103571Y-113616838D02*
X122065476Y-113540647D01*
X122065476Y-113540647D02*
X122027381Y-113502552D01*
X122027381Y-113502552D02*
X121951190Y-113464457D01*
X121951190Y-113464457D02*
X121798809Y-113464457D01*
X121798809Y-113464457D02*
X121722619Y-113502552D01*
X121722619Y-113502552D02*
X121684524Y-113540647D01*
X121684524Y-113540647D02*
X121646428Y-113616838D01*
X151466667Y-118789695D02*
X151200000Y-118408742D01*
X151009524Y-118789695D02*
X151009524Y-117989695D01*
X151009524Y-117989695D02*
X151314286Y-117989695D01*
X151314286Y-117989695D02*
X151390476Y-118027790D01*
X151390476Y-118027790D02*
X151428571Y-118065885D01*
X151428571Y-118065885D02*
X151466667Y-118142076D01*
X151466667Y-118142076D02*
X151466667Y-118256361D01*
X151466667Y-118256361D02*
X151428571Y-118332552D01*
X151428571Y-118332552D02*
X151390476Y-118370647D01*
X151390476Y-118370647D02*
X151314286Y-118408742D01*
X151314286Y-118408742D02*
X151009524Y-118408742D01*
X151923809Y-118332552D02*
X151847619Y-118294457D01*
X151847619Y-118294457D02*
X151809524Y-118256361D01*
X151809524Y-118256361D02*
X151771428Y-118180171D01*
X151771428Y-118180171D02*
X151771428Y-118142076D01*
X151771428Y-118142076D02*
X151809524Y-118065885D01*
X151809524Y-118065885D02*
X151847619Y-118027790D01*
X151847619Y-118027790D02*
X151923809Y-117989695D01*
X151923809Y-117989695D02*
X152076190Y-117989695D01*
X152076190Y-117989695D02*
X152152381Y-118027790D01*
X152152381Y-118027790D02*
X152190476Y-118065885D01*
X152190476Y-118065885D02*
X152228571Y-118142076D01*
X152228571Y-118142076D02*
X152228571Y-118180171D01*
X152228571Y-118180171D02*
X152190476Y-118256361D01*
X152190476Y-118256361D02*
X152152381Y-118294457D01*
X152152381Y-118294457D02*
X152076190Y-118332552D01*
X152076190Y-118332552D02*
X151923809Y-118332552D01*
X151923809Y-118332552D02*
X151847619Y-118370647D01*
X151847619Y-118370647D02*
X151809524Y-118408742D01*
X151809524Y-118408742D02*
X151771428Y-118484933D01*
X151771428Y-118484933D02*
X151771428Y-118637314D01*
X151771428Y-118637314D02*
X151809524Y-118713504D01*
X151809524Y-118713504D02*
X151847619Y-118751600D01*
X151847619Y-118751600D02*
X151923809Y-118789695D01*
X151923809Y-118789695D02*
X152076190Y-118789695D01*
X152076190Y-118789695D02*
X152152381Y-118751600D01*
X152152381Y-118751600D02*
X152190476Y-118713504D01*
X152190476Y-118713504D02*
X152228571Y-118637314D01*
X152228571Y-118637314D02*
X152228571Y-118484933D01*
X152228571Y-118484933D02*
X152190476Y-118408742D01*
X152190476Y-118408742D02*
X152152381Y-118370647D01*
X152152381Y-118370647D02*
X152076190Y-118332552D01*
X136178476Y-109559695D02*
X136178476Y-108759695D01*
X136178476Y-108759695D02*
X136368952Y-108759695D01*
X136368952Y-108759695D02*
X136483238Y-108797790D01*
X136483238Y-108797790D02*
X136559428Y-108873980D01*
X136559428Y-108873980D02*
X136597523Y-108950171D01*
X136597523Y-108950171D02*
X136635619Y-109102552D01*
X136635619Y-109102552D02*
X136635619Y-109216838D01*
X136635619Y-109216838D02*
X136597523Y-109369219D01*
X136597523Y-109369219D02*
X136559428Y-109445409D01*
X136559428Y-109445409D02*
X136483238Y-109521600D01*
X136483238Y-109521600D02*
X136368952Y-109559695D01*
X136368952Y-109559695D02*
X136178476Y-109559695D01*
X136978476Y-109559695D02*
X136978476Y-108759695D01*
X136978476Y-108759695D02*
X137245142Y-109331123D01*
X137245142Y-109331123D02*
X137511809Y-108759695D01*
X137511809Y-108759695D02*
X137511809Y-109559695D01*
X137892762Y-109559695D02*
X137892762Y-108759695D01*
X137892762Y-108759695D02*
X138349905Y-109559695D01*
X138349905Y-109559695D02*
X138349905Y-108759695D01*
X138654666Y-108759695D02*
X139149904Y-108759695D01*
X139149904Y-108759695D02*
X138883238Y-109064457D01*
X138883238Y-109064457D02*
X138997523Y-109064457D01*
X138997523Y-109064457D02*
X139073714Y-109102552D01*
X139073714Y-109102552D02*
X139111809Y-109140647D01*
X139111809Y-109140647D02*
X139149904Y-109216838D01*
X139149904Y-109216838D02*
X139149904Y-109407314D01*
X139149904Y-109407314D02*
X139111809Y-109483504D01*
X139111809Y-109483504D02*
X139073714Y-109521600D01*
X139073714Y-109521600D02*
X138997523Y-109559695D01*
X138997523Y-109559695D02*
X138768952Y-109559695D01*
X138768952Y-109559695D02*
X138692761Y-109521600D01*
X138692761Y-109521600D02*
X138654666Y-109483504D01*
X139645143Y-108759695D02*
X139721333Y-108759695D01*
X139721333Y-108759695D02*
X139797524Y-108797790D01*
X139797524Y-108797790D02*
X139835619Y-108835885D01*
X139835619Y-108835885D02*
X139873714Y-108912076D01*
X139873714Y-108912076D02*
X139911809Y-109064457D01*
X139911809Y-109064457D02*
X139911809Y-109254933D01*
X139911809Y-109254933D02*
X139873714Y-109407314D01*
X139873714Y-109407314D02*
X139835619Y-109483504D01*
X139835619Y-109483504D02*
X139797524Y-109521600D01*
X139797524Y-109521600D02*
X139721333Y-109559695D01*
X139721333Y-109559695D02*
X139645143Y-109559695D01*
X139645143Y-109559695D02*
X139568952Y-109521600D01*
X139568952Y-109521600D02*
X139530857Y-109483504D01*
X139530857Y-109483504D02*
X139492762Y-109407314D01*
X139492762Y-109407314D02*
X139454666Y-109254933D01*
X139454666Y-109254933D02*
X139454666Y-109064457D01*
X139454666Y-109064457D02*
X139492762Y-108912076D01*
X139492762Y-108912076D02*
X139530857Y-108835885D01*
X139530857Y-108835885D02*
X139568952Y-108797790D01*
X139568952Y-108797790D02*
X139645143Y-108759695D01*
X140673714Y-109559695D02*
X140216571Y-109559695D01*
X140445143Y-109559695D02*
X140445143Y-108759695D01*
X140445143Y-108759695D02*
X140368952Y-108873980D01*
X140368952Y-108873980D02*
X140292762Y-108950171D01*
X140292762Y-108950171D02*
X140216571Y-108988266D01*
X141168953Y-108759695D02*
X141245143Y-108759695D01*
X141245143Y-108759695D02*
X141321334Y-108797790D01*
X141321334Y-108797790D02*
X141359429Y-108835885D01*
X141359429Y-108835885D02*
X141397524Y-108912076D01*
X141397524Y-108912076D02*
X141435619Y-109064457D01*
X141435619Y-109064457D02*
X141435619Y-109254933D01*
X141435619Y-109254933D02*
X141397524Y-109407314D01*
X141397524Y-109407314D02*
X141359429Y-109483504D01*
X141359429Y-109483504D02*
X141321334Y-109521600D01*
X141321334Y-109521600D02*
X141245143Y-109559695D01*
X141245143Y-109559695D02*
X141168953Y-109559695D01*
X141168953Y-109559695D02*
X141092762Y-109521600D01*
X141092762Y-109521600D02*
X141054667Y-109483504D01*
X141054667Y-109483504D02*
X141016572Y-109407314D01*
X141016572Y-109407314D02*
X140978476Y-109254933D01*
X140978476Y-109254933D02*
X140978476Y-109064457D01*
X140978476Y-109064457D02*
X141016572Y-108912076D01*
X141016572Y-108912076D02*
X141054667Y-108835885D01*
X141054667Y-108835885D02*
X141092762Y-108797790D01*
X141092762Y-108797790D02*
X141168953Y-108759695D01*
X155122100Y-130528571D02*
X155160195Y-130414285D01*
X155160195Y-130414285D02*
X155160195Y-130223809D01*
X155160195Y-130223809D02*
X155122100Y-130147618D01*
X155122100Y-130147618D02*
X155084004Y-130109523D01*
X155084004Y-130109523D02*
X155007814Y-130071428D01*
X155007814Y-130071428D02*
X154931623Y-130071428D01*
X154931623Y-130071428D02*
X154855433Y-130109523D01*
X154855433Y-130109523D02*
X154817338Y-130147618D01*
X154817338Y-130147618D02*
X154779242Y-130223809D01*
X154779242Y-130223809D02*
X154741147Y-130376190D01*
X154741147Y-130376190D02*
X154703052Y-130452380D01*
X154703052Y-130452380D02*
X154664957Y-130490475D01*
X154664957Y-130490475D02*
X154588766Y-130528571D01*
X154588766Y-130528571D02*
X154512576Y-130528571D01*
X154512576Y-130528571D02*
X154436385Y-130490475D01*
X154436385Y-130490475D02*
X154398290Y-130452380D01*
X154398290Y-130452380D02*
X154360195Y-130376190D01*
X154360195Y-130376190D02*
X154360195Y-130185713D01*
X154360195Y-130185713D02*
X154398290Y-130071428D01*
X155160195Y-129728570D02*
X154360195Y-129728570D01*
X154360195Y-129728570D02*
X154931623Y-129461904D01*
X154931623Y-129461904D02*
X154360195Y-129195237D01*
X154360195Y-129195237D02*
X155160195Y-129195237D01*
X154931623Y-128852380D02*
X154931623Y-128471427D01*
X155160195Y-128928570D02*
X154360195Y-128661903D01*
X154360195Y-128661903D02*
X155160195Y-128395237D01*
X154360195Y-127899999D02*
X154931623Y-127899999D01*
X154931623Y-127899999D02*
X155045909Y-127938094D01*
X155045909Y-127938094D02*
X155122100Y-128014285D01*
X155122100Y-128014285D02*
X155160195Y-128128570D01*
X155160195Y-128128570D02*
X155160195Y-128204761D01*
X154360195Y-127138094D02*
X154360195Y-127519046D01*
X154360195Y-127519046D02*
X154741147Y-127557142D01*
X154741147Y-127557142D02*
X154703052Y-127519046D01*
X154703052Y-127519046D02*
X154664957Y-127442856D01*
X154664957Y-127442856D02*
X154664957Y-127252380D01*
X154664957Y-127252380D02*
X154703052Y-127176189D01*
X154703052Y-127176189D02*
X154741147Y-127138094D01*
X154741147Y-127138094D02*
X154817338Y-127099999D01*
X154817338Y-127099999D02*
X155007814Y-127099999D01*
X155007814Y-127099999D02*
X155084004Y-127138094D01*
X155084004Y-127138094D02*
X155122100Y-127176189D01*
X155122100Y-127176189D02*
X155160195Y-127252380D01*
X155160195Y-127252380D02*
X155160195Y-127442856D01*
X155160195Y-127442856D02*
X155122100Y-127519046D01*
X155122100Y-127519046D02*
X155084004Y-127557142D01*
X155084004Y-126757141D02*
X155122100Y-126719046D01*
X155122100Y-126719046D02*
X155160195Y-126757141D01*
X155160195Y-126757141D02*
X155122100Y-126795237D01*
X155122100Y-126795237D02*
X155084004Y-126757141D01*
X155084004Y-126757141D02*
X155160195Y-126757141D01*
X154360195Y-126223808D02*
X154360195Y-126147618D01*
X154360195Y-126147618D02*
X154398290Y-126071427D01*
X154398290Y-126071427D02*
X154436385Y-126033332D01*
X154436385Y-126033332D02*
X154512576Y-125995237D01*
X154512576Y-125995237D02*
X154664957Y-125957142D01*
X154664957Y-125957142D02*
X154855433Y-125957142D01*
X154855433Y-125957142D02*
X155007814Y-125995237D01*
X155007814Y-125995237D02*
X155084004Y-126033332D01*
X155084004Y-126033332D02*
X155122100Y-126071427D01*
X155122100Y-126071427D02*
X155160195Y-126147618D01*
X155160195Y-126147618D02*
X155160195Y-126223808D01*
X155160195Y-126223808D02*
X155122100Y-126299999D01*
X155122100Y-126299999D02*
X155084004Y-126338094D01*
X155084004Y-126338094D02*
X155007814Y-126376189D01*
X155007814Y-126376189D02*
X154855433Y-126414285D01*
X154855433Y-126414285D02*
X154664957Y-126414285D01*
X154664957Y-126414285D02*
X154512576Y-126376189D01*
X154512576Y-126376189D02*
X154436385Y-126338094D01*
X154436385Y-126338094D02*
X154398290Y-126299999D01*
X154398290Y-126299999D02*
X154360195Y-126223808D01*
X154931623Y-125652380D02*
X154931623Y-125271427D01*
X155160195Y-125728570D02*
X154360195Y-125461903D01*
X154360195Y-125461903D02*
X155160195Y-125195237D01*
X163209695Y-124647618D02*
X163209695Y-124190475D01*
X164009695Y-124419047D02*
X163209695Y-124419047D01*
X163971600Y-123619046D02*
X164009695Y-123695237D01*
X164009695Y-123695237D02*
X164009695Y-123847618D01*
X164009695Y-123847618D02*
X163971600Y-123923808D01*
X163971600Y-123923808D02*
X163895409Y-123961904D01*
X163895409Y-123961904D02*
X163590647Y-123961904D01*
X163590647Y-123961904D02*
X163514457Y-123923808D01*
X163514457Y-123923808D02*
X163476361Y-123847618D01*
X163476361Y-123847618D02*
X163476361Y-123695237D01*
X163476361Y-123695237D02*
X163514457Y-123619046D01*
X163514457Y-123619046D02*
X163590647Y-123580951D01*
X163590647Y-123580951D02*
X163666838Y-123580951D01*
X163666838Y-123580951D02*
X163743028Y-123961904D01*
X163971600Y-123276190D02*
X164009695Y-123199999D01*
X164009695Y-123199999D02*
X164009695Y-123047618D01*
X164009695Y-123047618D02*
X163971600Y-122971428D01*
X163971600Y-122971428D02*
X163895409Y-122933332D01*
X163895409Y-122933332D02*
X163857314Y-122933332D01*
X163857314Y-122933332D02*
X163781123Y-122971428D01*
X163781123Y-122971428D02*
X163743028Y-123047618D01*
X163743028Y-123047618D02*
X163743028Y-123161904D01*
X163743028Y-123161904D02*
X163704933Y-123238094D01*
X163704933Y-123238094D02*
X163628742Y-123276190D01*
X163628742Y-123276190D02*
X163590647Y-123276190D01*
X163590647Y-123276190D02*
X163514457Y-123238094D01*
X163514457Y-123238094D02*
X163476361Y-123161904D01*
X163476361Y-123161904D02*
X163476361Y-123047618D01*
X163476361Y-123047618D02*
X163514457Y-122971428D01*
X163476361Y-122704761D02*
X163476361Y-122399999D01*
X163209695Y-122590475D02*
X163895409Y-122590475D01*
X163895409Y-122590475D02*
X163971600Y-122552380D01*
X163971600Y-122552380D02*
X164009695Y-122476190D01*
X164009695Y-122476190D02*
X164009695Y-122399999D01*
X164085885Y-122323809D02*
X164085885Y-121714285D01*
X164009695Y-121523808D02*
X163209695Y-121523808D01*
X163209695Y-121523808D02*
X163209695Y-121333332D01*
X163209695Y-121333332D02*
X163247790Y-121219046D01*
X163247790Y-121219046D02*
X163323980Y-121142856D01*
X163323980Y-121142856D02*
X163400171Y-121104761D01*
X163400171Y-121104761D02*
X163552552Y-121066665D01*
X163552552Y-121066665D02*
X163666838Y-121066665D01*
X163666838Y-121066665D02*
X163819219Y-121104761D01*
X163819219Y-121104761D02*
X163895409Y-121142856D01*
X163895409Y-121142856D02*
X163971600Y-121219046D01*
X163971600Y-121219046D02*
X164009695Y-121333332D01*
X164009695Y-121333332D02*
X164009695Y-121523808D01*
X163247790Y-120304761D02*
X163209695Y-120380951D01*
X163209695Y-120380951D02*
X163209695Y-120495237D01*
X163209695Y-120495237D02*
X163247790Y-120609523D01*
X163247790Y-120609523D02*
X163323980Y-120685713D01*
X163323980Y-120685713D02*
X163400171Y-120723808D01*
X163400171Y-120723808D02*
X163552552Y-120761904D01*
X163552552Y-120761904D02*
X163666838Y-120761904D01*
X163666838Y-120761904D02*
X163819219Y-120723808D01*
X163819219Y-120723808D02*
X163895409Y-120685713D01*
X163895409Y-120685713D02*
X163971600Y-120609523D01*
X163971600Y-120609523D02*
X164009695Y-120495237D01*
X164009695Y-120495237D02*
X164009695Y-120419046D01*
X164009695Y-120419046D02*
X163971600Y-120304761D01*
X163971600Y-120304761D02*
X163933504Y-120266665D01*
X163933504Y-120266665D02*
X163666838Y-120266665D01*
X163666838Y-120266665D02*
X163666838Y-120419046D01*
X164009695Y-119923808D02*
X163209695Y-119923808D01*
X163209695Y-119923808D02*
X164009695Y-119466665D01*
X164009695Y-119466665D02*
X163209695Y-119466665D01*
X164009695Y-119085713D02*
X163209695Y-119085713D01*
X163209695Y-119085713D02*
X163209695Y-118895237D01*
X163209695Y-118895237D02*
X163247790Y-118780951D01*
X163247790Y-118780951D02*
X163323980Y-118704761D01*
X163323980Y-118704761D02*
X163400171Y-118666666D01*
X163400171Y-118666666D02*
X163552552Y-118628570D01*
X163552552Y-118628570D02*
X163666838Y-118628570D01*
X163666838Y-118628570D02*
X163819219Y-118666666D01*
X163819219Y-118666666D02*
X163895409Y-118704761D01*
X163895409Y-118704761D02*
X163971600Y-118780951D01*
X163971600Y-118780951D02*
X164009695Y-118895237D01*
X164009695Y-118895237D02*
X164009695Y-119085713D01*
X116710666Y-96235695D02*
X116977333Y-97035695D01*
X116977333Y-97035695D02*
X117243999Y-96235695D01*
X117967809Y-96959504D02*
X117929713Y-96997600D01*
X117929713Y-96997600D02*
X117815428Y-97035695D01*
X117815428Y-97035695D02*
X117739237Y-97035695D01*
X117739237Y-97035695D02*
X117624951Y-96997600D01*
X117624951Y-96997600D02*
X117548761Y-96921409D01*
X117548761Y-96921409D02*
X117510666Y-96845219D01*
X117510666Y-96845219D02*
X117472570Y-96692838D01*
X117472570Y-96692838D02*
X117472570Y-96578552D01*
X117472570Y-96578552D02*
X117510666Y-96426171D01*
X117510666Y-96426171D02*
X117548761Y-96349980D01*
X117548761Y-96349980D02*
X117624951Y-96273790D01*
X117624951Y-96273790D02*
X117739237Y-96235695D01*
X117739237Y-96235695D02*
X117815428Y-96235695D01*
X117815428Y-96235695D02*
X117929713Y-96273790D01*
X117929713Y-96273790D02*
X117967809Y-96311885D01*
X118310666Y-97035695D02*
X118310666Y-96235695D01*
X118310666Y-96235695D02*
X118767809Y-97035695D01*
X118767809Y-97035695D02*
X118767809Y-96235695D01*
X119529713Y-97035695D02*
X119148761Y-97035695D01*
X119148761Y-97035695D02*
X119148761Y-96235695D01*
X120139237Y-96502361D02*
X120139237Y-97035695D01*
X119948761Y-96197600D02*
X119758284Y-96769028D01*
X119758284Y-96769028D02*
X120253523Y-96769028D01*
X120710666Y-96235695D02*
X120786856Y-96235695D01*
X120786856Y-96235695D02*
X120863047Y-96273790D01*
X120863047Y-96273790D02*
X120901142Y-96311885D01*
X120901142Y-96311885D02*
X120939237Y-96388076D01*
X120939237Y-96388076D02*
X120977332Y-96540457D01*
X120977332Y-96540457D02*
X120977332Y-96730933D01*
X120977332Y-96730933D02*
X120939237Y-96883314D01*
X120939237Y-96883314D02*
X120901142Y-96959504D01*
X120901142Y-96959504D02*
X120863047Y-96997600D01*
X120863047Y-96997600D02*
X120786856Y-97035695D01*
X120786856Y-97035695D02*
X120710666Y-97035695D01*
X120710666Y-97035695D02*
X120634475Y-96997600D01*
X120634475Y-96997600D02*
X120596380Y-96959504D01*
X120596380Y-96959504D02*
X120558285Y-96883314D01*
X120558285Y-96883314D02*
X120520189Y-96730933D01*
X120520189Y-96730933D02*
X120520189Y-96540457D01*
X120520189Y-96540457D02*
X120558285Y-96388076D01*
X120558285Y-96388076D02*
X120596380Y-96311885D01*
X120596380Y-96311885D02*
X120634475Y-96273790D01*
X120634475Y-96273790D02*
X120710666Y-96235695D01*
X121663047Y-96502361D02*
X121663047Y-97035695D01*
X121472571Y-96197600D02*
X121282094Y-96769028D01*
X121282094Y-96769028D02*
X121777333Y-96769028D01*
X122234476Y-96235695D02*
X122310666Y-96235695D01*
X122310666Y-96235695D02*
X122386857Y-96273790D01*
X122386857Y-96273790D02*
X122424952Y-96311885D01*
X122424952Y-96311885D02*
X122463047Y-96388076D01*
X122463047Y-96388076D02*
X122501142Y-96540457D01*
X122501142Y-96540457D02*
X122501142Y-96730933D01*
X122501142Y-96730933D02*
X122463047Y-96883314D01*
X122463047Y-96883314D02*
X122424952Y-96959504D01*
X122424952Y-96959504D02*
X122386857Y-96997600D01*
X122386857Y-96997600D02*
X122310666Y-97035695D01*
X122310666Y-97035695D02*
X122234476Y-97035695D01*
X122234476Y-97035695D02*
X122158285Y-96997600D01*
X122158285Y-96997600D02*
X122120190Y-96959504D01*
X122120190Y-96959504D02*
X122082095Y-96883314D01*
X122082095Y-96883314D02*
X122043999Y-96730933D01*
X122043999Y-96730933D02*
X122043999Y-96540457D01*
X122043999Y-96540457D02*
X122082095Y-96388076D01*
X122082095Y-96388076D02*
X122120190Y-96311885D01*
X122120190Y-96311885D02*
X122158285Y-96273790D01*
X122158285Y-96273790D02*
X122234476Y-96235695D01*
X140231428Y-132239695D02*
X140498095Y-133039695D01*
X140498095Y-133039695D02*
X140764761Y-132239695D01*
X141412380Y-133039695D02*
X141031428Y-133039695D01*
X141031428Y-133039695D02*
X141031428Y-132239695D01*
X141679047Y-133039695D02*
X141679047Y-132239695D01*
X141679047Y-132239695D02*
X141945713Y-132811123D01*
X141945713Y-132811123D02*
X142212380Y-132239695D01*
X142212380Y-132239695D02*
X142212380Y-133039695D01*
X142593333Y-132239695D02*
X142593333Y-132887314D01*
X142593333Y-132887314D02*
X142631428Y-132963504D01*
X142631428Y-132963504D02*
X142669523Y-133001600D01*
X142669523Y-133001600D02*
X142745714Y-133039695D01*
X142745714Y-133039695D02*
X142898095Y-133039695D01*
X142898095Y-133039695D02*
X142974285Y-133001600D01*
X142974285Y-133001600D02*
X143012380Y-132963504D01*
X143012380Y-132963504D02*
X143050476Y-132887314D01*
X143050476Y-132887314D02*
X143050476Y-132239695D01*
X143355237Y-132239695D02*
X143850475Y-132239695D01*
X143850475Y-132239695D02*
X143583809Y-132544457D01*
X143583809Y-132544457D02*
X143698094Y-132544457D01*
X143698094Y-132544457D02*
X143774285Y-132582552D01*
X143774285Y-132582552D02*
X143812380Y-132620647D01*
X143812380Y-132620647D02*
X143850475Y-132696838D01*
X143850475Y-132696838D02*
X143850475Y-132887314D01*
X143850475Y-132887314D02*
X143812380Y-132963504D01*
X143812380Y-132963504D02*
X143774285Y-133001600D01*
X143774285Y-133001600D02*
X143698094Y-133039695D01*
X143698094Y-133039695D02*
X143469523Y-133039695D01*
X143469523Y-133039695D02*
X143393332Y-133001600D01*
X143393332Y-133001600D02*
X143355237Y-132963504D01*
X144574285Y-132239695D02*
X144193333Y-132239695D01*
X144193333Y-132239695D02*
X144155237Y-132620647D01*
X144155237Y-132620647D02*
X144193333Y-132582552D01*
X144193333Y-132582552D02*
X144269523Y-132544457D01*
X144269523Y-132544457D02*
X144459999Y-132544457D01*
X144459999Y-132544457D02*
X144536190Y-132582552D01*
X144536190Y-132582552D02*
X144574285Y-132620647D01*
X144574285Y-132620647D02*
X144612380Y-132696838D01*
X144612380Y-132696838D02*
X144612380Y-132887314D01*
X144612380Y-132887314D02*
X144574285Y-132963504D01*
X144574285Y-132963504D02*
X144536190Y-133001600D01*
X144536190Y-133001600D02*
X144459999Y-133039695D01*
X144459999Y-133039695D02*
X144269523Y-133039695D01*
X144269523Y-133039695D02*
X144193333Y-133001600D01*
X144193333Y-133001600D02*
X144155237Y-132963504D01*
X145278476Y-109529695D02*
X145278476Y-108729695D01*
X145278476Y-108729695D02*
X145468952Y-108729695D01*
X145468952Y-108729695D02*
X145583238Y-108767790D01*
X145583238Y-108767790D02*
X145659428Y-108843980D01*
X145659428Y-108843980D02*
X145697523Y-108920171D01*
X145697523Y-108920171D02*
X145735619Y-109072552D01*
X145735619Y-109072552D02*
X145735619Y-109186838D01*
X145735619Y-109186838D02*
X145697523Y-109339219D01*
X145697523Y-109339219D02*
X145659428Y-109415409D01*
X145659428Y-109415409D02*
X145583238Y-109491600D01*
X145583238Y-109491600D02*
X145468952Y-109529695D01*
X145468952Y-109529695D02*
X145278476Y-109529695D01*
X146078476Y-109529695D02*
X146078476Y-108729695D01*
X146078476Y-108729695D02*
X146345142Y-109301123D01*
X146345142Y-109301123D02*
X146611809Y-108729695D01*
X146611809Y-108729695D02*
X146611809Y-109529695D01*
X146992762Y-109529695D02*
X146992762Y-108729695D01*
X146992762Y-108729695D02*
X147449905Y-109529695D01*
X147449905Y-109529695D02*
X147449905Y-108729695D01*
X147754666Y-108729695D02*
X148249904Y-108729695D01*
X148249904Y-108729695D02*
X147983238Y-109034457D01*
X147983238Y-109034457D02*
X148097523Y-109034457D01*
X148097523Y-109034457D02*
X148173714Y-109072552D01*
X148173714Y-109072552D02*
X148211809Y-109110647D01*
X148211809Y-109110647D02*
X148249904Y-109186838D01*
X148249904Y-109186838D02*
X148249904Y-109377314D01*
X148249904Y-109377314D02*
X148211809Y-109453504D01*
X148211809Y-109453504D02*
X148173714Y-109491600D01*
X148173714Y-109491600D02*
X148097523Y-109529695D01*
X148097523Y-109529695D02*
X147868952Y-109529695D01*
X147868952Y-109529695D02*
X147792761Y-109491600D01*
X147792761Y-109491600D02*
X147754666Y-109453504D01*
X148745143Y-108729695D02*
X148821333Y-108729695D01*
X148821333Y-108729695D02*
X148897524Y-108767790D01*
X148897524Y-108767790D02*
X148935619Y-108805885D01*
X148935619Y-108805885D02*
X148973714Y-108882076D01*
X148973714Y-108882076D02*
X149011809Y-109034457D01*
X149011809Y-109034457D02*
X149011809Y-109224933D01*
X149011809Y-109224933D02*
X148973714Y-109377314D01*
X148973714Y-109377314D02*
X148935619Y-109453504D01*
X148935619Y-109453504D02*
X148897524Y-109491600D01*
X148897524Y-109491600D02*
X148821333Y-109529695D01*
X148821333Y-109529695D02*
X148745143Y-109529695D01*
X148745143Y-109529695D02*
X148668952Y-109491600D01*
X148668952Y-109491600D02*
X148630857Y-109453504D01*
X148630857Y-109453504D02*
X148592762Y-109377314D01*
X148592762Y-109377314D02*
X148554666Y-109224933D01*
X148554666Y-109224933D02*
X148554666Y-109034457D01*
X148554666Y-109034457D02*
X148592762Y-108882076D01*
X148592762Y-108882076D02*
X148630857Y-108805885D01*
X148630857Y-108805885D02*
X148668952Y-108767790D01*
X148668952Y-108767790D02*
X148745143Y-108729695D01*
X149773714Y-109529695D02*
X149316571Y-109529695D01*
X149545143Y-109529695D02*
X149545143Y-108729695D01*
X149545143Y-108729695D02*
X149468952Y-108843980D01*
X149468952Y-108843980D02*
X149392762Y-108920171D01*
X149392762Y-108920171D02*
X149316571Y-108958266D01*
X150268953Y-108729695D02*
X150345143Y-108729695D01*
X150345143Y-108729695D02*
X150421334Y-108767790D01*
X150421334Y-108767790D02*
X150459429Y-108805885D01*
X150459429Y-108805885D02*
X150497524Y-108882076D01*
X150497524Y-108882076D02*
X150535619Y-109034457D01*
X150535619Y-109034457D02*
X150535619Y-109224933D01*
X150535619Y-109224933D02*
X150497524Y-109377314D01*
X150497524Y-109377314D02*
X150459429Y-109453504D01*
X150459429Y-109453504D02*
X150421334Y-109491600D01*
X150421334Y-109491600D02*
X150345143Y-109529695D01*
X150345143Y-109529695D02*
X150268953Y-109529695D01*
X150268953Y-109529695D02*
X150192762Y-109491600D01*
X150192762Y-109491600D02*
X150154667Y-109453504D01*
X150154667Y-109453504D02*
X150116572Y-109377314D01*
X150116572Y-109377314D02*
X150078476Y-109224933D01*
X150078476Y-109224933D02*
X150078476Y-109034457D01*
X150078476Y-109034457D02*
X150116572Y-108882076D01*
X150116572Y-108882076D02*
X150154667Y-108805885D01*
X150154667Y-108805885D02*
X150192762Y-108767790D01*
X150192762Y-108767790D02*
X150268953Y-108729695D01*
X147835237Y-126037790D02*
X147759047Y-125999695D01*
X147759047Y-125999695D02*
X147644761Y-125999695D01*
X147644761Y-125999695D02*
X147530475Y-126037790D01*
X147530475Y-126037790D02*
X147454285Y-126113980D01*
X147454285Y-126113980D02*
X147416190Y-126190171D01*
X147416190Y-126190171D02*
X147378094Y-126342552D01*
X147378094Y-126342552D02*
X147378094Y-126456838D01*
X147378094Y-126456838D02*
X147416190Y-126609219D01*
X147416190Y-126609219D02*
X147454285Y-126685409D01*
X147454285Y-126685409D02*
X147530475Y-126761600D01*
X147530475Y-126761600D02*
X147644761Y-126799695D01*
X147644761Y-126799695D02*
X147720952Y-126799695D01*
X147720952Y-126799695D02*
X147835237Y-126761600D01*
X147835237Y-126761600D02*
X147873333Y-126723504D01*
X147873333Y-126723504D02*
X147873333Y-126456838D01*
X147873333Y-126456838D02*
X147720952Y-126456838D01*
X148139999Y-125999695D02*
X148330475Y-126799695D01*
X148330475Y-126799695D02*
X148482856Y-126228266D01*
X148482856Y-126228266D02*
X148635237Y-126799695D01*
X148635237Y-126799695D02*
X148825714Y-125999695D01*
X148940000Y-126875885D02*
X149549523Y-126875885D01*
X149968571Y-125999695D02*
X149968571Y-126571123D01*
X149968571Y-126571123D02*
X149930476Y-126685409D01*
X149930476Y-126685409D02*
X149854285Y-126761600D01*
X149854285Y-126761600D02*
X149740000Y-126799695D01*
X149740000Y-126799695D02*
X149663809Y-126799695D01*
X150235238Y-125999695D02*
X150692381Y-125999695D01*
X150463809Y-126799695D02*
X150463809Y-125999695D01*
X151340000Y-126799695D02*
X150959048Y-126799695D01*
X150959048Y-126799695D02*
X150959048Y-125999695D01*
X151606667Y-126799695D02*
X151606667Y-125999695D01*
X151606667Y-125999695D02*
X151873333Y-126571123D01*
X151873333Y-126571123D02*
X152140000Y-125999695D01*
X152140000Y-125999695D02*
X152140000Y-126799695D01*
X152482857Y-126761600D02*
X152597143Y-126799695D01*
X152597143Y-126799695D02*
X152787619Y-126799695D01*
X152787619Y-126799695D02*
X152863810Y-126761600D01*
X152863810Y-126761600D02*
X152901905Y-126723504D01*
X152901905Y-126723504D02*
X152940000Y-126647314D01*
X152940000Y-126647314D02*
X152940000Y-126571123D01*
X152940000Y-126571123D02*
X152901905Y-126494933D01*
X152901905Y-126494933D02*
X152863810Y-126456838D01*
X152863810Y-126456838D02*
X152787619Y-126418742D01*
X152787619Y-126418742D02*
X152635238Y-126380647D01*
X152635238Y-126380647D02*
X152559048Y-126342552D01*
X152559048Y-126342552D02*
X152520953Y-126304457D01*
X152520953Y-126304457D02*
X152482857Y-126228266D01*
X152482857Y-126228266D02*
X152482857Y-126152076D01*
X152482857Y-126152076D02*
X152520953Y-126075885D01*
X152520953Y-126075885D02*
X152559048Y-126037790D01*
X152559048Y-126037790D02*
X152635238Y-125999695D01*
X152635238Y-125999695D02*
X152825715Y-125999695D01*
X152825715Y-125999695D02*
X152940000Y-126037790D01*
X153206667Y-125999695D02*
X153701905Y-125999695D01*
X153701905Y-125999695D02*
X153435239Y-126304457D01*
X153435239Y-126304457D02*
X153549524Y-126304457D01*
X153549524Y-126304457D02*
X153625715Y-126342552D01*
X153625715Y-126342552D02*
X153663810Y-126380647D01*
X153663810Y-126380647D02*
X153701905Y-126456838D01*
X153701905Y-126456838D02*
X153701905Y-126647314D01*
X153701905Y-126647314D02*
X153663810Y-126723504D01*
X153663810Y-126723504D02*
X153625715Y-126761600D01*
X153625715Y-126761600D02*
X153549524Y-126799695D01*
X153549524Y-126799695D02*
X153320953Y-126799695D01*
X153320953Y-126799695D02*
X153244762Y-126761600D01*
X153244762Y-126761600D02*
X153206667Y-126723504D01*
X139359695Y-119114285D02*
X138978742Y-119380952D01*
X139359695Y-119571428D02*
X138559695Y-119571428D01*
X138559695Y-119571428D02*
X138559695Y-119266666D01*
X138559695Y-119266666D02*
X138597790Y-119190476D01*
X138597790Y-119190476D02*
X138635885Y-119152381D01*
X138635885Y-119152381D02*
X138712076Y-119114285D01*
X138712076Y-119114285D02*
X138826361Y-119114285D01*
X138826361Y-119114285D02*
X138902552Y-119152381D01*
X138902552Y-119152381D02*
X138940647Y-119190476D01*
X138940647Y-119190476D02*
X138978742Y-119266666D01*
X138978742Y-119266666D02*
X138978742Y-119571428D01*
X139359695Y-118352381D02*
X139359695Y-118809524D01*
X139359695Y-118580952D02*
X138559695Y-118580952D01*
X138559695Y-118580952D02*
X138673980Y-118657143D01*
X138673980Y-118657143D02*
X138750171Y-118733333D01*
X138750171Y-118733333D02*
X138788266Y-118809524D01*
X139359695Y-117590476D02*
X139359695Y-118047619D01*
X139359695Y-117819047D02*
X138559695Y-117819047D01*
X138559695Y-117819047D02*
X138673980Y-117895238D01*
X138673980Y-117895238D02*
X138750171Y-117971428D01*
X138750171Y-117971428D02*
X138788266Y-118047619D01*
X128603504Y-117183332D02*
X128641600Y-117221428D01*
X128641600Y-117221428D02*
X128679695Y-117335713D01*
X128679695Y-117335713D02*
X128679695Y-117411904D01*
X128679695Y-117411904D02*
X128641600Y-117526190D01*
X128641600Y-117526190D02*
X128565409Y-117602380D01*
X128565409Y-117602380D02*
X128489219Y-117640475D01*
X128489219Y-117640475D02*
X128336838Y-117678571D01*
X128336838Y-117678571D02*
X128222552Y-117678571D01*
X128222552Y-117678571D02*
X128070171Y-117640475D01*
X128070171Y-117640475D02*
X127993980Y-117602380D01*
X127993980Y-117602380D02*
X127917790Y-117526190D01*
X127917790Y-117526190D02*
X127879695Y-117411904D01*
X127879695Y-117411904D02*
X127879695Y-117335713D01*
X127879695Y-117335713D02*
X127917790Y-117221428D01*
X127917790Y-117221428D02*
X127955885Y-117183332D01*
X128679695Y-116802380D02*
X128679695Y-116649999D01*
X128679695Y-116649999D02*
X128641600Y-116573809D01*
X128641600Y-116573809D02*
X128603504Y-116535713D01*
X128603504Y-116535713D02*
X128489219Y-116459523D01*
X128489219Y-116459523D02*
X128336838Y-116421428D01*
X128336838Y-116421428D02*
X128032076Y-116421428D01*
X128032076Y-116421428D02*
X127955885Y-116459523D01*
X127955885Y-116459523D02*
X127917790Y-116497618D01*
X127917790Y-116497618D02*
X127879695Y-116573809D01*
X127879695Y-116573809D02*
X127879695Y-116726190D01*
X127879695Y-116726190D02*
X127917790Y-116802380D01*
X127917790Y-116802380D02*
X127955885Y-116840475D01*
X127955885Y-116840475D02*
X128032076Y-116878571D01*
X128032076Y-116878571D02*
X128222552Y-116878571D01*
X128222552Y-116878571D02*
X128298742Y-116840475D01*
X128298742Y-116840475D02*
X128336838Y-116802380D01*
X128336838Y-116802380D02*
X128374933Y-116726190D01*
X128374933Y-116726190D02*
X128374933Y-116573809D01*
X128374933Y-116573809D02*
X128336838Y-116497618D01*
X128336838Y-116497618D02*
X128298742Y-116459523D01*
X128298742Y-116459523D02*
X128222552Y-116421428D01*
X140181428Y-125699695D02*
X140448095Y-126499695D01*
X140448095Y-126499695D02*
X140714761Y-125699695D01*
X141362380Y-126499695D02*
X140981428Y-126499695D01*
X140981428Y-126499695D02*
X140981428Y-125699695D01*
X141629047Y-126499695D02*
X141629047Y-125699695D01*
X141629047Y-125699695D02*
X141895713Y-126271123D01*
X141895713Y-126271123D02*
X142162380Y-125699695D01*
X142162380Y-125699695D02*
X142162380Y-126499695D01*
X142543333Y-125699695D02*
X142543333Y-126347314D01*
X142543333Y-126347314D02*
X142581428Y-126423504D01*
X142581428Y-126423504D02*
X142619523Y-126461600D01*
X142619523Y-126461600D02*
X142695714Y-126499695D01*
X142695714Y-126499695D02*
X142848095Y-126499695D01*
X142848095Y-126499695D02*
X142924285Y-126461600D01*
X142924285Y-126461600D02*
X142962380Y-126423504D01*
X142962380Y-126423504D02*
X143000476Y-126347314D01*
X143000476Y-126347314D02*
X143000476Y-125699695D01*
X143305237Y-125699695D02*
X143800475Y-125699695D01*
X143800475Y-125699695D02*
X143533809Y-126004457D01*
X143533809Y-126004457D02*
X143648094Y-126004457D01*
X143648094Y-126004457D02*
X143724285Y-126042552D01*
X143724285Y-126042552D02*
X143762380Y-126080647D01*
X143762380Y-126080647D02*
X143800475Y-126156838D01*
X143800475Y-126156838D02*
X143800475Y-126347314D01*
X143800475Y-126347314D02*
X143762380Y-126423504D01*
X143762380Y-126423504D02*
X143724285Y-126461600D01*
X143724285Y-126461600D02*
X143648094Y-126499695D01*
X143648094Y-126499695D02*
X143419523Y-126499695D01*
X143419523Y-126499695D02*
X143343332Y-126461600D01*
X143343332Y-126461600D02*
X143305237Y-126423504D01*
X144524285Y-125699695D02*
X144143333Y-125699695D01*
X144143333Y-125699695D02*
X144105237Y-126080647D01*
X144105237Y-126080647D02*
X144143333Y-126042552D01*
X144143333Y-126042552D02*
X144219523Y-126004457D01*
X144219523Y-126004457D02*
X144409999Y-126004457D01*
X144409999Y-126004457D02*
X144486190Y-126042552D01*
X144486190Y-126042552D02*
X144524285Y-126080647D01*
X144524285Y-126080647D02*
X144562380Y-126156838D01*
X144562380Y-126156838D02*
X144562380Y-126347314D01*
X144562380Y-126347314D02*
X144524285Y-126423504D01*
X144524285Y-126423504D02*
X144486190Y-126461600D01*
X144486190Y-126461600D02*
X144409999Y-126499695D01*
X144409999Y-126499695D02*
X144219523Y-126499695D01*
X144219523Y-126499695D02*
X144143333Y-126461600D01*
X144143333Y-126461600D02*
X144105237Y-126423504D01*
X153457142Y-89740647D02*
X153571428Y-89778742D01*
X153571428Y-89778742D02*
X153609523Y-89816838D01*
X153609523Y-89816838D02*
X153647619Y-89893028D01*
X153647619Y-89893028D02*
X153647619Y-90007314D01*
X153647619Y-90007314D02*
X153609523Y-90083504D01*
X153609523Y-90083504D02*
X153571428Y-90121600D01*
X153571428Y-90121600D02*
X153495238Y-90159695D01*
X153495238Y-90159695D02*
X153190476Y-90159695D01*
X153190476Y-90159695D02*
X153190476Y-89359695D01*
X153190476Y-89359695D02*
X153457142Y-89359695D01*
X153457142Y-89359695D02*
X153533333Y-89397790D01*
X153533333Y-89397790D02*
X153571428Y-89435885D01*
X153571428Y-89435885D02*
X153609523Y-89512076D01*
X153609523Y-89512076D02*
X153609523Y-89588266D01*
X153609523Y-89588266D02*
X153571428Y-89664457D01*
X153571428Y-89664457D02*
X153533333Y-89702552D01*
X153533333Y-89702552D02*
X153457142Y-89740647D01*
X153457142Y-89740647D02*
X153190476Y-89740647D01*
X154333333Y-89626361D02*
X154333333Y-90159695D01*
X153990476Y-89626361D02*
X153990476Y-90045409D01*
X153990476Y-90045409D02*
X154028571Y-90121600D01*
X154028571Y-90121600D02*
X154104761Y-90159695D01*
X154104761Y-90159695D02*
X154219047Y-90159695D01*
X154219047Y-90159695D02*
X154295238Y-90121600D01*
X154295238Y-90121600D02*
X154333333Y-90083504D01*
X154638095Y-89626361D02*
X155057143Y-89626361D01*
X155057143Y-89626361D02*
X154638095Y-90159695D01*
X154638095Y-90159695D02*
X155057143Y-90159695D01*
X155285714Y-89626361D02*
X155704762Y-89626361D01*
X155704762Y-89626361D02*
X155285714Y-90159695D01*
X155285714Y-90159695D02*
X155704762Y-90159695D01*
X156314286Y-90121600D02*
X156238095Y-90159695D01*
X156238095Y-90159695D02*
X156085714Y-90159695D01*
X156085714Y-90159695D02*
X156009524Y-90121600D01*
X156009524Y-90121600D02*
X155971428Y-90045409D01*
X155971428Y-90045409D02*
X155971428Y-89740647D01*
X155971428Y-89740647D02*
X156009524Y-89664457D01*
X156009524Y-89664457D02*
X156085714Y-89626361D01*
X156085714Y-89626361D02*
X156238095Y-89626361D01*
X156238095Y-89626361D02*
X156314286Y-89664457D01*
X156314286Y-89664457D02*
X156352381Y-89740647D01*
X156352381Y-89740647D02*
X156352381Y-89816838D01*
X156352381Y-89816838D02*
X155971428Y-89893028D01*
X156695238Y-90159695D02*
X156695238Y-89626361D01*
X156695238Y-89778742D02*
X156733333Y-89702552D01*
X156733333Y-89702552D02*
X156771428Y-89664457D01*
X156771428Y-89664457D02*
X156847619Y-89626361D01*
X156847619Y-89626361D02*
X156923809Y-89626361D01*
D12*
X161419048Y-96873866D02*
X162180953Y-96873866D01*
X161800000Y-97254819D02*
X161800000Y-96492914D01*
D11*
X133216190Y-88399695D02*
X133673333Y-88399695D01*
X133444761Y-89199695D02*
X133444761Y-88399695D01*
X134244762Y-89161600D02*
X134168571Y-89199695D01*
X134168571Y-89199695D02*
X134016190Y-89199695D01*
X134016190Y-89199695D02*
X133940000Y-89161600D01*
X133940000Y-89161600D02*
X133901904Y-89085409D01*
X133901904Y-89085409D02*
X133901904Y-88780647D01*
X133901904Y-88780647D02*
X133940000Y-88704457D01*
X133940000Y-88704457D02*
X134016190Y-88666361D01*
X134016190Y-88666361D02*
X134168571Y-88666361D01*
X134168571Y-88666361D02*
X134244762Y-88704457D01*
X134244762Y-88704457D02*
X134282857Y-88780647D01*
X134282857Y-88780647D02*
X134282857Y-88856838D01*
X134282857Y-88856838D02*
X133901904Y-88933028D01*
X134587618Y-89161600D02*
X134663809Y-89199695D01*
X134663809Y-89199695D02*
X134816190Y-89199695D01*
X134816190Y-89199695D02*
X134892380Y-89161600D01*
X134892380Y-89161600D02*
X134930476Y-89085409D01*
X134930476Y-89085409D02*
X134930476Y-89047314D01*
X134930476Y-89047314D02*
X134892380Y-88971123D01*
X134892380Y-88971123D02*
X134816190Y-88933028D01*
X134816190Y-88933028D02*
X134701904Y-88933028D01*
X134701904Y-88933028D02*
X134625714Y-88894933D01*
X134625714Y-88894933D02*
X134587618Y-88818742D01*
X134587618Y-88818742D02*
X134587618Y-88780647D01*
X134587618Y-88780647D02*
X134625714Y-88704457D01*
X134625714Y-88704457D02*
X134701904Y-88666361D01*
X134701904Y-88666361D02*
X134816190Y-88666361D01*
X134816190Y-88666361D02*
X134892380Y-88704457D01*
X135159047Y-88666361D02*
X135463809Y-88666361D01*
X135273333Y-88399695D02*
X135273333Y-89085409D01*
X135273333Y-89085409D02*
X135311428Y-89161600D01*
X135311428Y-89161600D02*
X135387618Y-89199695D01*
X135387618Y-89199695D02*
X135463809Y-89199695D01*
X135540000Y-89275885D02*
X136149523Y-89275885D01*
X136263809Y-88399695D02*
X136759047Y-88399695D01*
X136759047Y-88399695D02*
X136492381Y-88704457D01*
X136492381Y-88704457D02*
X136606666Y-88704457D01*
X136606666Y-88704457D02*
X136682857Y-88742552D01*
X136682857Y-88742552D02*
X136720952Y-88780647D01*
X136720952Y-88780647D02*
X136759047Y-88856838D01*
X136759047Y-88856838D02*
X136759047Y-89047314D01*
X136759047Y-89047314D02*
X136720952Y-89123504D01*
X136720952Y-89123504D02*
X136682857Y-89161600D01*
X136682857Y-89161600D02*
X136606666Y-89199695D01*
X136606666Y-89199695D02*
X136378095Y-89199695D01*
X136378095Y-89199695D02*
X136301904Y-89161600D01*
X136301904Y-89161600D02*
X136263809Y-89123504D01*
X137101905Y-89123504D02*
X137140000Y-89161600D01*
X137140000Y-89161600D02*
X137101905Y-89199695D01*
X137101905Y-89199695D02*
X137063809Y-89161600D01*
X137063809Y-89161600D02*
X137101905Y-89123504D01*
X137101905Y-89123504D02*
X137101905Y-89199695D01*
X137406666Y-88399695D02*
X137901904Y-88399695D01*
X137901904Y-88399695D02*
X137635238Y-88704457D01*
X137635238Y-88704457D02*
X137749523Y-88704457D01*
X137749523Y-88704457D02*
X137825714Y-88742552D01*
X137825714Y-88742552D02*
X137863809Y-88780647D01*
X137863809Y-88780647D02*
X137901904Y-88856838D01*
X137901904Y-88856838D02*
X137901904Y-89047314D01*
X137901904Y-89047314D02*
X137863809Y-89123504D01*
X137863809Y-89123504D02*
X137825714Y-89161600D01*
X137825714Y-89161600D02*
X137749523Y-89199695D01*
X137749523Y-89199695D02*
X137520952Y-89199695D01*
X137520952Y-89199695D02*
X137444761Y-89161600D01*
X137444761Y-89161600D02*
X137406666Y-89123504D01*
X138130476Y-88399695D02*
X138397143Y-89199695D01*
X138397143Y-89199695D02*
X138663809Y-88399695D01*
X130416667Y-102759695D02*
X130150000Y-102378742D01*
X129959524Y-102759695D02*
X129959524Y-101959695D01*
X129959524Y-101959695D02*
X130264286Y-101959695D01*
X130264286Y-101959695D02*
X130340476Y-101997790D01*
X130340476Y-101997790D02*
X130378571Y-102035885D01*
X130378571Y-102035885D02*
X130416667Y-102112076D01*
X130416667Y-102112076D02*
X130416667Y-102226361D01*
X130416667Y-102226361D02*
X130378571Y-102302552D01*
X130378571Y-102302552D02*
X130340476Y-102340647D01*
X130340476Y-102340647D02*
X130264286Y-102378742D01*
X130264286Y-102378742D02*
X129959524Y-102378742D01*
X131102381Y-102226361D02*
X131102381Y-102759695D01*
X130911905Y-101921600D02*
X130721428Y-102493028D01*
X130721428Y-102493028D02*
X131216667Y-102493028D01*
X128447619Y-135609695D02*
X128904762Y-135609695D01*
X128676190Y-136409695D02*
X128676190Y-135609695D01*
X129476191Y-136371600D02*
X129400000Y-136409695D01*
X129400000Y-136409695D02*
X129247619Y-136409695D01*
X129247619Y-136409695D02*
X129171429Y-136371600D01*
X129171429Y-136371600D02*
X129133333Y-136295409D01*
X129133333Y-136295409D02*
X129133333Y-135990647D01*
X129133333Y-135990647D02*
X129171429Y-135914457D01*
X129171429Y-135914457D02*
X129247619Y-135876361D01*
X129247619Y-135876361D02*
X129400000Y-135876361D01*
X129400000Y-135876361D02*
X129476191Y-135914457D01*
X129476191Y-135914457D02*
X129514286Y-135990647D01*
X129514286Y-135990647D02*
X129514286Y-136066838D01*
X129514286Y-136066838D02*
X129133333Y-136143028D01*
X129819047Y-136371600D02*
X129895238Y-136409695D01*
X129895238Y-136409695D02*
X130047619Y-136409695D01*
X130047619Y-136409695D02*
X130123809Y-136371600D01*
X130123809Y-136371600D02*
X130161905Y-136295409D01*
X130161905Y-136295409D02*
X130161905Y-136257314D01*
X130161905Y-136257314D02*
X130123809Y-136181123D01*
X130123809Y-136181123D02*
X130047619Y-136143028D01*
X130047619Y-136143028D02*
X129933333Y-136143028D01*
X129933333Y-136143028D02*
X129857143Y-136104933D01*
X129857143Y-136104933D02*
X129819047Y-136028742D01*
X129819047Y-136028742D02*
X129819047Y-135990647D01*
X129819047Y-135990647D02*
X129857143Y-135914457D01*
X129857143Y-135914457D02*
X129933333Y-135876361D01*
X129933333Y-135876361D02*
X130047619Y-135876361D01*
X130047619Y-135876361D02*
X130123809Y-135914457D01*
X130390476Y-135876361D02*
X130695238Y-135876361D01*
X130504762Y-135609695D02*
X130504762Y-136295409D01*
X130504762Y-136295409D02*
X130542857Y-136371600D01*
X130542857Y-136371600D02*
X130619047Y-136409695D01*
X130619047Y-136409695D02*
X130695238Y-136409695D01*
X130771429Y-136485885D02*
X131380952Y-136485885D01*
X131952381Y-135609695D02*
X131571429Y-135609695D01*
X131571429Y-135609695D02*
X131533333Y-135990647D01*
X131533333Y-135990647D02*
X131571429Y-135952552D01*
X131571429Y-135952552D02*
X131647619Y-135914457D01*
X131647619Y-135914457D02*
X131838095Y-135914457D01*
X131838095Y-135914457D02*
X131914286Y-135952552D01*
X131914286Y-135952552D02*
X131952381Y-135990647D01*
X131952381Y-135990647D02*
X131990476Y-136066838D01*
X131990476Y-136066838D02*
X131990476Y-136257314D01*
X131990476Y-136257314D02*
X131952381Y-136333504D01*
X131952381Y-136333504D02*
X131914286Y-136371600D01*
X131914286Y-136371600D02*
X131838095Y-136409695D01*
X131838095Y-136409695D02*
X131647619Y-136409695D01*
X131647619Y-136409695D02*
X131571429Y-136371600D01*
X131571429Y-136371600D02*
X131533333Y-136333504D01*
X132219048Y-135609695D02*
X132485715Y-136409695D01*
X132485715Y-136409695D02*
X132752381Y-135609695D01*
X130666667Y-106683504D02*
X130628571Y-106721600D01*
X130628571Y-106721600D02*
X130514286Y-106759695D01*
X130514286Y-106759695D02*
X130438095Y-106759695D01*
X130438095Y-106759695D02*
X130323809Y-106721600D01*
X130323809Y-106721600D02*
X130247619Y-106645409D01*
X130247619Y-106645409D02*
X130209524Y-106569219D01*
X130209524Y-106569219D02*
X130171428Y-106416838D01*
X130171428Y-106416838D02*
X130171428Y-106302552D01*
X130171428Y-106302552D02*
X130209524Y-106150171D01*
X130209524Y-106150171D02*
X130247619Y-106073980D01*
X130247619Y-106073980D02*
X130323809Y-105997790D01*
X130323809Y-105997790D02*
X130438095Y-105959695D01*
X130438095Y-105959695D02*
X130514286Y-105959695D01*
X130514286Y-105959695D02*
X130628571Y-105997790D01*
X130628571Y-105997790D02*
X130666667Y-106035885D01*
X131390476Y-105959695D02*
X131009524Y-105959695D01*
X131009524Y-105959695D02*
X130971428Y-106340647D01*
X130971428Y-106340647D02*
X131009524Y-106302552D01*
X131009524Y-106302552D02*
X131085714Y-106264457D01*
X131085714Y-106264457D02*
X131276190Y-106264457D01*
X131276190Y-106264457D02*
X131352381Y-106302552D01*
X131352381Y-106302552D02*
X131390476Y-106340647D01*
X131390476Y-106340647D02*
X131428571Y-106416838D01*
X131428571Y-106416838D02*
X131428571Y-106607314D01*
X131428571Y-106607314D02*
X131390476Y-106683504D01*
X131390476Y-106683504D02*
X131352381Y-106721600D01*
X131352381Y-106721600D02*
X131276190Y-106759695D01*
X131276190Y-106759695D02*
X131085714Y-106759695D01*
X131085714Y-106759695D02*
X131009524Y-106721600D01*
X131009524Y-106721600D02*
X130971428Y-106683504D01*
X128785713Y-94231123D02*
X129166666Y-94231123D01*
X128709523Y-94459695D02*
X128976190Y-93659695D01*
X128976190Y-93659695D02*
X129242856Y-94459695D01*
X129509523Y-94459695D02*
X129509523Y-93659695D01*
X129509523Y-93659695D02*
X129814285Y-93659695D01*
X129814285Y-93659695D02*
X129890475Y-93697790D01*
X129890475Y-93697790D02*
X129928570Y-93735885D01*
X129928570Y-93735885D02*
X129966666Y-93812076D01*
X129966666Y-93812076D02*
X129966666Y-93926361D01*
X129966666Y-93926361D02*
X129928570Y-94002552D01*
X129928570Y-94002552D02*
X129890475Y-94040647D01*
X129890475Y-94040647D02*
X129814285Y-94078742D01*
X129814285Y-94078742D02*
X129509523Y-94078742D01*
X130271427Y-93735885D02*
X130309523Y-93697790D01*
X130309523Y-93697790D02*
X130385713Y-93659695D01*
X130385713Y-93659695D02*
X130576189Y-93659695D01*
X130576189Y-93659695D02*
X130652380Y-93697790D01*
X130652380Y-93697790D02*
X130690475Y-93735885D01*
X130690475Y-93735885D02*
X130728570Y-93812076D01*
X130728570Y-93812076D02*
X130728570Y-93888266D01*
X130728570Y-93888266D02*
X130690475Y-94002552D01*
X130690475Y-94002552D02*
X130233332Y-94459695D01*
X130233332Y-94459695D02*
X130728570Y-94459695D01*
X131490475Y-94459695D02*
X131033332Y-94459695D01*
X131261904Y-94459695D02*
X131261904Y-93659695D01*
X131261904Y-93659695D02*
X131185713Y-93773980D01*
X131185713Y-93773980D02*
X131109523Y-93850171D01*
X131109523Y-93850171D02*
X131033332Y-93888266D01*
X132252380Y-94459695D02*
X131795237Y-94459695D01*
X132023809Y-94459695D02*
X132023809Y-93659695D01*
X132023809Y-93659695D02*
X131947618Y-93773980D01*
X131947618Y-93773980D02*
X131871428Y-93850171D01*
X131871428Y-93850171D02*
X131795237Y-93888266D01*
X132557142Y-93735885D02*
X132595238Y-93697790D01*
X132595238Y-93697790D02*
X132671428Y-93659695D01*
X132671428Y-93659695D02*
X132861904Y-93659695D01*
X132861904Y-93659695D02*
X132938095Y-93697790D01*
X132938095Y-93697790D02*
X132976190Y-93735885D01*
X132976190Y-93735885D02*
X133014285Y-93812076D01*
X133014285Y-93812076D02*
X133014285Y-93888266D01*
X133014285Y-93888266D02*
X132976190Y-94002552D01*
X132976190Y-94002552D02*
X132519047Y-94459695D01*
X132519047Y-94459695D02*
X133014285Y-94459695D01*
X133357143Y-94459695D02*
X133357143Y-93659695D01*
X133814286Y-94459695D02*
X133471428Y-94002552D01*
X133814286Y-93659695D02*
X133357143Y-94116838D01*
X125059695Y-106114285D02*
X124678742Y-106380952D01*
X125059695Y-106571428D02*
X124259695Y-106571428D01*
X124259695Y-106571428D02*
X124259695Y-106266666D01*
X124259695Y-106266666D02*
X124297790Y-106190476D01*
X124297790Y-106190476D02*
X124335885Y-106152381D01*
X124335885Y-106152381D02*
X124412076Y-106114285D01*
X124412076Y-106114285D02*
X124526361Y-106114285D01*
X124526361Y-106114285D02*
X124602552Y-106152381D01*
X124602552Y-106152381D02*
X124640647Y-106190476D01*
X124640647Y-106190476D02*
X124678742Y-106266666D01*
X124678742Y-106266666D02*
X124678742Y-106571428D01*
X125059695Y-105352381D02*
X125059695Y-105809524D01*
X125059695Y-105580952D02*
X124259695Y-105580952D01*
X124259695Y-105580952D02*
X124373980Y-105657143D01*
X124373980Y-105657143D02*
X124450171Y-105733333D01*
X124450171Y-105733333D02*
X124488266Y-105809524D01*
X124259695Y-104857142D02*
X124259695Y-104780952D01*
X124259695Y-104780952D02*
X124297790Y-104704761D01*
X124297790Y-104704761D02*
X124335885Y-104666666D01*
X124335885Y-104666666D02*
X124412076Y-104628571D01*
X124412076Y-104628571D02*
X124564457Y-104590476D01*
X124564457Y-104590476D02*
X124754933Y-104590476D01*
X124754933Y-104590476D02*
X124907314Y-104628571D01*
X124907314Y-104628571D02*
X124983504Y-104666666D01*
X124983504Y-104666666D02*
X125021600Y-104704761D01*
X125021600Y-104704761D02*
X125059695Y-104780952D01*
X125059695Y-104780952D02*
X125059695Y-104857142D01*
X125059695Y-104857142D02*
X125021600Y-104933333D01*
X125021600Y-104933333D02*
X124983504Y-104971428D01*
X124983504Y-104971428D02*
X124907314Y-105009523D01*
X124907314Y-105009523D02*
X124754933Y-105047619D01*
X124754933Y-105047619D02*
X124564457Y-105047619D01*
X124564457Y-105047619D02*
X124412076Y-105009523D01*
X124412076Y-105009523D02*
X124335885Y-104971428D01*
X124335885Y-104971428D02*
X124297790Y-104933333D01*
X124297790Y-104933333D02*
X124259695Y-104857142D01*
X146633504Y-95933332D02*
X146671600Y-95971428D01*
X146671600Y-95971428D02*
X146709695Y-96085713D01*
X146709695Y-96085713D02*
X146709695Y-96161904D01*
X146709695Y-96161904D02*
X146671600Y-96276190D01*
X146671600Y-96276190D02*
X146595409Y-96352380D01*
X146595409Y-96352380D02*
X146519219Y-96390475D01*
X146519219Y-96390475D02*
X146366838Y-96428571D01*
X146366838Y-96428571D02*
X146252552Y-96428571D01*
X146252552Y-96428571D02*
X146100171Y-96390475D01*
X146100171Y-96390475D02*
X146023980Y-96352380D01*
X146023980Y-96352380D02*
X145947790Y-96276190D01*
X145947790Y-96276190D02*
X145909695Y-96161904D01*
X145909695Y-96161904D02*
X145909695Y-96085713D01*
X145909695Y-96085713D02*
X145947790Y-95971428D01*
X145947790Y-95971428D02*
X145985885Y-95933332D01*
X146709695Y-95171428D02*
X146709695Y-95628571D01*
X146709695Y-95399999D02*
X145909695Y-95399999D01*
X145909695Y-95399999D02*
X146023980Y-95476190D01*
X146023980Y-95476190D02*
X146100171Y-95552380D01*
X146100171Y-95552380D02*
X146138266Y-95628571D01*
X155121600Y-123028571D02*
X155159695Y-122914285D01*
X155159695Y-122914285D02*
X155159695Y-122723809D01*
X155159695Y-122723809D02*
X155121600Y-122647618D01*
X155121600Y-122647618D02*
X155083504Y-122609523D01*
X155083504Y-122609523D02*
X155007314Y-122571428D01*
X155007314Y-122571428D02*
X154931123Y-122571428D01*
X154931123Y-122571428D02*
X154854933Y-122609523D01*
X154854933Y-122609523D02*
X154816838Y-122647618D01*
X154816838Y-122647618D02*
X154778742Y-122723809D01*
X154778742Y-122723809D02*
X154740647Y-122876190D01*
X154740647Y-122876190D02*
X154702552Y-122952380D01*
X154702552Y-122952380D02*
X154664457Y-122990475D01*
X154664457Y-122990475D02*
X154588266Y-123028571D01*
X154588266Y-123028571D02*
X154512076Y-123028571D01*
X154512076Y-123028571D02*
X154435885Y-122990475D01*
X154435885Y-122990475D02*
X154397790Y-122952380D01*
X154397790Y-122952380D02*
X154359695Y-122876190D01*
X154359695Y-122876190D02*
X154359695Y-122685713D01*
X154359695Y-122685713D02*
X154397790Y-122571428D01*
X155159695Y-122228570D02*
X154359695Y-122228570D01*
X154359695Y-122228570D02*
X154931123Y-121961904D01*
X154931123Y-121961904D02*
X154359695Y-121695237D01*
X154359695Y-121695237D02*
X155159695Y-121695237D01*
X154931123Y-121352380D02*
X154931123Y-120971427D01*
X155159695Y-121428570D02*
X154359695Y-121161903D01*
X154359695Y-121161903D02*
X155159695Y-120895237D01*
X154359695Y-120399999D02*
X154931123Y-120399999D01*
X154931123Y-120399999D02*
X155045409Y-120438094D01*
X155045409Y-120438094D02*
X155121600Y-120514285D01*
X155121600Y-120514285D02*
X155159695Y-120628570D01*
X155159695Y-120628570D02*
X155159695Y-120704761D01*
X154359695Y-119638094D02*
X154359695Y-120019046D01*
X154359695Y-120019046D02*
X154740647Y-120057142D01*
X154740647Y-120057142D02*
X154702552Y-120019046D01*
X154702552Y-120019046D02*
X154664457Y-119942856D01*
X154664457Y-119942856D02*
X154664457Y-119752380D01*
X154664457Y-119752380D02*
X154702552Y-119676189D01*
X154702552Y-119676189D02*
X154740647Y-119638094D01*
X154740647Y-119638094D02*
X154816838Y-119599999D01*
X154816838Y-119599999D02*
X155007314Y-119599999D01*
X155007314Y-119599999D02*
X155083504Y-119638094D01*
X155083504Y-119638094D02*
X155121600Y-119676189D01*
X155121600Y-119676189D02*
X155159695Y-119752380D01*
X155159695Y-119752380D02*
X155159695Y-119942856D01*
X155159695Y-119942856D02*
X155121600Y-120019046D01*
X155121600Y-120019046D02*
X155083504Y-120057142D01*
X155083504Y-119257141D02*
X155121600Y-119219046D01*
X155121600Y-119219046D02*
X155159695Y-119257141D01*
X155159695Y-119257141D02*
X155121600Y-119295237D01*
X155121600Y-119295237D02*
X155083504Y-119257141D01*
X155083504Y-119257141D02*
X155159695Y-119257141D01*
X154359695Y-118723808D02*
X154359695Y-118647618D01*
X154359695Y-118647618D02*
X154397790Y-118571427D01*
X154397790Y-118571427D02*
X154435885Y-118533332D01*
X154435885Y-118533332D02*
X154512076Y-118495237D01*
X154512076Y-118495237D02*
X154664457Y-118457142D01*
X154664457Y-118457142D02*
X154854933Y-118457142D01*
X154854933Y-118457142D02*
X155007314Y-118495237D01*
X155007314Y-118495237D02*
X155083504Y-118533332D01*
X155083504Y-118533332D02*
X155121600Y-118571427D01*
X155121600Y-118571427D02*
X155159695Y-118647618D01*
X155159695Y-118647618D02*
X155159695Y-118723808D01*
X155159695Y-118723808D02*
X155121600Y-118799999D01*
X155121600Y-118799999D02*
X155083504Y-118838094D01*
X155083504Y-118838094D02*
X155007314Y-118876189D01*
X155007314Y-118876189D02*
X154854933Y-118914285D01*
X154854933Y-118914285D02*
X154664457Y-118914285D01*
X154664457Y-118914285D02*
X154512076Y-118876189D01*
X154512076Y-118876189D02*
X154435885Y-118838094D01*
X154435885Y-118838094D02*
X154397790Y-118799999D01*
X154397790Y-118799999D02*
X154359695Y-118723808D01*
X154931123Y-118152380D02*
X154931123Y-117771427D01*
X155159695Y-118228570D02*
X154359695Y-117961903D01*
X154359695Y-117961903D02*
X155159695Y-117695237D01*
D13*
%TO.C,C7*%
X126665000Y-109088748D02*
X126665000Y-109611252D01*
X128135000Y-109088748D02*
X128135000Y-109611252D01*
%TO.C,TP4*%
X117400000Y-107200000D02*
X119800000Y-107200000D01*
X117400000Y-109600000D02*
X117400000Y-107200000D01*
X119800000Y-107200000D02*
X119800000Y-109600000D01*
X119800000Y-109600000D02*
X117400000Y-109600000D01*
%TO.C,R9*%
X142600258Y-117077500D02*
X142125742Y-117077500D01*
X142600258Y-118122500D02*
X142125742Y-118122500D01*
%TO.C,FB1*%
X130562721Y-122510000D02*
X130888279Y-122510000D01*
X130562721Y-123530000D02*
X130888279Y-123530000D01*
%TO.C,R5*%
X127887742Y-103627500D02*
X128362258Y-103627500D01*
X127887742Y-104672500D02*
X128362258Y-104672500D01*
%TO.C,D2*%
X120140000Y-99962500D02*
X120140000Y-99312500D01*
X120140000Y-99962500D02*
X120140000Y-100612500D01*
X123260000Y-99962500D02*
X123260000Y-99312500D01*
X123260000Y-99962500D02*
X123260000Y-100612500D01*
X123540000Y-99040000D02*
X123210000Y-98800000D01*
X123540000Y-98560000D01*
X123540000Y-99040000D01*
G36*
X123540000Y-99040000D02*
G01*
X123210000Y-98800000D01*
X123540000Y-98560000D01*
X123540000Y-99040000D01*
G37*
%TO.C,L2*%
X134590000Y-97949721D02*
X134590000Y-98275279D01*
X135610000Y-97949721D02*
X135610000Y-98275279D01*
%TO.C,R13*%
X128062258Y-111427500D02*
X127587742Y-111427500D01*
X128062258Y-112472500D02*
X127587742Y-112472500D01*
%TO.C,D1*%
X145840000Y-105200000D02*
X145840000Y-107200000D01*
X145840000Y-105200000D02*
X149850000Y-105200000D01*
X145840000Y-107200000D02*
X149850000Y-107200000D01*
%TO.C,J2*%
X116010000Y-131950000D02*
X116010000Y-130250000D01*
X125350000Y-131950000D02*
X125350000Y-130250000D01*
%TO.C,U3*%
X118852500Y-118135000D02*
X118852500Y-118405000D01*
X118852500Y-123655000D02*
X118852500Y-123385000D01*
X121612500Y-118135000D02*
X118852500Y-118135000D01*
X121612500Y-118135000D02*
X124372500Y-118135000D01*
X121612500Y-123655000D02*
X118852500Y-123655000D01*
X121612500Y-123655000D02*
X124372500Y-123655000D01*
X124372500Y-118135000D02*
X124372500Y-118405000D01*
X124372500Y-123655000D02*
X124372500Y-123385000D01*
X118087500Y-118405000D02*
X117847500Y-118075000D01*
X118327500Y-118075000D01*
X118087500Y-118405000D01*
G36*
X118087500Y-118405000D02*
G01*
X117847500Y-118075000D01*
X118327500Y-118075000D01*
X118087500Y-118405000D01*
G37*
D11*
%TO.C,Q3*%
X153713000Y-110225000D02*
X155238000Y-110225000D01*
X155588000Y-110280000D02*
X158788000Y-110280000D01*
X155588000Y-115330000D02*
X155588000Y-110280000D01*
X158788000Y-110280000D02*
X158788000Y-115330000D01*
X158788000Y-115330000D02*
X155588000Y-115330000D01*
D10*
%TO.C,LED4*%
X148185500Y-129900000D02*
X148185500Y-129900000D01*
X148285500Y-129900000D02*
X148285500Y-129900000D01*
D11*
X148985500Y-128530000D02*
X152185500Y-128530000D01*
X148985500Y-131270000D02*
X152185500Y-131270000D01*
D10*
X148185500Y-129900000D02*
G75*
G02*
X148285500Y-129900000I50000J0D01*
G01*
X148285500Y-129900000D02*
G75*
G02*
X148185500Y-129900000I-50000J0D01*
G01*
D13*
%TO.C,R7*%
X119137258Y-114827500D02*
X118662742Y-114827500D01*
X119137258Y-115872500D02*
X118662742Y-115872500D01*
D14*
%TO.C,G\u002A\u002A\u002A*%
G36*
X157741901Y-133582675D02*
G01*
X157729943Y-133596833D01*
X157717984Y-133582675D01*
X157729943Y-133568517D01*
X157741901Y-133582675D01*
G37*
G36*
X158100658Y-134460490D02*
G01*
X158088700Y-134474648D01*
X158076741Y-134460490D01*
X158088700Y-134446331D01*
X158100658Y-134460490D01*
G37*
G36*
X159798501Y-133363892D02*
G01*
X159798775Y-133370300D01*
X159780389Y-133397529D01*
X159773446Y-133398617D01*
X159759162Y-133381269D01*
X159762899Y-133370300D01*
X159784392Y-133343287D01*
X159788228Y-133341984D01*
X159798501Y-133363892D01*
G37*
G36*
X160210117Y-134492653D02*
G01*
X160217325Y-134907091D01*
X160114271Y-135129777D01*
X160067608Y-135228245D01*
X160029422Y-135304428D01*
X160005422Y-135347137D01*
X160000665Y-135352463D01*
X159997632Y-135325479D01*
X159994940Y-135249854D01*
X159992721Y-135133581D01*
X159991107Y-134984651D01*
X159990232Y-134811057D01*
X159990112Y-134715339D01*
X159990112Y-134078216D01*
X160096511Y-134078216D01*
X160202909Y-134078216D01*
X160210117Y-134492653D01*
G37*
G36*
X160741766Y-134087137D02*
G01*
X160775164Y-134137314D01*
X160826365Y-134233952D01*
X160896253Y-134378708D01*
X160974722Y-134548988D01*
X161107405Y-134842004D01*
X161223524Y-135100002D01*
X161322054Y-135320659D01*
X161401972Y-135501650D01*
X161462254Y-135640652D01*
X161501874Y-135735338D01*
X161519810Y-135783386D01*
X161520809Y-135788316D01*
X161499437Y-135798517D01*
X161445044Y-135801710D01*
X161407203Y-135800001D01*
X161347170Y-135793530D01*
X161307331Y-135777750D01*
X161275814Y-135741221D01*
X161240746Y-135672505D01*
X161214546Y-135614392D01*
X161135496Y-135437413D01*
X160813934Y-135437413D01*
X160696167Y-135436537D01*
X160597763Y-135434136D01*
X160527452Y-135430551D01*
X160493968Y-135426123D01*
X160492372Y-135424873D01*
X160503403Y-135394917D01*
X160530990Y-135335180D01*
X160542569Y-135311607D01*
X160592766Y-135210880D01*
X160805657Y-135210880D01*
X160899884Y-135209571D01*
X160972750Y-135206068D01*
X161013524Y-135201005D01*
X161018549Y-135198287D01*
X161008095Y-135168931D01*
X160980277Y-135102705D01*
X160940410Y-135011406D01*
X160893809Y-134906830D01*
X160845790Y-134800772D01*
X160801669Y-134705028D01*
X160766760Y-134631396D01*
X160746380Y-134591670D01*
X160743510Y-134587915D01*
X160730122Y-134611553D01*
X160697269Y-134677600D01*
X160648403Y-134778756D01*
X160586979Y-134907719D01*
X160516449Y-135057188D01*
X160440266Y-135219863D01*
X160361882Y-135388443D01*
X160284752Y-135555627D01*
X160251331Y-135628550D01*
X160170408Y-135805529D01*
X160056343Y-135805529D01*
X159989949Y-135801192D01*
X159948823Y-135790154D01*
X159942278Y-135782475D01*
X159953294Y-135754861D01*
X159984195Y-135684650D01*
X160031762Y-135578836D01*
X160092776Y-135444411D01*
X160164017Y-135288368D01*
X160242266Y-135117699D01*
X160324304Y-134939397D01*
X160406911Y-134760454D01*
X160486867Y-134587863D01*
X160560954Y-134428616D01*
X160625952Y-134289707D01*
X160678641Y-134178127D01*
X160715803Y-134100870D01*
X160725285Y-134081764D01*
X160741766Y-134087137D01*
G37*
G36*
X160686588Y-131087415D02*
G01*
X160729260Y-131159312D01*
X160787974Y-131273896D01*
X160860594Y-131426877D01*
X160944979Y-131613964D01*
X161000926Y-131742095D01*
X161075448Y-131909468D01*
X161162762Y-132097281D01*
X161255953Y-132291346D01*
X161348104Y-132477473D01*
X161432298Y-132641474D01*
X161501337Y-132768661D01*
X161556240Y-132867753D01*
X161601280Y-132953597D01*
X161629114Y-133012026D01*
X161633474Y-133023510D01*
X161652114Y-133068125D01*
X161689631Y-133147703D01*
X161739709Y-133249067D01*
X161772544Y-133313667D01*
X161842196Y-133452190D01*
X161917389Y-133606345D01*
X161984514Y-133748125D01*
X161999599Y-133780891D01*
X162047700Y-133882353D01*
X162114573Y-134018044D01*
X162193379Y-134174360D01*
X162277282Y-134337695D01*
X162334022Y-134446331D01*
X162428520Y-134627861D01*
X162533057Y-134831933D01*
X162637231Y-135038048D01*
X162730641Y-135225705D01*
X162765012Y-135295830D01*
X162921514Y-135612820D01*
X163082847Y-135931690D01*
X163239460Y-136233742D01*
X163354172Y-136449296D01*
X163396592Y-136534456D01*
X163425600Y-136605263D01*
X163434180Y-136640433D01*
X163433600Y-136648463D01*
X163430230Y-136655674D01*
X163421623Y-136662111D01*
X163405335Y-136667818D01*
X163378920Y-136672841D01*
X163339932Y-136677225D01*
X163285925Y-136681016D01*
X163214454Y-136684257D01*
X163123073Y-136686994D01*
X163009337Y-136689273D01*
X162870800Y-136691138D01*
X162705016Y-136692635D01*
X162509540Y-136693808D01*
X162281926Y-136694703D01*
X162019729Y-136695364D01*
X161720502Y-136695838D01*
X161381801Y-136696168D01*
X161001179Y-136696400D01*
X160576192Y-136696579D01*
X160384745Y-136696649D01*
X160049156Y-136697015D01*
X159724992Y-136697843D01*
X159415728Y-136699098D01*
X159124833Y-136700745D01*
X158855782Y-136702749D01*
X158612045Y-136705075D01*
X158397095Y-136707688D01*
X158214403Y-136710552D01*
X158067443Y-136713633D01*
X157959686Y-136716896D01*
X157894603Y-136720304D01*
X157879425Y-136722002D01*
X157796969Y-136733328D01*
X157753559Y-136729796D01*
X157741901Y-136712946D01*
X157754548Y-136671579D01*
X157782493Y-136612552D01*
X160109698Y-136612552D01*
X160121657Y-136626711D01*
X160133615Y-136612552D01*
X160129629Y-136607833D01*
X160213339Y-136607833D01*
X160216622Y-136624667D01*
X160229284Y-136626711D01*
X160248970Y-136616350D01*
X160245228Y-136607833D01*
X160216844Y-136604444D01*
X160213339Y-136607833D01*
X160129629Y-136607833D01*
X160121657Y-136598394D01*
X160109698Y-136612552D01*
X157782493Y-136612552D01*
X157786780Y-136603497D01*
X157793291Y-136591624D01*
X161076757Y-136591624D01*
X161100266Y-136596158D01*
X161131287Y-136590952D01*
X161131544Y-136584236D01*
X163242843Y-136584236D01*
X163254802Y-136598394D01*
X163266760Y-136584236D01*
X163254802Y-136570077D01*
X163242843Y-136584236D01*
X161131544Y-136584236D01*
X161131657Y-136581286D01*
X161099647Y-136574526D01*
X161085816Y-136579050D01*
X161076757Y-136591624D01*
X157793291Y-136591624D01*
X157810075Y-136561021D01*
X157857114Y-136476615D01*
X157884740Y-136425413D01*
X158182760Y-136425413D01*
X158207288Y-136427664D01*
X158275765Y-136429601D01*
X158384307Y-136431235D01*
X158529028Y-136432576D01*
X158706045Y-136433634D01*
X158911473Y-136434420D01*
X159141428Y-136434944D01*
X159392024Y-136435217D01*
X159659378Y-136435249D01*
X159939605Y-136435050D01*
X160228821Y-136434631D01*
X160523140Y-136434002D01*
X160818679Y-136433173D01*
X161111553Y-136432156D01*
X161397877Y-136430959D01*
X161673767Y-136429595D01*
X161935339Y-136428072D01*
X162178708Y-136426402D01*
X162399989Y-136424595D01*
X162595298Y-136422661D01*
X162760751Y-136420610D01*
X162892463Y-136418454D01*
X162986549Y-136416202D01*
X163039125Y-136413865D01*
X163049156Y-136412398D01*
X163043425Y-136384996D01*
X163026665Y-136357703D01*
X163147174Y-136357703D01*
X163159133Y-136371861D01*
X163171092Y-136357703D01*
X163159133Y-136343544D01*
X163147174Y-136357703D01*
X163026665Y-136357703D01*
X163022424Y-136350797D01*
X162995013Y-136304989D01*
X162978014Y-136272753D01*
X163051506Y-136272753D01*
X163063464Y-136286911D01*
X163075423Y-136272753D01*
X163063464Y-136258595D01*
X163051506Y-136272753D01*
X162978014Y-136272753D01*
X162951930Y-136223290D01*
X162900354Y-136119565D01*
X162892354Y-136102853D01*
X163027589Y-136102853D01*
X163039547Y-136117012D01*
X163051506Y-136102853D01*
X163039547Y-136088695D01*
X163027589Y-136102853D01*
X162892354Y-136102853D01*
X162872020Y-136060378D01*
X162851789Y-136017903D01*
X162931920Y-136017903D01*
X162943879Y-136032062D01*
X162955837Y-136017903D01*
X162943879Y-136003745D01*
X162931920Y-136017903D01*
X162851789Y-136017903D01*
X162838302Y-135989587D01*
X162979754Y-135989587D01*
X162991713Y-136003745D01*
X163003672Y-135989587D01*
X162991713Y-135975428D01*
X162979754Y-135989587D01*
X162838302Y-135989587D01*
X162811467Y-135933246D01*
X162748877Y-135803652D01*
X162694963Y-135693728D01*
X162680100Y-135663946D01*
X162644590Y-135593154D01*
X162740583Y-135593154D01*
X162752542Y-135607313D01*
X162764500Y-135593154D01*
X162752542Y-135578996D01*
X162740583Y-135593154D01*
X162644590Y-135593154D01*
X162642472Y-135588931D01*
X162616227Y-135536521D01*
X162716666Y-135536521D01*
X162728624Y-135550679D01*
X162740583Y-135536521D01*
X162788417Y-135536521D01*
X162800376Y-135550679D01*
X162812334Y-135536521D01*
X162800376Y-135522363D01*
X162788417Y-135536521D01*
X162740583Y-135536521D01*
X162728624Y-135522363D01*
X162716666Y-135536521D01*
X162616227Y-135536521D01*
X162586082Y-135476321D01*
X162573699Y-135451571D01*
X162668832Y-135451571D01*
X162680790Y-135465729D01*
X162692749Y-135451571D01*
X162740583Y-135451571D01*
X162752542Y-135465729D01*
X162764500Y-135451571D01*
X162752542Y-135437413D01*
X162740583Y-135451571D01*
X162692749Y-135451571D01*
X162680790Y-135437413D01*
X162668832Y-135451571D01*
X162573699Y-135451571D01*
X162545364Y-135394938D01*
X162716666Y-135394938D01*
X162728624Y-135409096D01*
X162740583Y-135394938D01*
X162728624Y-135380780D01*
X162716666Y-135394938D01*
X162545364Y-135394938D01*
X162516510Y-135337269D01*
X162474551Y-135253355D01*
X162573163Y-135253355D01*
X162585122Y-135267513D01*
X162597080Y-135253355D01*
X162585122Y-135239197D01*
X162573163Y-135253355D01*
X162474551Y-135253355D01*
X162446234Y-135196722D01*
X162620997Y-135196722D01*
X162632956Y-135210880D01*
X162644915Y-135196722D01*
X162632956Y-135182563D01*
X162620997Y-135196722D01*
X162446234Y-135196722D01*
X162439338Y-135182931D01*
X162417928Y-135140088D01*
X162597080Y-135140088D01*
X162609039Y-135154247D01*
X162620997Y-135140088D01*
X162609039Y-135125930D01*
X162597080Y-135140088D01*
X162417928Y-135140088D01*
X162375476Y-135055139D01*
X162549246Y-135055139D01*
X162561205Y-135069297D01*
X162573163Y-135055139D01*
X162561205Y-135040980D01*
X162549246Y-135055139D01*
X162375476Y-135055139D01*
X162368400Y-135040980D01*
X162347069Y-134998505D01*
X162525329Y-134998505D01*
X162537287Y-135012664D01*
X162549246Y-134998505D01*
X162537287Y-134984347D01*
X162525329Y-134998505D01*
X162347069Y-134998505D01*
X162332849Y-134970189D01*
X162429660Y-134970189D01*
X162441619Y-134984347D01*
X162453577Y-134970189D01*
X162441619Y-134956030D01*
X162429660Y-134970189D01*
X162332849Y-134970189D01*
X162278765Y-134862494D01*
X162261609Y-134828606D01*
X162357909Y-134828606D01*
X162369867Y-134842764D01*
X162381826Y-134828606D01*
X162369867Y-134814447D01*
X162357909Y-134828606D01*
X162261609Y-134828606D01*
X162215542Y-134737614D01*
X162313930Y-134737614D01*
X162319749Y-134753439D01*
X162343831Y-134783838D01*
X162357676Y-134777602D01*
X162357909Y-134773644D01*
X162356724Y-134771973D01*
X162405743Y-134771973D01*
X162417702Y-134786131D01*
X162429660Y-134771973D01*
X162417702Y-134757814D01*
X162405743Y-134771973D01*
X162356724Y-134771973D01*
X162340921Y-134749693D01*
X162330296Y-134740952D01*
X162313930Y-134737614D01*
X162215542Y-134737614D01*
X162189929Y-134687023D01*
X162286157Y-134687023D01*
X162298116Y-134701181D01*
X162310075Y-134687023D01*
X162298116Y-134672864D01*
X162286157Y-134687023D01*
X162189929Y-134687023D01*
X162181597Y-134670565D01*
X162146675Y-134602073D01*
X162238323Y-134602073D01*
X162250282Y-134616231D01*
X162262240Y-134602073D01*
X162250282Y-134587915D01*
X162238323Y-134602073D01*
X162146675Y-134602073D01*
X162117800Y-134545440D01*
X162214406Y-134545440D01*
X162226365Y-134559598D01*
X162238323Y-134545440D01*
X162286157Y-134545440D01*
X162298116Y-134559598D01*
X162310075Y-134545440D01*
X162298116Y-134531281D01*
X162286157Y-134545440D01*
X162238323Y-134545440D01*
X162226365Y-134531281D01*
X162214406Y-134545440D01*
X162117800Y-134545440D01*
X162085606Y-134482299D01*
X162074395Y-134460490D01*
X162238323Y-134460490D01*
X162250282Y-134474648D01*
X162262240Y-134460490D01*
X162250282Y-134446331D01*
X162238323Y-134460490D01*
X162074395Y-134460490D01*
X161999502Y-134314800D01*
X161953458Y-134226114D01*
X161882337Y-134089870D01*
X161814643Y-133960127D01*
X161757077Y-133849735D01*
X161750716Y-133837524D01*
X161855649Y-133837524D01*
X161867608Y-133851683D01*
X161879566Y-133837524D01*
X161867608Y-133823366D01*
X161855649Y-133837524D01*
X161750716Y-133837524D01*
X161716343Y-133771545D01*
X161709760Y-133758890D01*
X161615548Y-133574793D01*
X161504971Y-133353928D01*
X161384412Y-133109348D01*
X161277184Y-132888918D01*
X161353389Y-132888918D01*
X161362140Y-132912226D01*
X161369334Y-132907796D01*
X161372196Y-132874190D01*
X161369334Y-132870040D01*
X161355115Y-132873927D01*
X161353389Y-132888918D01*
X161277184Y-132888918D01*
X161260251Y-132854108D01*
X161138868Y-132601260D01*
X161026644Y-132363859D01*
X161000755Y-132308427D01*
X160905214Y-132103547D01*
X160829995Y-131943049D01*
X160772469Y-131821627D01*
X160730005Y-131733976D01*
X160699977Y-131674788D01*
X160679755Y-131638757D01*
X160666709Y-131620577D01*
X160658212Y-131614941D01*
X160657143Y-131614849D01*
X160638317Y-131636892D01*
X160601261Y-131695604D01*
X160553044Y-131779591D01*
X160538658Y-131805808D01*
X160470214Y-131931736D01*
X160393286Y-132073259D01*
X160329093Y-132191339D01*
X160276755Y-132291684D01*
X160249749Y-132356129D01*
X160244926Y-132394272D01*
X160256241Y-132413464D01*
X160273576Y-132432028D01*
X160248812Y-132425894D01*
X160247725Y-132425483D01*
X160220346Y-132429457D01*
X160187155Y-132466118D01*
X160142797Y-132542635D01*
X160106992Y-132613948D01*
X160019729Y-132793232D01*
X159946430Y-132943675D01*
X159883468Y-133072501D01*
X159827214Y-133186932D01*
X159774042Y-133294192D01*
X159720323Y-133401502D01*
X159662430Y-133516087D01*
X159596733Y-133645168D01*
X159519607Y-133795969D01*
X159427422Y-133975713D01*
X159316550Y-134191621D01*
X159226657Y-134366629D01*
X159132396Y-134550252D01*
X159037118Y-134736049D01*
X158946697Y-134912551D01*
X158867005Y-135068292D01*
X158803917Y-135191803D01*
X158784305Y-135230286D01*
X158696581Y-135402112D01*
X158626420Y-135538126D01*
X158566981Y-135651224D01*
X158511425Y-135754304D01*
X158452911Y-135860261D01*
X158401971Y-135951151D01*
X158320788Y-136099918D01*
X158255317Y-136228938D01*
X158208778Y-136331243D01*
X158184392Y-136399865D01*
X158182760Y-136425413D01*
X157884740Y-136425413D01*
X157921201Y-136357836D01*
X157996791Y-136215351D01*
X158078339Y-136059826D01*
X158160299Y-135901930D01*
X158237126Y-135752330D01*
X158303274Y-135621692D01*
X158353198Y-135520685D01*
X158375581Y-135473191D01*
X158413716Y-135393550D01*
X158469810Y-135282535D01*
X158535654Y-135156177D01*
X158589657Y-135055139D01*
X158650465Y-134941872D01*
X158818173Y-134941872D01*
X158830131Y-134956030D01*
X158842090Y-134941872D01*
X158830131Y-134927714D01*
X158818173Y-134941872D01*
X158650465Y-134941872D01*
X158658012Y-134927814D01*
X158680640Y-134885239D01*
X158770338Y-134885239D01*
X158782297Y-134899397D01*
X158794255Y-134885239D01*
X158782297Y-134871081D01*
X158770338Y-134885239D01*
X158680640Y-134885239D01*
X158695691Y-134856922D01*
X158866007Y-134856922D01*
X158877965Y-134871081D01*
X158889924Y-134856922D01*
X158877965Y-134842764D01*
X158866007Y-134856922D01*
X158695691Y-134856922D01*
X158725791Y-134800289D01*
X158818173Y-134800289D01*
X158830131Y-134814447D01*
X158842090Y-134800289D01*
X158889924Y-134800289D01*
X158901882Y-134814447D01*
X158913841Y-134800289D01*
X158901882Y-134786131D01*
X158889924Y-134800289D01*
X158842090Y-134800289D01*
X158830131Y-134786131D01*
X158818173Y-134800289D01*
X158725791Y-134800289D01*
X158742322Y-134769186D01*
X158755797Y-134743656D01*
X158913841Y-134743656D01*
X158925800Y-134757814D01*
X158937758Y-134743656D01*
X158925800Y-134729498D01*
X158913841Y-134743656D01*
X158755797Y-134743656D01*
X158833591Y-134596268D01*
X158922821Y-134426073D01*
X158956544Y-134361382D01*
X159047641Y-134186563D01*
X159067257Y-134149007D01*
X159176930Y-134149007D01*
X159188888Y-134163165D01*
X159200847Y-134149007D01*
X159188888Y-134134849D01*
X159176930Y-134149007D01*
X159067257Y-134149007D01*
X159105196Y-134076372D01*
X159254545Y-134076372D01*
X159257817Y-134078216D01*
X159279643Y-134058281D01*
X159284557Y-134049899D01*
X159290651Y-134023426D01*
X159287380Y-134021582D01*
X159265553Y-134041517D01*
X159260640Y-134049899D01*
X159254545Y-134076372D01*
X159105196Y-134076372D01*
X159149352Y-133991833D01*
X159170831Y-133950791D01*
X159248681Y-133950791D01*
X159260640Y-133964949D01*
X159272598Y-133950791D01*
X159260640Y-133936632D01*
X159248681Y-133950791D01*
X159170831Y-133950791D01*
X159215290Y-133865841D01*
X159296515Y-133865841D01*
X159308474Y-133879999D01*
X159320432Y-133865841D01*
X159368267Y-133865841D01*
X159380225Y-133879999D01*
X159392184Y-133865841D01*
X159380225Y-133851683D01*
X159368267Y-133865841D01*
X159320432Y-133865841D01*
X159308474Y-133851683D01*
X159296515Y-133865841D01*
X159215290Y-133865841D01*
X159238484Y-133821522D01*
X159326296Y-133821522D01*
X159329568Y-133823366D01*
X159351394Y-133803432D01*
X159356308Y-133795049D01*
X159359568Y-133780891D01*
X159416101Y-133780891D01*
X159428060Y-133795049D01*
X159440018Y-133780891D01*
X159428060Y-133766733D01*
X159416101Y-133780891D01*
X159359568Y-133780891D01*
X159362403Y-133768576D01*
X159359131Y-133766733D01*
X159337305Y-133786667D01*
X159332391Y-133795049D01*
X159326296Y-133821522D01*
X159238484Y-133821522D01*
X159250837Y-133797918D01*
X159289476Y-133724258D01*
X159368267Y-133724258D01*
X159380225Y-133738416D01*
X159392184Y-133724258D01*
X159380225Y-133710100D01*
X159368267Y-133724258D01*
X159289476Y-133724258D01*
X159304330Y-133695941D01*
X159463935Y-133695941D01*
X159475894Y-133710100D01*
X159487852Y-133695941D01*
X159475894Y-133681783D01*
X159463935Y-133695941D01*
X159304330Y-133695941D01*
X159312724Y-133679939D01*
X159398048Y-133679939D01*
X159401319Y-133681783D01*
X159423146Y-133661849D01*
X159428060Y-133653466D01*
X159431319Y-133639308D01*
X159487852Y-133639308D01*
X159499811Y-133653466D01*
X159511769Y-133639308D01*
X159499811Y-133625150D01*
X159487852Y-133639308D01*
X159431319Y-133639308D01*
X159434154Y-133626993D01*
X159430883Y-133625150D01*
X159409056Y-133645084D01*
X159404142Y-133653466D01*
X159398048Y-133679939D01*
X159312724Y-133679939D01*
X159341258Y-133625542D01*
X159357320Y-133594989D01*
X159445882Y-133594989D01*
X159449154Y-133596833D01*
X159470980Y-133576899D01*
X159475894Y-133568517D01*
X159479153Y-133554358D01*
X159535687Y-133554358D01*
X159547645Y-133568517D01*
X159559604Y-133554358D01*
X159547645Y-133540200D01*
X159535687Y-133554358D01*
X159479153Y-133554358D01*
X159481988Y-133542044D01*
X159478717Y-133540200D01*
X159456890Y-133560134D01*
X159451977Y-133568517D01*
X159445882Y-133594989D01*
X159357320Y-133594989D01*
X159363793Y-133582675D01*
X159408219Y-133497725D01*
X159487852Y-133497725D01*
X159499811Y-133511883D01*
X159511769Y-133497725D01*
X159499811Y-133483567D01*
X159487852Y-133497725D01*
X159408219Y-133497725D01*
X159451159Y-133415616D01*
X159452632Y-133412775D01*
X159535687Y-133412775D01*
X159547645Y-133426933D01*
X159559604Y-133412775D01*
X159607438Y-133412775D01*
X159619397Y-133426933D01*
X159631355Y-133412775D01*
X159619397Y-133398617D01*
X159607438Y-133412775D01*
X159559604Y-133412775D01*
X159547645Y-133398617D01*
X159535687Y-133412775D01*
X159452632Y-133412775D01*
X159526052Y-133271192D01*
X159679189Y-133271192D01*
X159691148Y-133285350D01*
X159703107Y-133271192D01*
X159691148Y-133257034D01*
X159679189Y-133271192D01*
X159526052Y-133271192D01*
X159548186Y-133228508D01*
X159643396Y-133043576D01*
X159686188Y-132959709D01*
X159822692Y-132959709D01*
X159834651Y-132973868D01*
X159846609Y-132959709D01*
X159834651Y-132945551D01*
X159822692Y-132959709D01*
X159686188Y-132959709D01*
X159708801Y-132915391D01*
X159852473Y-132915391D01*
X159855745Y-132917234D01*
X159877571Y-132897300D01*
X159882485Y-132888918D01*
X159888580Y-132862445D01*
X159885308Y-132860601D01*
X159863482Y-132880536D01*
X159858568Y-132888918D01*
X159852473Y-132915391D01*
X159708801Y-132915391D01*
X159725306Y-132883043D01*
X159729503Y-132874760D01*
X159743901Y-132846443D01*
X159822692Y-132846443D01*
X159834651Y-132860601D01*
X159846609Y-132846443D01*
X159834651Y-132832285D01*
X159822692Y-132846443D01*
X159743901Y-132846443D01*
X159758299Y-132818126D01*
X159894444Y-132818126D01*
X159906402Y-132832285D01*
X159918361Y-132818126D01*
X159906402Y-132803968D01*
X159894444Y-132818126D01*
X159758299Y-132818126D01*
X159787094Y-132761493D01*
X159870527Y-132761493D01*
X159882485Y-132775651D01*
X159894444Y-132761493D01*
X159882485Y-132747335D01*
X159870527Y-132761493D01*
X159787094Y-132761493D01*
X159811931Y-132712646D01*
X159859343Y-132619910D01*
X159942278Y-132619910D01*
X159954237Y-132634068D01*
X159966195Y-132619910D01*
X159954237Y-132605752D01*
X159942278Y-132619910D01*
X159859343Y-132619910D01*
X159907363Y-132525985D01*
X159931838Y-132478327D01*
X160014029Y-132478327D01*
X160025988Y-132492485D01*
X160037947Y-132478327D01*
X160025988Y-132464169D01*
X160014029Y-132478327D01*
X159931838Y-132478327D01*
X159946380Y-132450010D01*
X160085781Y-132450010D01*
X160097739Y-132464169D01*
X160109698Y-132450010D01*
X160097739Y-132435852D01*
X160085781Y-132450010D01*
X159946380Y-132450010D01*
X159975463Y-132393377D01*
X160061864Y-132393377D01*
X160073822Y-132407535D01*
X160085781Y-132393377D01*
X160073822Y-132379219D01*
X160061864Y-132393377D01*
X159975463Y-132393377D01*
X160003685Y-132338422D01*
X160084948Y-132181003D01*
X160219870Y-131918719D01*
X160294713Y-131770412D01*
X160372786Y-131770412D01*
X160384745Y-131784570D01*
X160396704Y-131770412D01*
X160384745Y-131756253D01*
X160372786Y-131770412D01*
X160294713Y-131770412D01*
X160333370Y-131693809D01*
X160337470Y-131685462D01*
X160420621Y-131685462D01*
X160432579Y-131699620D01*
X160444538Y-131685462D01*
X160432579Y-131671304D01*
X160420621Y-131685462D01*
X160337470Y-131685462D01*
X160359240Y-131641143D01*
X160450402Y-131641143D01*
X160453673Y-131642987D01*
X160475500Y-131623053D01*
X160480414Y-131614670D01*
X160486508Y-131588197D01*
X160483237Y-131586354D01*
X160461410Y-131606288D01*
X160456496Y-131614670D01*
X160450402Y-131641143D01*
X160359240Y-131641143D01*
X160387059Y-131584510D01*
X160546070Y-131584510D01*
X160549342Y-131586354D01*
X160571168Y-131566419D01*
X160576082Y-131558037D01*
X160582177Y-131531564D01*
X160578905Y-131529721D01*
X160557079Y-131549655D01*
X160552165Y-131558037D01*
X160546070Y-131584510D01*
X160387059Y-131584510D01*
X160400969Y-131556193D01*
X160498236Y-131556193D01*
X160501508Y-131558037D01*
X160523334Y-131538103D01*
X160528248Y-131529721D01*
X160534342Y-131503248D01*
X160531071Y-131501404D01*
X160509244Y-131521338D01*
X160504331Y-131529721D01*
X160498236Y-131556193D01*
X160400969Y-131556193D01*
X160428789Y-131499560D01*
X160593905Y-131499560D01*
X160597176Y-131501404D01*
X160619003Y-131481470D01*
X160623916Y-131473087D01*
X160630011Y-131446614D01*
X160626739Y-131444771D01*
X160604913Y-131464705D01*
X160599999Y-131473087D01*
X160593905Y-131499560D01*
X160428789Y-131499560D01*
X160430357Y-131496367D01*
X160448127Y-131458929D01*
X160540206Y-131458929D01*
X160552165Y-131473087D01*
X160564124Y-131458929D01*
X160552165Y-131444771D01*
X160540206Y-131458929D01*
X160448127Y-131458929D01*
X160488450Y-131373979D01*
X160588041Y-131373979D01*
X160599999Y-131388137D01*
X160611958Y-131373979D01*
X160599999Y-131359821D01*
X160588041Y-131373979D01*
X160488450Y-131373979D01*
X160515740Y-131316486D01*
X160548055Y-131246554D01*
X160592707Y-131157327D01*
X160632568Y-131091929D01*
X160659846Y-131062936D01*
X160662100Y-131062496D01*
X160686588Y-131087415D01*
G37*
G36*
X160667095Y-131843085D02*
G01*
X160703921Y-131905251D01*
X160753688Y-132000400D01*
X160811774Y-132119939D01*
X160837207Y-132174626D01*
X161078310Y-132689394D01*
X161330404Y-133208618D01*
X161525078Y-133596833D01*
X161607908Y-133760506D01*
X161703281Y-133950610D01*
X161799877Y-134144494D01*
X161886375Y-134319508D01*
X161893034Y-134333065D01*
X161971411Y-134490420D01*
X162054802Y-134654010D01*
X162134380Y-134806748D01*
X162201319Y-134931546D01*
X162214850Y-134956030D01*
X162290636Y-135097540D01*
X162373055Y-135260101D01*
X162447236Y-135414180D01*
X162464410Y-135451571D01*
X162529025Y-135590526D01*
X162606670Y-135752008D01*
X162685003Y-135910533D01*
X162722431Y-135984351D01*
X162777468Y-136095524D01*
X162819890Y-136188811D01*
X162845290Y-136253969D01*
X162849775Y-136280339D01*
X162824152Y-136283066D01*
X162754079Y-136285846D01*
X162642940Y-136288638D01*
X162494119Y-136291402D01*
X162311000Y-136294097D01*
X162096967Y-136296683D01*
X161855404Y-136299119D01*
X161589694Y-136301364D01*
X161303223Y-136303378D01*
X160999374Y-136305121D01*
X160681532Y-136306552D01*
X160652948Y-136306662D01*
X160333042Y-136308027D01*
X160026129Y-136309634D01*
X159735670Y-136311448D01*
X159465127Y-136313434D01*
X159217959Y-136315556D01*
X158997629Y-136317780D01*
X158807596Y-136320071D01*
X158651322Y-136322393D01*
X158532267Y-136324711D01*
X158453892Y-136326990D01*
X158419658Y-136329195D01*
X158419026Y-136329339D01*
X158372931Y-136331598D01*
X158354411Y-136320252D01*
X158361594Y-136288294D01*
X158390589Y-136220185D01*
X158392585Y-136216120D01*
X159105178Y-136216120D01*
X159117137Y-136230278D01*
X159129095Y-136216120D01*
X159117137Y-136201961D01*
X159105178Y-136216120D01*
X158392585Y-136216120D01*
X158406487Y-136187803D01*
X162716666Y-136187803D01*
X162728624Y-136201961D01*
X162740583Y-136187803D01*
X162728624Y-136173645D01*
X162716666Y-136187803D01*
X158406487Y-136187803D01*
X158436471Y-136126729D01*
X158452345Y-136096812D01*
X162672687Y-136096812D01*
X162678506Y-136112636D01*
X162702588Y-136143036D01*
X162716433Y-136136800D01*
X162716666Y-136132841D01*
X162699678Y-136108890D01*
X162689053Y-136100149D01*
X162672687Y-136096812D01*
X158452345Y-136096812D01*
X158473685Y-136056595D01*
X158768126Y-136056595D01*
X158846963Y-136067990D01*
X158890448Y-136070553D01*
X158975030Y-136072249D01*
X159093976Y-136073067D01*
X159240554Y-136072995D01*
X159408031Y-136072020D01*
X159589675Y-136070132D01*
X159643314Y-136069421D01*
X159830646Y-136067207D01*
X160055627Y-136065188D01*
X160308074Y-136063418D01*
X160577802Y-136061950D01*
X160854627Y-136060840D01*
X161128364Y-136060141D01*
X161388829Y-136059907D01*
X161431120Y-136059917D01*
X161723393Y-136059433D01*
X161968347Y-136057698D01*
X162166486Y-136054700D01*
X162318313Y-136050424D01*
X162398389Y-136046220D01*
X162644915Y-136046220D01*
X162656873Y-136060378D01*
X162668832Y-136046220D01*
X162656873Y-136032062D01*
X162644915Y-136046220D01*
X162398389Y-136046220D01*
X162424332Y-136044858D01*
X162485047Y-136037987D01*
X162501412Y-136031046D01*
X162489253Y-135996436D01*
X162486078Y-135989587D01*
X162620997Y-135989587D01*
X162632956Y-136003745D01*
X162644915Y-135989587D01*
X162632956Y-135975428D01*
X162620997Y-135989587D01*
X162486078Y-135989587D01*
X162459820Y-135932954D01*
X162525329Y-135932954D01*
X162537287Y-135947112D01*
X162549246Y-135932954D01*
X162597080Y-135932954D01*
X162609039Y-135947112D01*
X162620997Y-135932954D01*
X162609039Y-135918795D01*
X162597080Y-135932954D01*
X162549246Y-135932954D01*
X162537287Y-135918795D01*
X162525329Y-135932954D01*
X162459820Y-135932954D01*
X162456334Y-135925435D01*
X162417471Y-135848004D01*
X162549246Y-135848004D01*
X162561205Y-135862162D01*
X162573163Y-135848004D01*
X162561205Y-135833845D01*
X162549246Y-135848004D01*
X162417471Y-135848004D01*
X162407991Y-135829115D01*
X162388140Y-135791370D01*
X162525329Y-135791370D01*
X162537287Y-135805529D01*
X162549246Y-135791370D01*
X162537287Y-135777212D01*
X162525329Y-135791370D01*
X162388140Y-135791370D01*
X162361545Y-135740800D01*
X162343406Y-135706421D01*
X162477495Y-135706421D01*
X162489453Y-135720579D01*
X162501412Y-135706421D01*
X162489453Y-135692262D01*
X162477495Y-135706421D01*
X162343406Y-135706421D01*
X162313524Y-135649787D01*
X162453577Y-135649787D01*
X162465536Y-135663946D01*
X162477495Y-135649787D01*
X162465536Y-135635629D01*
X162453577Y-135649787D01*
X162313524Y-135649787D01*
X162305675Y-135634912D01*
X162284020Y-135593154D01*
X162429660Y-135593154D01*
X162441619Y-135607313D01*
X162453577Y-135593154D01*
X162441619Y-135578996D01*
X162429660Y-135593154D01*
X162284020Y-135593154D01*
X162239966Y-135508204D01*
X162310075Y-135508204D01*
X162322033Y-135522363D01*
X162333992Y-135508204D01*
X162328889Y-135502163D01*
X162385681Y-135502163D01*
X162391501Y-135517988D01*
X162415583Y-135548387D01*
X162429427Y-135542151D01*
X162429660Y-135538192D01*
X162412672Y-135514242D01*
X162402048Y-135505500D01*
X162385681Y-135502163D01*
X162328889Y-135502163D01*
X162322033Y-135494046D01*
X162310075Y-135508204D01*
X162239966Y-135508204D01*
X162231813Y-135492483D01*
X162210814Y-135451571D01*
X162357909Y-135451571D01*
X162369867Y-135465729D01*
X162381826Y-135451571D01*
X162369867Y-135437413D01*
X162357909Y-135451571D01*
X162210814Y-135451571D01*
X162146246Y-135325771D01*
X162131005Y-135295830D01*
X162296433Y-135295830D01*
X162296596Y-135316641D01*
X162310075Y-135352463D01*
X162334774Y-135396964D01*
X162347633Y-135409096D01*
X162347471Y-135388285D01*
X162333992Y-135352463D01*
X162309292Y-135307962D01*
X162296433Y-135295830D01*
X162131005Y-135295830D01*
X162109384Y-135253355D01*
X162262240Y-135253355D01*
X162274199Y-135267513D01*
X162286157Y-135253355D01*
X162274199Y-135239197D01*
X162262240Y-135253355D01*
X162109384Y-135253355D01*
X162066142Y-135168405D01*
X162214406Y-135168405D01*
X162226365Y-135182563D01*
X162238323Y-135168405D01*
X162226365Y-135154247D01*
X162214406Y-135168405D01*
X162066142Y-135168405D01*
X162055261Y-135147030D01*
X161965143Y-134968517D01*
X161951765Y-134941872D01*
X161877625Y-134794248D01*
X162026924Y-134794248D01*
X162032744Y-134810072D01*
X162056826Y-134840471D01*
X162070670Y-134834235D01*
X162070903Y-134830277D01*
X162053915Y-134806326D01*
X162043291Y-134797585D01*
X162026924Y-134794248D01*
X161877625Y-134794248D01*
X161852217Y-134743656D01*
X161999152Y-134743656D01*
X162011110Y-134757814D01*
X162023069Y-134743656D01*
X162011110Y-134729498D01*
X161999152Y-134743656D01*
X161852217Y-134743656D01*
X161810689Y-134660967D01*
X161806513Y-134652665D01*
X161955173Y-134652665D01*
X161960992Y-134668489D01*
X161985074Y-134698888D01*
X161998919Y-134692652D01*
X161999152Y-134688694D01*
X161982164Y-134664743D01*
X161971539Y-134656002D01*
X161955173Y-134652665D01*
X161806513Y-134652665D01*
X161781063Y-134602073D01*
X161927400Y-134602073D01*
X161939359Y-134616231D01*
X161951318Y-134602073D01*
X161939359Y-134587915D01*
X161927400Y-134602073D01*
X161781063Y-134602073D01*
X161738329Y-134517123D01*
X161879566Y-134517123D01*
X161891525Y-134531281D01*
X161903483Y-134517123D01*
X161891525Y-134502965D01*
X161879566Y-134517123D01*
X161738329Y-134517123D01*
X161709840Y-134460490D01*
X161855649Y-134460490D01*
X161867608Y-134474648D01*
X161879566Y-134460490D01*
X161867608Y-134446331D01*
X161855649Y-134460490D01*
X161709840Y-134460490D01*
X161667106Y-134375540D01*
X161807815Y-134375540D01*
X161819773Y-134389698D01*
X161831732Y-134375540D01*
X161819773Y-134361382D01*
X161807815Y-134375540D01*
X161667106Y-134375540D01*
X161654239Y-134349962D01*
X161638596Y-134318907D01*
X161783898Y-134318907D01*
X161795856Y-134333065D01*
X161807815Y-134318907D01*
X161795856Y-134304748D01*
X161783898Y-134318907D01*
X161638596Y-134318907D01*
X161610069Y-134262274D01*
X161688229Y-134262274D01*
X161700188Y-134276432D01*
X161712146Y-134262274D01*
X161700188Y-134248115D01*
X161688229Y-134262274D01*
X161610069Y-134262274D01*
X161490267Y-134024437D01*
X161438843Y-133922474D01*
X161520809Y-133922474D01*
X161532768Y-133936632D01*
X161544726Y-133922474D01*
X161532768Y-133908316D01*
X161520809Y-133922474D01*
X161438843Y-133922474D01*
X161410281Y-133865841D01*
X161496892Y-133865841D01*
X161508850Y-133879999D01*
X161520809Y-133865841D01*
X161508850Y-133851683D01*
X161496892Y-133865841D01*
X161410281Y-133865841D01*
X161395999Y-133837524D01*
X161544726Y-133837524D01*
X161556685Y-133851683D01*
X161568643Y-133837524D01*
X161556685Y-133823366D01*
X161544726Y-133837524D01*
X161395999Y-133837524D01*
X161353156Y-133752575D01*
X161496892Y-133752575D01*
X161508850Y-133766733D01*
X161520809Y-133752575D01*
X161508850Y-133738416D01*
X161496892Y-133752575D01*
X161353156Y-133752575D01*
X161326626Y-133699971D01*
X161307239Y-133661583D01*
X161452913Y-133661583D01*
X161458732Y-133677408D01*
X161482814Y-133707807D01*
X161496659Y-133701571D01*
X161496892Y-133697612D01*
X161479904Y-133673662D01*
X161469279Y-133664921D01*
X161452913Y-133661583D01*
X161307239Y-133661583D01*
X161281689Y-133610991D01*
X161425140Y-133610991D01*
X161437099Y-133625150D01*
X161449058Y-133610991D01*
X161437099Y-133596833D01*
X161425140Y-133610991D01*
X161281689Y-133610991D01*
X161235737Y-133520000D01*
X161381162Y-133520000D01*
X161386981Y-133535825D01*
X161411063Y-133566224D01*
X161424908Y-133559988D01*
X161425140Y-133556029D01*
X161408153Y-133532079D01*
X161397528Y-133523338D01*
X161381162Y-133520000D01*
X161235737Y-133520000D01*
X161171168Y-133392145D01*
X161092601Y-133236834D01*
X161237659Y-133236834D01*
X161243478Y-133252659D01*
X161267560Y-133283058D01*
X161281405Y-133276822D01*
X161281638Y-133272863D01*
X161264650Y-133248913D01*
X161254025Y-133240172D01*
X161237659Y-133236834D01*
X161092601Y-133236834D01*
X161067008Y-133186242D01*
X161209886Y-133186242D01*
X161221845Y-133200401D01*
X161233803Y-133186242D01*
X161221845Y-133172084D01*
X161209886Y-133186242D01*
X161067008Y-133186242D01*
X161031747Y-133116538D01*
X161024026Y-133101292D01*
X161020973Y-133095251D01*
X161165907Y-133095251D01*
X161171727Y-133111076D01*
X161195809Y-133141475D01*
X161209653Y-133135239D01*
X161209886Y-133131280D01*
X161192898Y-133107330D01*
X161182274Y-133098588D01*
X161165907Y-133095251D01*
X161020973Y-133095251D01*
X160978048Y-133010301D01*
X161118073Y-133010301D01*
X161123892Y-133026126D01*
X161147974Y-133056525D01*
X161161819Y-133050289D01*
X161162052Y-133046330D01*
X161145064Y-133022380D01*
X161134439Y-133013639D01*
X161118073Y-133010301D01*
X160978048Y-133010301D01*
X160952483Y-132959709D01*
X161090301Y-132959709D01*
X161102259Y-132973868D01*
X161114218Y-132959709D01*
X161102259Y-132945551D01*
X161090301Y-132959709D01*
X160952483Y-132959709D01*
X160951046Y-132956866D01*
X160906647Y-132868718D01*
X161046322Y-132868718D01*
X161052141Y-132884543D01*
X161076223Y-132914942D01*
X161090068Y-132908706D01*
X161090301Y-132904747D01*
X161073313Y-132880797D01*
X161062688Y-132872056D01*
X161046322Y-132868718D01*
X160906647Y-132868718D01*
X160881165Y-132818126D01*
X161018549Y-132818126D01*
X161030508Y-132832285D01*
X161042466Y-132818126D01*
X161030508Y-132803968D01*
X161018549Y-132818126D01*
X160881165Y-132818126D01*
X160869338Y-132794646D01*
X160793199Y-132643028D01*
X160771390Y-132599477D01*
X160718601Y-132496129D01*
X160674560Y-132413942D01*
X160645984Y-132365061D01*
X160779378Y-132365061D01*
X160791336Y-132379219D01*
X160803295Y-132365061D01*
X160791336Y-132350902D01*
X160779378Y-132365061D01*
X160645984Y-132365061D01*
X160644936Y-132363268D01*
X160635875Y-132352090D01*
X160621072Y-132374718D01*
X160586813Y-132436434D01*
X160538057Y-132527629D01*
X160479764Y-132638690D01*
X160416895Y-132760008D01*
X160354408Y-132881971D01*
X160297264Y-132994969D01*
X160250423Y-133089390D01*
X160218845Y-133155624D01*
X160208279Y-133180657D01*
X160193443Y-133212576D01*
X160157732Y-133284588D01*
X160105277Y-133388504D01*
X160040211Y-133516139D01*
X159971356Y-133650200D01*
X159890025Y-133808708D01*
X159809674Y-133966541D01*
X159736770Y-134110906D01*
X159677781Y-134229013D01*
X159647566Y-134290590D01*
X159522150Y-134547161D01*
X159399047Y-134794071D01*
X159283623Y-135020760D01*
X159181242Y-135216666D01*
X159112024Y-135344693D01*
X159038432Y-135483230D01*
X158959121Y-135640921D01*
X158888864Y-135788229D01*
X158875733Y-135817104D01*
X158768126Y-136056595D01*
X158473685Y-136056595D01*
X158480336Y-136044061D01*
X158494413Y-136017903D01*
X158650753Y-136017903D01*
X158662711Y-136032062D01*
X158674670Y-136017903D01*
X158662711Y-136003745D01*
X158650753Y-136017903D01*
X158494413Y-136017903D01*
X158540130Y-135932954D01*
X158698587Y-135932954D01*
X158710545Y-135947112D01*
X158722504Y-135932954D01*
X158710545Y-135918795D01*
X158698587Y-135932954D01*
X158540130Y-135932954D01*
X158560259Y-135895550D01*
X158585336Y-135848004D01*
X158746421Y-135848004D01*
X158758380Y-135862162D01*
X158770338Y-135848004D01*
X158758380Y-135833845D01*
X158746421Y-135848004D01*
X158585336Y-135848004D01*
X158660009Y-135706421D01*
X158746421Y-135706421D01*
X158758380Y-135720579D01*
X158770338Y-135706421D01*
X158758380Y-135692262D01*
X158746421Y-135706421D01*
X158660009Y-135706421D01*
X158660944Y-135704649D01*
X158704273Y-135621471D01*
X158866007Y-135621471D01*
X158877965Y-135635629D01*
X158889924Y-135621471D01*
X158877965Y-135607313D01*
X158866007Y-135621471D01*
X158704273Y-135621471D01*
X158733774Y-135564838D01*
X158818173Y-135564838D01*
X158830131Y-135578996D01*
X158842090Y-135564838D01*
X158889924Y-135564838D01*
X158901882Y-135578996D01*
X158913841Y-135564838D01*
X158901882Y-135550679D01*
X158889924Y-135564838D01*
X158842090Y-135564838D01*
X158830131Y-135550679D01*
X158818173Y-135564838D01*
X158733774Y-135564838D01*
X158763276Y-135508204D01*
X158842090Y-135508204D01*
X158854048Y-135522363D01*
X158855605Y-135520519D01*
X158919705Y-135520519D01*
X158922977Y-135522363D01*
X158944803Y-135502428D01*
X158949717Y-135494046D01*
X158955811Y-135467573D01*
X158952540Y-135465729D01*
X158930713Y-135485664D01*
X158925800Y-135494046D01*
X158919705Y-135520519D01*
X158855605Y-135520519D01*
X158866007Y-135508204D01*
X158854048Y-135494046D01*
X158842090Y-135508204D01*
X158763276Y-135508204D01*
X158779064Y-135477895D01*
X158807280Y-135423255D01*
X158961675Y-135423255D01*
X158973634Y-135437413D01*
X158985592Y-135423255D01*
X158973634Y-135409096D01*
X158961675Y-135423255D01*
X158807280Y-135423255D01*
X158836525Y-135366621D01*
X158913841Y-135366621D01*
X158925800Y-135380780D01*
X158937758Y-135366621D01*
X158985592Y-135366621D01*
X158997551Y-135380780D01*
X159009510Y-135366621D01*
X158997551Y-135352463D01*
X158985592Y-135366621D01*
X158937758Y-135366621D01*
X158925800Y-135352463D01*
X158913841Y-135366621D01*
X158836525Y-135366621D01*
X158909638Y-135225038D01*
X159057344Y-135225038D01*
X159069302Y-135239197D01*
X159081261Y-135225038D01*
X159069302Y-135210880D01*
X159057344Y-135225038D01*
X158909638Y-135225038D01*
X158911296Y-135221828D01*
X158996791Y-135055139D01*
X159081261Y-135055139D01*
X159093220Y-135069297D01*
X159105178Y-135055139D01*
X159093220Y-135040980D01*
X159081261Y-135055139D01*
X158996791Y-135055139D01*
X159054314Y-134942987D01*
X159204795Y-134647911D01*
X159236168Y-134586071D01*
X159398048Y-134586071D01*
X159401319Y-134587915D01*
X159423146Y-134567980D01*
X159428060Y-134559598D01*
X159434154Y-134533125D01*
X159430883Y-134531281D01*
X159409056Y-134551216D01*
X159404142Y-134559598D01*
X159398048Y-134586071D01*
X159236168Y-134586071D01*
X159285513Y-134488806D01*
X159440018Y-134488806D01*
X159451977Y-134502965D01*
X159463935Y-134488806D01*
X159451977Y-134474648D01*
X159440018Y-134488806D01*
X159285513Y-134488806D01*
X159299878Y-134460490D01*
X159368267Y-134460490D01*
X159380225Y-134474648D01*
X159392184Y-134460490D01*
X159380225Y-134446331D01*
X159368267Y-134460490D01*
X159299878Y-134460490D01*
X159322362Y-134416171D01*
X159398048Y-134416171D01*
X159401319Y-134418015D01*
X159423146Y-134398081D01*
X159428060Y-134389698D01*
X159434154Y-134363225D01*
X159430883Y-134361382D01*
X159409056Y-134381316D01*
X159404142Y-134389698D01*
X159398048Y-134416171D01*
X159322362Y-134416171D01*
X159359413Y-134343139D01*
X159371644Y-134318907D01*
X159440018Y-134318907D01*
X159451977Y-134333065D01*
X159463935Y-134318907D01*
X159451977Y-134304748D01*
X159440018Y-134318907D01*
X159371644Y-134318907D01*
X159414524Y-134233957D01*
X159487852Y-134233957D01*
X159499811Y-134248115D01*
X159511769Y-134233957D01*
X159499811Y-134219799D01*
X159487852Y-134233957D01*
X159414524Y-134233957D01*
X159436895Y-134189638D01*
X159517633Y-134189638D01*
X159520905Y-134191482D01*
X159542731Y-134171548D01*
X159547645Y-134163165D01*
X159553740Y-134136692D01*
X159550468Y-134134849D01*
X159528642Y-134154783D01*
X159523728Y-134163165D01*
X159517633Y-134189638D01*
X159436895Y-134189638D01*
X159485990Y-134092374D01*
X159559604Y-134092374D01*
X159571562Y-134106532D01*
X159583521Y-134092374D01*
X159571562Y-134078216D01*
X159559604Y-134092374D01*
X159485990Y-134092374D01*
X159514844Y-134035210D01*
X159528796Y-134007424D01*
X159607438Y-134007424D01*
X159619397Y-134021582D01*
X159631355Y-134007424D01*
X159619397Y-133993266D01*
X159607438Y-134007424D01*
X159528796Y-134007424D01*
X159557233Y-133950791D01*
X159631355Y-133950791D01*
X159643314Y-133964949D01*
X159655272Y-133950791D01*
X159643314Y-133936632D01*
X159631355Y-133950791D01*
X159557233Y-133950791D01*
X159599888Y-133865841D01*
X159679189Y-133865841D01*
X159691148Y-133879999D01*
X159703107Y-133865841D01*
X159691148Y-133851683D01*
X159679189Y-133865841D01*
X159599888Y-133865841D01*
X159628325Y-133809208D01*
X159703107Y-133809208D01*
X159715065Y-133823366D01*
X159727024Y-133809208D01*
X159715065Y-133795049D01*
X159703107Y-133809208D01*
X159628325Y-133809208D01*
X159650578Y-133764889D01*
X159732888Y-133764889D01*
X159736159Y-133766733D01*
X159757986Y-133746798D01*
X159762899Y-133738416D01*
X159768994Y-133711943D01*
X159765722Y-133710100D01*
X159743896Y-133730034D01*
X159738982Y-133738416D01*
X159732888Y-133764889D01*
X159650578Y-133764889D01*
X159667764Y-133730663D01*
X159699234Y-133667625D01*
X159774858Y-133667625D01*
X159786817Y-133681783D01*
X159798775Y-133667625D01*
X159786817Y-133653466D01*
X159774858Y-133667625D01*
X159699234Y-133667625D01*
X159726854Y-133612298D01*
X159807296Y-133612298D01*
X159809051Y-133625150D01*
X159828260Y-133603443D01*
X159846609Y-133568517D01*
X159862006Y-133524736D01*
X159860251Y-133511883D01*
X159841042Y-133533590D01*
X159822692Y-133568517D01*
X159807296Y-133612298D01*
X159726854Y-133612298D01*
X159797536Y-133470714D01*
X159879048Y-133470714D01*
X159880802Y-133483567D01*
X159900011Y-133461860D01*
X159918361Y-133426933D01*
X159933757Y-133383152D01*
X159932002Y-133370300D01*
X159912794Y-133392007D01*
X159894444Y-133426933D01*
X159879048Y-133470714D01*
X159797536Y-133470714D01*
X159814847Y-133436038D01*
X159868502Y-133327825D01*
X159942278Y-133327825D01*
X159954237Y-133341984D01*
X159966195Y-133327825D01*
X159954237Y-133313667D01*
X159942278Y-133327825D01*
X159868502Y-133327825D01*
X159910622Y-133242876D01*
X160061864Y-133242876D01*
X160073822Y-133257034D01*
X160085781Y-133242876D01*
X160073822Y-133228717D01*
X160061864Y-133242876D01*
X159910622Y-133242876D01*
X159938702Y-133186242D01*
X160085781Y-133186242D01*
X160097739Y-133200401D01*
X160109698Y-133186242D01*
X160097739Y-133172084D01*
X160085781Y-133186242D01*
X159938702Y-133186242D01*
X159952769Y-133157872D01*
X159966663Y-133129609D01*
X160109698Y-133129609D01*
X160121657Y-133143767D01*
X160133615Y-133129609D01*
X160121657Y-133115451D01*
X160109698Y-133129609D01*
X159966663Y-133129609D01*
X160008423Y-133044659D01*
X160085781Y-133044659D01*
X160097739Y-133058818D01*
X160109698Y-133044659D01*
X160097739Y-133030501D01*
X160085781Y-133044659D01*
X160008423Y-133044659D01*
X160050183Y-132959709D01*
X160133615Y-132959709D01*
X160145574Y-132973868D01*
X160157532Y-132959709D01*
X160145574Y-132945551D01*
X160133615Y-132959709D01*
X160050183Y-132959709D01*
X160078023Y-132903076D01*
X160157532Y-132903076D01*
X160169491Y-132917234D01*
X160181449Y-132903076D01*
X160169491Y-132888918D01*
X160157532Y-132903076D01*
X160078023Y-132903076D01*
X160078205Y-132902706D01*
X160095578Y-132867147D01*
X160105783Y-132846443D01*
X160253201Y-132846443D01*
X160265159Y-132860601D01*
X160277118Y-132846443D01*
X160265159Y-132832285D01*
X160253201Y-132846443D01*
X160105783Y-132846443D01*
X160196424Y-132662546D01*
X160294473Y-132467338D01*
X160375851Y-132308427D01*
X160755461Y-132308427D01*
X160767419Y-132322586D01*
X160779378Y-132308427D01*
X160767419Y-132294269D01*
X160755461Y-132308427D01*
X160375851Y-132308427D01*
X160386612Y-132287414D01*
X160405261Y-132251794D01*
X160731544Y-132251794D01*
X160743502Y-132265952D01*
X160755461Y-132251794D01*
X160743502Y-132237636D01*
X160731544Y-132251794D01*
X160405261Y-132251794D01*
X160469727Y-132128664D01*
X160540704Y-131996979D01*
X160596429Y-131898248D01*
X160633788Y-131838362D01*
X160647834Y-131822498D01*
X160667095Y-131843085D01*
G37*
D13*
%TO.C,C8*%
X125390000Y-94713748D02*
X125390000Y-96136252D01*
X127210000Y-94713748D02*
X127210000Y-96136252D01*
%TO.C,R12*%
X134877500Y-118812258D02*
X134877500Y-118337742D01*
X135922500Y-118812258D02*
X135922500Y-118337742D01*
%TO.C,R6*%
X119137258Y-113077500D02*
X118662742Y-113077500D01*
X119137258Y-114122500D02*
X118662742Y-114122500D01*
%TO.C,SPI1*%
X130240000Y-126380000D02*
X131240000Y-126380000D01*
X130240000Y-127770000D02*
X130240000Y-126380000D01*
X130240000Y-127770000D02*
X130240000Y-127770000D01*
X130240000Y-127770000D02*
X130240000Y-128765000D01*
X131360000Y-127770000D02*
X132240000Y-127770000D01*
X132360000Y-126380000D02*
X133240000Y-126380000D01*
X133360000Y-127770000D02*
X134240000Y-127770000D01*
X134360000Y-126380000D02*
X135240000Y-126380000D01*
X135360000Y-127770000D02*
X136360000Y-127770000D01*
X136360000Y-126380000D02*
X136360000Y-126380000D01*
X136360000Y-127770000D02*
X136360000Y-126380000D01*
%TO.C,R8*%
X151837258Y-116477500D02*
X151362742Y-116477500D01*
X151837258Y-117522500D02*
X151362742Y-117522500D01*
D11*
%TO.C,Q1*%
X135313000Y-110255000D02*
X136838000Y-110255000D01*
X137188000Y-110310000D02*
X140388000Y-110310000D01*
X137188000Y-115360000D02*
X137188000Y-110310000D01*
X140388000Y-110310000D02*
X140388000Y-115360000D01*
X140388000Y-115360000D02*
X137188000Y-115360000D01*
D13*
%TO.C,D6*%
X155750500Y-124390000D02*
X155750500Y-129900000D01*
X159050500Y-124390000D02*
X155750500Y-124390000D01*
X159050500Y-124390000D02*
X159050500Y-129900000D01*
%TO.C,J1*%
X133840000Y-102990000D02*
X133840000Y-107010000D01*
X133840000Y-104490000D02*
X134840000Y-104490000D01*
X133840000Y-107010000D02*
X141560000Y-107010000D01*
X134340000Y-105300000D02*
X133840000Y-105300000D01*
X134340000Y-106510000D02*
X134340000Y-105300000D01*
X134840000Y-104490000D02*
X134840000Y-102990000D01*
X140560000Y-104490000D02*
X140560000Y-102990000D01*
X141060000Y-105300000D02*
X141060000Y-106510000D01*
X141060000Y-106510000D02*
X134340000Y-106510000D01*
X141560000Y-102990000D02*
X133840000Y-102990000D01*
X141560000Y-104490000D02*
X140560000Y-104490000D01*
X141560000Y-105300000D02*
X141060000Y-105300000D01*
X141560000Y-107010000D02*
X141560000Y-102990000D01*
X141860000Y-102690000D02*
X139360000Y-102690000D01*
X141860000Y-105190000D02*
X141860000Y-102690000D01*
%TO.C,TP3*%
X160400000Y-120400000D02*
X162800000Y-120400000D01*
X160400000Y-122800000D02*
X160400000Y-120400000D01*
X162800000Y-120400000D02*
X162800000Y-122800000D01*
X162800000Y-122800000D02*
X160400000Y-122800000D01*
D10*
%TO.C,IC1*%
X119050000Y-90368000D02*
X120050000Y-90368000D01*
X119050000Y-94708000D02*
X120050000Y-94708000D01*
D11*
X121350000Y-94038000D02*
X121350000Y-94038000D01*
X121350000Y-94238000D02*
X121350000Y-94238000D01*
X121350000Y-94038000D02*
G75*
G02*
X121350000Y-94238000I0J-100000D01*
G01*
X121350000Y-94238000D02*
G75*
G02*
X121350000Y-94038000I0J100000D01*
G01*
%TO.C,LED6*%
X139288000Y-129950000D02*
X139288000Y-129950000D01*
X139288000Y-129950000D02*
X139288000Y-129950000D01*
X139388000Y-129950000D02*
X139388000Y-129950000D01*
X139288000Y-129950000D02*
G75*
G02*
X139388000Y-129950000I50000J0D01*
G01*
X139388000Y-129950000D02*
G75*
G02*
X139288000Y-129950000I-50000J0D01*
G01*
X139388000Y-129950000D02*
G75*
G02*
X139288000Y-129950000I-50000J0D01*
G01*
%TO.C,Q2*%
X144413000Y-110225000D02*
X145938000Y-110225000D01*
X146288000Y-110280000D02*
X149488000Y-110280000D01*
X146288000Y-115330000D02*
X146288000Y-110280000D01*
X149488000Y-110280000D02*
X149488000Y-115330000D01*
X149488000Y-115330000D02*
X146288000Y-115330000D01*
D10*
%TO.C,LED2*%
X148185500Y-124060000D02*
X148185500Y-124060000D01*
X148285500Y-124060000D02*
X148285500Y-124060000D01*
D11*
X148985500Y-122690000D02*
X152185500Y-122690000D01*
X148985500Y-125430000D02*
X152185500Y-125430000D01*
D10*
X148185500Y-124060000D02*
G75*
G02*
X148285500Y-124060000I50000J0D01*
G01*
X148285500Y-124060000D02*
G75*
G02*
X148185500Y-124060000I-50000J0D01*
G01*
D13*
%TO.C,R11*%
X136877500Y-118812258D02*
X136877500Y-118337742D01*
X137922500Y-118812258D02*
X137922500Y-118337742D01*
%TO.C,C9*%
X129265000Y-117311252D02*
X129265000Y-116788748D01*
X130735000Y-117311252D02*
X130735000Y-116788748D01*
D11*
%TO.C,LED3*%
X139288000Y-123400000D02*
X139288000Y-123400000D01*
X139288000Y-123400000D02*
X139288000Y-123400000D01*
X139388000Y-123400000D02*
X139388000Y-123400000D01*
X139288000Y-123400000D02*
G75*
G02*
X139388000Y-123400000I50000J0D01*
G01*
X139388000Y-123400000D02*
G75*
G02*
X139288000Y-123400000I-50000J0D01*
G01*
X139388000Y-123400000D02*
G75*
G02*
X139288000Y-123400000I-50000J0D01*
G01*
D13*
%TO.C,BZ1*%
X161100000Y-96800000D02*
G75*
G02*
X148900000Y-96800000I-6100000J0D01*
G01*
X148900000Y-96800000D02*
G75*
G02*
X161100000Y-96800000I6100000J0D01*
G01*
%TO.C,TP2*%
X134600000Y-89600000D02*
X137000000Y-89600000D01*
X134600000Y-92000000D02*
X134600000Y-89600000D01*
X137000000Y-89600000D02*
X137000000Y-92000000D01*
X137000000Y-92000000D02*
X134600000Y-92000000D01*
%TO.C,R4*%
X127887742Y-101877500D02*
X128362258Y-101877500D01*
X127887742Y-102922500D02*
X128362258Y-102922500D01*
%TO.C,TP1*%
X129400000Y-132800000D02*
X131800000Y-132800000D01*
X129400000Y-135200000D02*
X129400000Y-132800000D01*
X131800000Y-132800000D02*
X131800000Y-135200000D01*
X131800000Y-135200000D02*
X129400000Y-135200000D01*
%TO.C,C5*%
X127888748Y-105665000D02*
X128411252Y-105665000D01*
X127888748Y-107135000D02*
X128411252Y-107135000D01*
%TO.C,U1*%
X131162500Y-95090000D02*
X130362500Y-95090000D01*
X131162500Y-95090000D02*
X131962500Y-95090000D01*
X131162500Y-98210000D02*
X130362500Y-98210000D01*
X131162500Y-98210000D02*
X131962500Y-98210000D01*
X129862500Y-95140000D02*
X129622500Y-94810000D01*
X130102500Y-94810000D01*
X129862500Y-95140000D01*
G36*
X129862500Y-95140000D02*
G01*
X129622500Y-94810000D01*
X130102500Y-94810000D01*
X129862500Y-95140000D01*
G37*
%TO.C,R10*%
X124227500Y-108487742D02*
X124227500Y-108962258D01*
X125272500Y-108487742D02*
X125272500Y-108962258D01*
%TO.C,C1*%
X138590000Y-93454437D02*
X138590000Y-99210000D01*
X138590000Y-99210000D02*
X140940000Y-99210000D01*
X139654437Y-92390000D02*
X138590000Y-93454437D01*
X139654437Y-92390000D02*
X140940000Y-92390000D01*
X143847500Y-91362500D02*
X143847500Y-92150000D01*
X144241250Y-91756250D02*
X143453750Y-91756250D01*
X144345563Y-92390000D02*
X143060000Y-92390000D01*
X144345563Y-92390000D02*
X145410000Y-93454437D01*
X145410000Y-93454437D02*
X145410000Y-99210000D01*
X145410000Y-99210000D02*
X143060000Y-99210000D01*
%TO.C,D5*%
X155750000Y-116890000D02*
X155750000Y-122400000D01*
X159050000Y-116890000D02*
X155750000Y-116890000D01*
X159050000Y-116890000D02*
X159050000Y-122400000D01*
%TD*%
M02*
